<svg xmlns="http://www.w3.org/2000/svg" viewBox="0 0 400 400"><defs><style>.cls-1{fill:none;stroke:#e9eaea;stroke-miterlimit:10;stroke-width:0.75px;}</style></defs><title>frame 410</title><g id="設計"><polygon class="cls-1" points="200 28.3 224.41 45.89 253.06 36.71 270.83 60.98 300.92 61.09 310.33 89.67 338.91 99.08 339.02 129.16 363.29 146.94 354.11 175.59 371.7 200 354.11 224.41 363.29 253.06 339.02 270.83 338.91 300.92 310.33 310.33 300.92 338.91 270.83 339.02 253.06 363.29 224.41 354.11 200 371.7 175.59 354.11 146.94 363.29 129.16 339.02 99.08 338.91 89.67 310.33 61.09 300.92 60.98 270.83 36.71 253.06 45.89 224.41 28.3 200 45.89 175.59 36.71 146.94 60.98 129.16 61.09 99.08 89.67 89.67 99.08 61.09 129.16 60.98 146.94 36.71 175.59 45.89 200 28.3"/></g></svg>