<svg xmlns="http://www.w3.org/2000/svg" viewBox="0 0 300 50"><defs><style>.cls-1{fill:#ffd073;}</style></defs><title>plus</title><g id="設計"><path class="cls-1" d="M14.63,14.2v-1c2.1.06,3.75.1,5,.1.82,0,1.68,0,2.6,0l2.45-.07.75,0a11.09,11.09,0,0,1,3.91.55,4.58,4.58,0,0,1,2.22,1.74,4.83,4.83,0,0,1,.79,2.73,6.22,6.22,0,0,1-.66,2.73,6.4,6.4,0,0,1-1.93,2.31,8.48,8.48,0,0,1-2.64,1.35,7.74,7.74,0,0,1-2.13.28,11.21,11.21,0,0,1-2.15-.22l-.33-1.17a10.37,10.37,0,0,0,2.19.31,4.59,4.59,0,0,0,2.22-.57,3.85,3.85,0,0,0,1.64-1.72A5.45,5.45,0,0,0,29.12,19a5.18,5.18,0,0,0-.57-2.43,3.7,3.7,0,0,0-1.74-1.64A6.33,6.33,0,0,0,24,14.33a10.47,10.47,0,0,0-3.18.53c-.1,1.1-.14,2.83-.14,5.19v7.87c0,1.42,0,2.8,0,4.14a5,5,0,0,0,.23,1.77,1.08,1.08,0,0,0,.58.41,11.45,11.45,0,0,0,2.26.17v1c-1.93-.09-3.35-.13-4.25-.13-.36,0-2,0-4.9.13v-1a11.58,11.58,0,0,0,2.25-.17,1.07,1.07,0,0,0,.57-.37,4,4,0,0,0,.23-1.51q0-.33.06-4.44V20.69c0-1.42,0-2.81,0-4.16a4.85,4.85,0,0,0-.23-1.76,1,1,0,0,0-.58-.4A10.74,10.74,0,0,0,14.63,14.2Z"/><path class="cls-1" d="M34.71,35.41V34.5l1.47,0a1.36,1.36,0,0,0,.53-.11.75.75,0,0,0,.27-.26,2.66,2.66,0,0,0,.2-1.11c0-.14,0-1.63.11-4.48V22c0-1.74,0-3.54-.09-5.39A10.45,10.45,0,0,0,37,14.56a.45.45,0,0,0-.25-.22,10.48,10.48,0,0,0-2.16-.11v-.92a18.09,18.09,0,0,0,4.91-1.09.89.89,0,0,1,.31-.1.24.24,0,0,1,.17.07.32.32,0,0,1,.06.2,2.24,2.24,0,0,1,0,.31v.52c-.05,1.86-.09,3.45-.1,4.76l0,2.43v8.11c.05,2.71.09,4.17.1,4.39a3.06,3.06,0,0,0,.18,1.14.88.88,0,0,0,.19.24.9.9,0,0,0,.38.16c.07,0,.65,0,1.73,0v.91c-1.42-.09-2.66-.13-3.73-.13S36.38,35.32,34.71,35.41Z"/><path class="cls-1" d="M62.52,34.51v.9c-1.37-.08-2.4-.11-3.1-.11a23.18,23.18,0,0,0-2.34.11c.06-.85.11-1.8.14-2.85a27.42,27.42,0,0,0-2.24,2,2.37,2.37,0,0,1-.57.44,5,5,0,0,1-1.35.53,6.79,6.79,0,0,1-1.61.17,5.83,5.83,0,0,1-2.11-.34,3.83,3.83,0,0,1-1.47-1A3.53,3.53,0,0,1,47.18,33a7,7,0,0,1-.24-2c0-.37,0-.71,0-1s0-.64,0-1V26.39c0-.27,0-.95-.05-2.05A5.75,5.75,0,0,0,46.83,23a.47.47,0,0,0-.21-.25,1.49,1.49,0,0,0-.82-.16H44.44v-.89a13.77,13.77,0,0,0,4.87-1.21,1,1,0,0,1,.39-.14.22.22,0,0,1,.18.08.33.33,0,0,1,.07.24c0,.08,0,.18,0,.31,0,.33-.08,1-.11,1.92-.06,1.74-.1,2.91-.1,3.5v3.05A9.64,9.64,0,0,0,50,32.12a2.31,2.31,0,0,0,1,1.23,3.42,3.42,0,0,0,1.84.46,4.33,4.33,0,0,0,1.49-.26,4.5,4.5,0,0,0,1.34-.74,5.75,5.75,0,0,0,.89-1,3.81,3.81,0,0,0,.45-.69,2.21,2.21,0,0,0,.14-.71c0-.92.08-1.83.08-2.74V26.39c0-.27,0-.95,0-2.05A5.75,5.75,0,0,0,57,23a.5.5,0,0,0-.2-.25,1.53,1.53,0,0,0-.83-.16H54.64v-.89a13.9,13.9,0,0,0,4.88-1.21.88.88,0,0,1,.39-.14.25.25,0,0,1,.18.08.38.38,0,0,1,.07.24c0,.08,0,.18,0,.31,0,.33-.07,1-.11,2-.06,1.7-.09,2.85-.09,3.44v2.14l0,2.17q0,1.89.06,2.22a3.32,3.32,0,0,0,.17,1.14.61.61,0,0,0,.21.24.85.85,0,0,0,.37.17Z"/><path class="cls-1" d="M65.58,30.69h.94a12.11,12.11,0,0,0,.09,1.43,4.68,4.68,0,0,0,.27,1,2.05,2.05,0,0,0,.58.86,2.88,2.88,0,0,0,.85.55,3.49,3.49,0,0,0,.93.26,12.73,12.73,0,0,0,1.45.06,4,4,0,0,0,2.62-.84,2.86,2.86,0,0,0,1-2.32A2.11,2.11,0,0,0,74,30.58a2,2,0,0,0-.92-.78,15.12,15.12,0,0,0-2.59-.74c-1.32-.3-2.17-.52-2.56-.65a4.35,4.35,0,0,1-1.39-.8,3.32,3.32,0,0,1-.82-1.19,4,4,0,0,1-.31-1.56,4.28,4.28,0,0,1,.65-2.28,4.68,4.68,0,0,1,2-1.68,7.13,7.13,0,0,1,3-.65,11.29,11.29,0,0,1,2.28.27,8.72,8.72,0,0,1,2.11.68c-.07,1.16-.12,2.34-.15,3.53h-.89a9.91,9.91,0,0,0-.18-1.5,2.48,2.48,0,0,0-.28-.64,2.34,2.34,0,0,0-.59-.6,4.41,4.41,0,0,0-1.09-.57,4.54,4.54,0,0,0-1.63-.25,3,3,0,0,0-2.21.81,2.57,2.57,0,0,0-.84,1.91,2.17,2.17,0,0,0,.25,1.05,1.93,1.93,0,0,0,.65.71,4.45,4.45,0,0,0,1.14.49l2.59.64a15.89,15.89,0,0,1,2.71.86,2.81,2.81,0,0,1,1.2,1.12,3.48,3.48,0,0,1,.45,1.82,4.83,4.83,0,0,1-1.74,3.68,6.75,6.75,0,0,1-4.67,1.57,21.31,21.31,0,0,1-3.58-.41,5.27,5.27,0,0,1-1.32-.33.16.16,0,0,1-.07-.15.93.93,0,0,1,0-.27,10.28,10.28,0,0,0,.18-1.31C65.53,32.93,65.56,32,65.58,30.69Z"/><path class="cls-1" d="M101.09,33l-.5,1.13A15,15,0,0,1,99,35a9.46,9.46,0,0,1-1.68.55,8.61,8.61,0,0,1-2,.23,8,8,0,0,1-3.73-.86A6,6,0,0,1,89,32.35a8.39,8.39,0,0,1-.92-4,9.93,9.93,0,0,1,.49-3.24A6.14,6.14,0,0,1,89.7,23a7.72,7.72,0,0,1,1.4-1.15,10.34,10.34,0,0,1,1.89-1,6.81,6.81,0,0,1,2.68-.52,6.34,6.34,0,0,1,3.16.8,4.87,4.87,0,0,1,2.07,2.17,7.1,7.1,0,0,1,.66,3.11c0,.29,0,.64-.07,1.06a15.65,15.65,0,0,1-2,.28c-1.12.09-2.25.13-3.37.13h-5a7.76,7.76,0,0,0,.78,3.61,4.57,4.57,0,0,0,2,2,5.93,5.93,0,0,0,4.61.35,12.37,12.37,0,0,0,2.34-1.11Zm-10-6.4c.29,0,.85.06,1.66.09,1.56,0,2.63.08,3.21.08,1.39,0,2.3,0,2.74-.08,0-.25,0-.44,0-.58a5.46,5.46,0,0,0-1-3.61A3.38,3.38,0,0,0,95,21.33a3.57,3.57,0,0,0-2.85,1.26A6.11,6.11,0,0,0,91.07,26.58Z"/><path class="cls-1" d="M103.86,35.41v-.88l1.48,0a1.14,1.14,0,0,0,.51-.11.75.75,0,0,0,.27-.26,2.76,2.76,0,0,0,.22-1.11c0-.14,0-1.63.09-4.49V26.68c0-.84,0-1.74,0-2.69a3.38,3.38,0,0,0-.15-1.1.69.69,0,0,0-.35-.26,11.34,11.34,0,0,0-2-.07v-.89a16.21,16.21,0,0,0,4.59-1.14,1.43,1.43,0,0,1,.42-.16.21.21,0,0,1,.17.08.38.38,0,0,1,.07.24c0,.07,0,.15,0,.25q0,.55-.09,2.37l2.91-2.48a6.86,6.86,0,0,1,2.42-.47,5.74,5.74,0,0,1,2.4.51,4.26,4.26,0,0,1,1.71,1.3,4.55,4.55,0,0,1,.76,2c.07.47.11,1.78.11,3.93v2.77a23.31,23.31,0,0,0,.11,2.77,1.3,1.3,0,0,0,.24.65.81.81,0,0,0,.51.22l1.67.05v.88c-1-.08-1.87-.11-2.55-.11s-1.55,0-2.9.11c.14-2.58.22-4.2.22-4.88V27.91a17.39,17.39,0,0,0-.19-3.22A2.85,2.85,0,0,0,115.21,23a3.89,3.89,0,0,0-2.27-.64,4.21,4.21,0,0,0-2.14.55,3.57,3.57,0,0,0-1.39,1.29,5.21,5.21,0,0,0-.41,2.45v1.89c.06,2.71.09,4.18.09,4.39a3.25,3.25,0,0,0,.19,1.15.69.69,0,0,0,.18.24,1,1,0,0,0,.4.16c.06,0,.63,0,1.71.05v.88c-1.27-.08-2.42-.11-3.44-.11C107.26,35.3,105.83,35.33,103.86,35.41Z"/><path class="cls-1" d="M133.45,14.19V13.3c1.16-.13,2.14-.28,2.93-.45a22.35,22.35,0,0,0,2.34-.63l.2.14c0,.88-.09,2.59-.14,5.12l-.06,2.5v9.78c0,1.07,0,2,.05,2.76a4,4,0,0,0,.2,1.39,1,1,0,0,0,.47.37,9.5,9.5,0,0,0,1.95.28v.85c-1.27-.08-2.17-.11-2.69-.11s-1.36,0-2.75.11c0-.72.06-1.69.08-2.91-.42.3-1,.75-1.68,1.36s-1.25,1.1-1.65,1.48a9.18,9.18,0,0,1-2.2.32,6.31,6.31,0,0,1-3.25-.88A5.78,5.78,0,0,1,125,32.24a8.44,8.44,0,0,1-.8-3.74,8.8,8.8,0,0,1,.49-3,5.88,5.88,0,0,1,1.24-2.17,10.62,10.62,0,0,1,1.92-1.32,20.31,20.31,0,0,1,2.43-1.29,5,5,0,0,1,2-.4,7.91,7.91,0,0,1,1.93.24,7.72,7.72,0,0,1,1.83.74V17.23a10.07,10.07,0,0,0-.19-2.64.43.43,0,0,0-.23-.25A9.15,9.15,0,0,0,133.45,14.19ZM136,24a7.05,7.05,0,0,0-2.23-1.71,5.35,5.35,0,0,0-2.28-.54,4.4,4.4,0,0,0-2.36.66,4.16,4.16,0,0,0-1.65,2,8,8,0,0,0-.57,3.18,6.5,6.5,0,0,0,1.42,4.47,4.43,4.43,0,0,0,3.42,1.61,4,4,0,0,0,1.88-.44,4.51,4.51,0,0,0,2.25-3.15,27.52,27.52,0,0,0,.12-3.39Z"/><path class="cls-1" d="M144,35.41V34.5l1.47,0a1.3,1.3,0,0,0,.52-.11.75.75,0,0,0,.27-.26,2.62,2.62,0,0,0,.21-1.11c0-.14,0-1.63.11-4.48V22c0-1.74,0-3.54-.1-5.39a10.45,10.45,0,0,0-.17-2.09.45.45,0,0,0-.25-.22,10.48,10.48,0,0,0-2.16-.11v-.92a18.09,18.09,0,0,0,4.91-1.09,1,1,0,0,1,.31-.1.22.22,0,0,1,.17.07.27.27,0,0,1,.07.2,2.24,2.24,0,0,1,0,.31l0,.52c-.05,1.86-.08,3.45-.09,4.76l0,2.43v8.11c.06,2.71.09,4.17.1,4.39a2.83,2.83,0,0,0,.19,1.14.69.69,0,0,0,.18.24,1,1,0,0,0,.38.16c.07,0,.65,0,1.73,0v.91c-1.41-.09-2.66-.13-3.73-.13S145.65,35.32,144,35.41Z"/><path class="cls-1" d="M167.1,33l-.5,1.13A14.08,14.08,0,0,1,165,35a9.46,9.46,0,0,1-1.68.55,8.54,8.54,0,0,1-2,.23,8,8,0,0,1-3.73-.86A6,6,0,0,1,155,32.35a8.28,8.28,0,0,1-.93-4,9.93,9.93,0,0,1,.49-3.24A6.14,6.14,0,0,1,155.71,23a7.72,7.72,0,0,1,1.4-1.15,10.09,10.09,0,0,1,1.9-1,6.73,6.73,0,0,1,2.67-.52,6.34,6.34,0,0,1,3.16.8,4.87,4.87,0,0,1,2.07,2.17,7.1,7.1,0,0,1,.66,3.11c0,.29,0,.64-.06,1.06a15.89,15.89,0,0,1-2,.28c-1.13.09-2.26.13-3.38.13h-5a7.89,7.89,0,0,0,.78,3.61,4.57,4.57,0,0,0,2,2,5.93,5.93,0,0,0,4.61.35,12.37,12.37,0,0,0,2.34-1.11Zm-10-6.4c.3,0,.85.06,1.66.09,1.56,0,2.63.08,3.21.08,1.39,0,2.31,0,2.74-.08,0-.25,0-.44,0-.58a5.46,5.46,0,0,0-1-3.61A3.37,3.37,0,0,0,161,21.33a3.57,3.57,0,0,0-2.85,1.26A6.11,6.11,0,0,0,157.08,26.58Z"/><path class="cls-1" d="M170.88,30.69h.94a10,10,0,0,0,.1,1.43,5.28,5.28,0,0,0,.26,1,2.15,2.15,0,0,0,.58.86,2.88,2.88,0,0,0,.85.55,3.56,3.56,0,0,0,.94.26,12.53,12.53,0,0,0,1.44.06,4,4,0,0,0,2.62-.84,2.86,2.86,0,0,0,1-2.32,2,2,0,0,0-1.24-1.93,15.21,15.21,0,0,0-2.58-.74c-1.33-.3-2.18-.52-2.57-.65a4.46,4.46,0,0,1-1.39-.8,3.46,3.46,0,0,1-.82-1.19,4,4,0,0,1-.3-1.56,4.19,4.19,0,0,1,.65-2.28,4.57,4.57,0,0,1,2-1.68,7.07,7.07,0,0,1,3-.65,11.45,11.45,0,0,1,2.28.27,9,9,0,0,1,2.11.68c-.08,1.16-.13,2.34-.16,3.53h-.89a8.71,8.71,0,0,0-.18-1.5,2.86,2.86,0,0,0-.27-.64,2.41,2.41,0,0,0-.6-.6,4.51,4.51,0,0,0-1.08-.57,4.62,4.62,0,0,0-1.63-.25,3.06,3.06,0,0,0-2.22.81,2.6,2.6,0,0,0-.83,1.91,2.17,2.17,0,0,0,.24,1.05,2,2,0,0,0,.65.71,4.45,4.45,0,0,0,1.14.49l2.59.64a15.58,15.58,0,0,1,2.71.86,2.75,2.75,0,0,1,1.2,1.12,3.48,3.48,0,0,1,.45,1.82,4.83,4.83,0,0,1-1.74,3.68,6.74,6.74,0,0,1-4.66,1.57,21.2,21.2,0,0,1-3.58-.41,5.28,5.28,0,0,1-1.33-.33.18.18,0,0,1-.06-.15,1.39,1.39,0,0,1,0-.27,10.34,10.34,0,0,0,.19-1.31C170.84,32.93,170.86,32,170.88,30.69Z"/><path class="cls-1" d="M185.25,30.69h.93a11.76,11.76,0,0,0,.1,1.43,5.28,5.28,0,0,0,.26,1,2.15,2.15,0,0,0,.58.86,3,3,0,0,0,.85.55,3.56,3.56,0,0,0,.94.26,12.73,12.73,0,0,0,1.45.06,4,4,0,0,0,2.61-.84,2.87,2.87,0,0,0,1-2.32,2,2,0,0,0-1.25-1.93,15.21,15.21,0,0,0-2.58-.74c-1.32-.3-2.18-.52-2.56-.65a4.41,4.41,0,0,1-1.4-.8,3.46,3.46,0,0,1-.82-1.19,4,4,0,0,1-.3-1.56,4.28,4.28,0,0,1,.65-2.28,4.57,4.57,0,0,1,2-1.68,7.07,7.07,0,0,1,3-.65,11.37,11.37,0,0,1,2.28.27,8.87,8.87,0,0,1,2.11.68c-.07,1.16-.13,2.34-.16,3.53h-.89a8.71,8.71,0,0,0-.18-1.5,2.86,2.86,0,0,0-.27-.64,2.52,2.52,0,0,0-.59-.6,4.8,4.8,0,0,0-1.09-.57,4.58,4.58,0,0,0-1.63-.25,3,3,0,0,0-2.21.81,2.57,2.57,0,0,0-.84,1.91,2.17,2.17,0,0,0,.24,1.05,2,2,0,0,0,.65.71,4.45,4.45,0,0,0,1.14.49l2.59.64a16.08,16.08,0,0,1,2.72.86,2.78,2.78,0,0,1,1.19,1.12,3.48,3.48,0,0,1,.45,1.82,4.83,4.83,0,0,1-1.74,3.68,6.72,6.72,0,0,1-4.66,1.57,21.2,21.2,0,0,1-3.58-.41,5.44,5.44,0,0,1-1.33-.33.18.18,0,0,1-.06-.15,1.39,1.39,0,0,1,0-.27,10.34,10.34,0,0,0,.19-1.31C185.2,32.93,185.23,32,185.25,30.69Z"/><path class="cls-1" d="M207.64,14.2v-1c1.59.06,2.93.1,4,.1.79,0,2.19,0,4.21-.07s3.38-.06,4.09-.06l2.09,0q.94,0,1.71.09a21.62,21.62,0,0,0-.5,4.73h-1a17.88,17.88,0,0,0-.39-2.9,9.29,9.29,0,0,0-2-.42c-.8-.08-1.73-.13-2.78-.13a28.29,28.29,0,0,0-3.26.19c-.07.56-.11,1.09-.13,1.58,0,.28,0,1.47-.08,3.58v3.46c1.17,0,2.2.05,3.1.05a20.34,20.34,0,0,0,3.17-.2.87.87,0,0,0,.58-.26,4.22,4.22,0,0,0,.29-1.32l.13-1h1l-.11,3.56.11,3.83h-1l-.11-1a11.52,11.52,0,0,0-.25-1.83.88.88,0,0,0-.59-.32,23.19,23.19,0,0,0-4-.21c-.73,0-1.5,0-2.28.06v3.16c0,1.42,0,2.8.07,4.14a4.92,4.92,0,0,0,.21,1.77,1.08,1.08,0,0,0,.58.41,11.58,11.58,0,0,0,2.25.17v1c-1.32-.09-2.64-.13-3.95-.13s-2.9,0-5.16.13v-1a11.58,11.58,0,0,0,2.25-.17,1.07,1.07,0,0,0,.57-.37,4,4,0,0,0,.23-1.51q0-.33.06-4.44V20.69c0-1.42,0-2.81,0-4.16a5.1,5.1,0,0,0-.23-1.76,1,1,0,0,0-.58-.4A10.74,10.74,0,0,0,207.64,14.2Z"/><path class="cls-1" d="M226,14.2v-1c1.7.09,3.28.13,4.74.13s2.94,0,4.4-.13v1a10.78,10.78,0,0,0-2.25.17,1,1,0,0,0-.55.36,4,4,0,0,0-.25,1.52c0,.21,0,1.69-.06,4.44v5.78a14.64,14.64,0,0,0,.43,4.43,4.09,4.09,0,0,0,1.37,1.77,5.65,5.65,0,0,0,1.94.85,10.41,10.41,0,0,0,2.72.32,10.14,10.14,0,0,0,3.1-.43,5.37,5.37,0,0,0,2-1,4.06,4.06,0,0,0,1-1.39,7.25,7.25,0,0,0,.48-2.1,31.29,31.29,0,0,0,.15-3.38V20.69c0-1.42,0-2.81-.06-4.16a4.81,4.81,0,0,0-.21-1.76,1,1,0,0,0-.59-.4,10.78,10.78,0,0,0-2.25-.17v-1c1.72.09,3,.13,3.77.13s2,0,3.89-.13v1a10.83,10.83,0,0,0-2.26.17,1,1,0,0,0-.55.36,3.86,3.86,0,0,0-.24,1.52q0,.32-.06,4.44v5.23a18.35,18.35,0,0,1-.54,5.39,6.08,6.08,0,0,1-2,2.7,7.48,7.48,0,0,1-2.77,1.36,13.38,13.38,0,0,1-3.76.49,13.65,13.65,0,0,1-4.17-.57,6.59,6.59,0,0,1-2.69-1.5,5.24,5.24,0,0,1-1.26-1.9,14.82,14.82,0,0,1-.44-4.3v-6.9c0-1.42,0-2.81,0-4.16a5,5,0,0,0-.22-1.76,1,1,0,0,0-.58-.4A10.83,10.83,0,0,0,226,14.2Z"/><path class="cls-1" d="M252.13,35.41v-1a6.29,6.29,0,0,0,2.16-.25.54.54,0,0,0,.31-.3,5.17,5.17,0,0,0,.22-1.64c.06-1.37.1-2.56.1-3.56V15.94a2.27,2.27,0,0,0-.07-.68,2.27,2.27,0,0,0-.56-.67,1.42,1.42,0,0,0-.65-.32,13.84,13.84,0,0,0-1.63-.08v-1l3.28.06c.76,0,1.52,0,2.27-.06l1.95,2.56,3.23,4,4.72,5.69c1.51,1.81,2.73,3.24,3.64,4.28q.88,1,1.47,1.62V19.92c0-1,0-2.22-.11-3.59a6.13,6.13,0,0,0-.2-1.61.61.61,0,0,0-.33-.3,6.67,6.67,0,0,0-2.14-.23v-1c1.23,0,2.47.06,3.74.06s2.26,0,3.23-.06v1a6.67,6.67,0,0,0-2.14.23.56.56,0,0,0-.31.31,5.17,5.17,0,0,0-.22,1.64c-.06,1.38-.1,2.56-.1,3.55v7.52q0,2.28.08,8.51l-1.61-.47-.37-.07a1,1,0,0,1-.17-.1,5.1,5.1,0,0,1-.6-.62c-.86-1-1.5-1.72-1.9-2.22l-2-2.55L256.32,16.69v12c0,1,0,2.22.11,3.61a5.85,5.85,0,0,0,.2,1.59.73.73,0,0,0,.33.32,7,7,0,0,0,2.14.23v1c-.91-.08-1.92-.11-3-.11S253.55,35.33,252.13,35.41Z"/><path class="cls-1" d="M282.71,31.83a1.76,1.76,0,0,1,1.32.54,1.83,1.83,0,0,1,.54,1.33,1.86,1.86,0,0,1-1.86,1.86,1.88,1.88,0,0,1-1.87-1.86,1.86,1.86,0,0,1,1.87-1.87ZM284.56,13v1.65l-.83,8.89-.39,4.93-.86.78-.3-.16q-.12-3.15-.73-9.26c-.17-1.7-.27-2.9-.32-3.61s-.07-1.36-.06-2c.89-.42,1.7-.84,2.44-1.25Z"/></g></svg>