<svg xmlns="http://www.w3.org/2000/svg" viewBox="0 0 1100 110"><defs><style>.cls-1{fill:#231f20;}</style></defs><title>the story behind</title><g id="設計"><path class="cls-1" d="M342.33,33.41V32a8.81,8.81,0,0,0,2.51-.28,1.09,1.09,0,0,0,.53-.71,28.12,28.12,0,0,0,.2-4.55V15.9c0-2.87,0-4.47-.06-4.81H343c-1.27,0-2.38,0-3.34.12a1.44,1.44,0,0,0-.67.14,1.27,1.27,0,0,0-.21.62,17.25,17.25,0,0,0-.26,2.75h-1.46C337,12.32,337,11,337,10.66c0-.51-.09-1.07-.17-1.67l.15-.17c.55.06,1.14.1,1.76.12,1,0,3,.05,5.82.05h7.1c2.95,0,4.93,0,5.92-.05.54,0,1.09-.06,1.64-.12l.18.17c-.11.72-.17,1.35-.2,1.89,0,.09,0,1.37-.07,3.84h-1.46a19.64,19.64,0,0,0-.23-2.61,1.78,1.78,0,0,0-.22-.76,1.19,1.19,0,0,0-.57-.12,34.33,34.33,0,0,0-3.46-.14h-2.51c0,.41-.06,2-.06,4.81V26.43a28.54,28.54,0,0,0,.2,4.57,1.06,1.06,0,0,0,.52.68,8.37,8.37,0,0,0,2.52.29v1.44c-2.28-.11-4.19-.16-5.75-.16S344.5,33.3,342.33,33.41Z"/><path class="cls-1" d="M381.09,32v1.39c-1.76,0-2.9-.07-3.44-.07-.37,0-1.56,0-3.59.07l-.18-.18.25-3.67c0-.64.05-1.41.05-2.3V23.85a5.13,5.13,0,0,0-.8-3.32,2.87,2.87,0,0,0-2.29-.92,3.27,3.27,0,0,0-1.9.55A3.41,3.41,0,0,0,368,21.63a4.27,4.27,0,0,0-.16,1.44v2.22c0,.91,0,2.08.06,3.49a24.32,24.32,0,0,0,.12,2.5.73.73,0,0,0,.14.32.7.7,0,0,0,.25.18,2.47,2.47,0,0,0,.8.17l1.36.07v1.39l-5.35-.12-4.36.12V32a15.07,15.07,0,0,0,1.84-.14.92.92,0,0,0,.41-.2,1,1,0,0,0,.2-.38,26.25,26.25,0,0,0,.17-3.34c0-1.86.06-3.52.06-5v-5.7c0-1.89-.05-3.6-.14-5.13a5.55,5.55,0,0,0-.16-1.39.46.46,0,0,0-.2-.19,1.6,1.6,0,0,0-.65-.2c-.2,0-.71-.07-1.53-.1V9c1.66-.2,2.85-.38,3.6-.55s1.81-.47,3.21-.91l.38.21-.14,4.18c0,2.12-.07,4.09-.07,5.91v1.69l3.1-2.57a6.94,6.94,0,0,1,2.55-.47,6.44,6.44,0,0,1,2.47.44,4.32,4.32,0,0,1,1.69,1.19,4.44,4.44,0,0,1,.87,1.61,8.28,8.28,0,0,1,.26,2.27c0,.32,0,1.24-.07,2.75,0,1.11-.06,2-.06,2.74a28.05,28.05,0,0,0,.13,3.81.78.78,0,0,0,.38.55A7,7,0,0,0,381.09,32Z"/><path class="cls-1" d="M398.32,30.7l-.77,1.73a12,12,0,0,1-3,1.3,10.21,10.21,0,0,1-2.6.3,10.45,10.45,0,0,1-3.06-.41A7,7,0,0,1,385,30.79a6.68,6.68,0,0,1-1-2.35,12.74,12.74,0,0,1-.32-2.92,12.79,12.79,0,0,1,.62-4.12,4.69,4.69,0,0,1,1-1.82,13,13,0,0,1,1.83-1.32A17.74,17.74,0,0,1,389.21,17a7.18,7.18,0,0,1,2.9-.54,7,7,0,0,1,3.87,1A5.46,5.46,0,0,1,398.12,20a9.91,9.91,0,0,1,.62,3.7c0,.33,0,.65,0,1a12.28,12.28,0,0,1-1.34.32c-.8.15-1.34.23-1.62.25q-1.32.1-3.48.12l-2.39,0a4,4,0,0,1-.51,0h-1.16a6.49,6.49,0,0,0,1.72,4.39,5.29,5.29,0,0,0,3.91,1.61,7.61,7.61,0,0,0,1.84-.22,12.54,12.54,0,0,0,2.22-.91Zm-4.19-7.27a6.57,6.57,0,0,0-.75-3.92,2.62,2.62,0,0,0-2.18-1.11,2.77,2.77,0,0,0-2.27,1.16,6.08,6.08,0,0,0-.84,3.87,27.4,27.4,0,0,0,3.46.15A18.47,18.47,0,0,0,394.13,23.43Z"/><path class="cls-1" d="M427.13,15.25h-1.48a22.72,22.72,0,0,0-.17-2.88A4.53,4.53,0,0,0,423.59,11a7.33,7.33,0,0,0-3-.6,5.3,5.3,0,0,0-3.7,1.2,3.76,3.76,0,0,0-1.31,2.83,4.2,4.2,0,0,0,.39,1.88A2.89,2.89,0,0,0,417,17.45a7.64,7.64,0,0,0,2,.77c.68.14,1.62.32,2.83.53s2,.36,2.37.44a8.9,8.9,0,0,1,2.3.89,4.74,4.74,0,0,1,1.4,1.19,5.69,5.69,0,0,1,.85,1.71,7.48,7.48,0,0,1,.34,2.31,8.09,8.09,0,0,1-.94,3.95,8.23,8.23,0,0,1-1.95,2.35,9.16,9.16,0,0,1-2.56,1.59,13.72,13.72,0,0,1-5.07.85,16.59,16.59,0,0,1-3.85-.41,18.08,18.08,0,0,1-3.7-1.39,25.61,25.61,0,0,0,.56-6.1h1.47a22.82,22.82,0,0,0,.2,3.15,5.51,5.51,0,0,0,2.28,1.92,7.68,7.68,0,0,0,3.54.82,7.11,7.11,0,0,0,3-.59A3.92,3.92,0,0,0,424,29.81a4.62,4.62,0,0,0,.59-2.36,4.13,4.13,0,0,0-.41-1.9,3.08,3.08,0,0,0-1.29-1.26,13.53,13.53,0,0,0-3.1-1c-2.12-.44-3.51-.76-4.18-1A6.13,6.13,0,0,1,413.15,21a5.31,5.31,0,0,1-1.38-2.09,7.29,7.29,0,0,1-.46-2.62,8,8,0,0,1,.82-3.63,6.63,6.63,0,0,1,2.18-2.58,9.33,9.33,0,0,1,3.06-1.31,15.71,15.71,0,0,1,3.5-.39,19.39,19.39,0,0,1,3.61.33,11.94,11.94,0,0,1,3,1l.14.42a18.27,18.27,0,0,0-.36,2.24C427.22,13.09,427.16,14.06,427.13,15.25Z"/><path class="cls-1" d="M431.8,20v-.79l1.59-1c.25-.16.5-.34.74-.53V15.36c0-.85-.05-1.89-.15-3.13,1.14-.38,1.88-.63,2.22-.76l2.23-1,.46.35-.18,1.83-.12,2-.16,3.07H439a27.91,27.91,0,0,0,3.54-.17l-.3,2.37a2.87,2.87,0,0,1-.39,0l-1.72,0h-1.71v5.87c0,1.81,0,2.87.05,3.2a1.91,1.91,0,0,0,.59,1.29,2.2,2.2,0,0,0,1.51.47,6.65,6.65,0,0,0,.95,0c.24,0,.55-.08.93-.16l.28.72-.63.63-1.36,1.39a5.15,5.15,0,0,1-1.22.39,5.7,5.7,0,0,1-1.1.1,4.63,4.63,0,0,1-3.21-1.05,3.34,3.34,0,0,1-1.17-2.61l.08-5.8V20h-.48C433,20,432.39,20,431.8,20Z"/><path class="cls-1" d="M444.5,25.11a10.62,10.62,0,0,1,1-4.94,6.63,6.63,0,0,1,3.05-3,10.78,10.78,0,0,1,4.75-1q4.06,0,6.18,2.13t2.12,6.24A12.34,12.34,0,0,1,461,28.7a7.46,7.46,0,0,1-3.83,4.41,10.23,10.23,0,0,1-4.39.92,8.1,8.1,0,0,1-6.13-2.26C445.21,30.26,444.5,28,444.5,25.11Zm4.87-.84c0,3.12.45,5.34,1.37,6.66a3,3,0,0,0,2.6,1.32,2.81,2.81,0,0,0,2.28-1c.75-.89,1.13-2.62,1.13-5.17a20.49,20.49,0,0,0-.45-4.61A5,5,0,0,0,455,18.79a3.07,3.07,0,0,0-2.1-.76,3.1,3.1,0,0,0-1.84.55,3.6,3.6,0,0,0-1.24,1.87A12.78,12.78,0,0,0,449.37,24.27Z"/><path class="cls-1" d="M474.19,32.06v1.35c-1.33-.06-2.81-.09-4.43-.09-1.82,0-3.71,0-5.66.09V32.06a6.14,6.14,0,0,0,1.89-.2.62.62,0,0,0,.37-.3,3,3,0,0,0,.2-1.26l.07-1.57c0-.32,0-.86,0-1.6v-2.3c0-1,0-2.31-.1-3.79a5,5,0,0,0-.15-1.28.57.57,0,0,0-.31-.22,9.41,9.41,0,0,0-2-.17V18q3.19-.54,4.2-.81a13.14,13.14,0,0,0,2.26-.84l.48.21,0,3.55a24.36,24.36,0,0,0,1.76-1.95,8,8,0,0,1,1.37-1.39,3,3,0,0,1,1.67-.42,3.14,3.14,0,0,1,1.18.21l-.1,2.5c0,1.36-.07,2.14-.09,2.33l-.74.23a3.29,3.29,0,0,0-.84-.81,2.92,2.92,0,0,0-1.43-.36,2.63,2.63,0,0,0-1.78.64,2.39,2.39,0,0,0-.89,1.31c-.05.25-.07,1.24-.07,3v1.75l0,2.4a11.68,11.68,0,0,0,.1,1.66.78.78,0,0,0,.36.48,3.1,3.1,0,0,0,1.21.25Z"/><path class="cls-1" d="M478.16,42.38q.3-1.29.39-1.8l.26-1.77.46-.09a5.36,5.36,0,0,0,1,.81,3.61,3.61,0,0,0,1.47.3,2.61,2.61,0,0,0,1.69-.63,7.63,7.63,0,0,0,1.72-2.73l.71-1.69-5.7-14.61a3.65,3.65,0,0,0-1-1.6,3.21,3.21,0,0,0-1.74-.29V16.89c1.14,0,2.55.07,4.21.07,2,0,3.72,0,5.26-.07v1.39h-.4a3,3,0,0,0-1.52.24.54.54,0,0,0-.26.46,2.16,2.16,0,0,0,.18.77l.86,2.38,2.56,6.69,1.55-3.65q2.27-5.42,2.27-6.26a.41.41,0,0,0-.09-.28.73.73,0,0,0-.44-.21,9.12,9.12,0,0,0-1.69-.14V16.89c.75,0,1.7.07,2.83.07,1.39,0,2.68,0,3.87-.07v1.39h-.28a1.84,1.84,0,0,0-.9.17,1.18,1.18,0,0,0-.46.35,14.92,14.92,0,0,0-1,1.94c-.69,1.47-1.24,2.69-1.67,3.65q-2,4.47-2.49,5.73L487,37a12.71,12.71,0,0,1-2.76,4.48,5,5,0,0,1-3.55,1.36,7,7,0,0,1-1.26-.11A7.78,7.78,0,0,1,478.16,42.38Z"/><path class="cls-1" d="M508.85,33.41v-.83a9.26,9.26,0,0,0,1.55-1.09c.07-.57.11-1.27.14-2.11,0-1.71.07-4.82.07-9.33q0-1.82-.09-5.64a22.75,22.75,0,0,0-.19-3.38.67.67,0,0,0-.27-.37,8.28,8.28,0,0,0-2.63-.38V8.82c.25,0,.52,0,.8,0l2.43.07h3q1.75,0,2.76,0c1.69-.07,2.79-.11,3.31-.11a13.06,13.06,0,0,1,4.47.6,4.54,4.54,0,0,1,2.3,1.73,4.59,4.59,0,0,1,.73,2.54,5.18,5.18,0,0,1-.83,2.82,6,6,0,0,1-2.14,2,18.72,18.72,0,0,1-3.44,1.17,15.1,15.1,0,0,1,4.45,1,4.73,4.73,0,0,1,2,2,6,6,0,0,1,.76,3,6.5,6.5,0,0,1-.77,3.15,8.1,8.1,0,0,1-2,2.42,9.61,9.61,0,0,1-2.8,1.59,11.56,11.56,0,0,1-4,.59l-5.9-.11C511.63,33.3,510.38,33.34,508.85,33.41ZM515.51,19l1,0a12.76,12.76,0,0,0,2.22-.19,3.9,3.9,0,0,0,1.65-.68,3.66,3.66,0,0,0,1.06-1.44,5.31,5.31,0,0,0,.43-2.21,4.35,4.35,0,0,0-.49-2.15A3,3,0,0,0,520.12,11a5.79,5.79,0,0,0-2.38-.38,14.44,14.44,0,0,0-2.07.14c-.07.85-.11,1.82-.12,2.92l0,2.73Zm.07,12.48a12.93,12.93,0,0,0,2.18.12,4.6,4.6,0,0,0,3.53-1.43,5.78,5.78,0,0,0,1.34-4.1,6,6,0,0,0-.7-3.08,3.89,3.89,0,0,0-1.87-1.66,8.56,8.56,0,0,0-3.19-.48,11.54,11.54,0,0,0-1.36.07v8l0,2.09C515.55,31,515.56,31.2,515.58,31.44Z"/><path class="cls-1" d="M546.36,30.7l-.77,1.73a11.78,11.78,0,0,1-3,1.3,10.26,10.26,0,0,1-2.6.3,10.52,10.52,0,0,1-3.07-.41,7.28,7.28,0,0,1-2.27-1.11A7.12,7.12,0,0,1,533,30.79a6.68,6.68,0,0,1-1-2.35,12.74,12.74,0,0,1-.32-2.92,12.79,12.79,0,0,1,.62-4.12,4.69,4.69,0,0,1,1-1.82,14.46,14.46,0,0,1,1.83-1.32A17.65,17.65,0,0,1,537.26,17a7.15,7.15,0,0,1,2.9-.54,7,7,0,0,1,3.86,1A5.46,5.46,0,0,1,546.16,20a9.71,9.71,0,0,1,.62,3.7c0,.33,0,.65,0,1a11.71,11.71,0,0,1-1.34.32c-.79.15-1.33.23-1.61.25-.88.07-2,.11-3.49.12l-2.39,0a4,4,0,0,1-.51,0h-1.16A6.49,6.49,0,0,0,538,29.73a5.25,5.25,0,0,0,3.9,1.61,7.55,7.55,0,0,0,1.84-.22,12,12,0,0,0,2.22-.91Zm-4.18-7.27a6.64,6.64,0,0,0-.76-3.92,2.62,2.62,0,0,0-2.18-1.11A2.77,2.77,0,0,0,537,19.56a6.14,6.14,0,0,0-.84,3.87,27.51,27.51,0,0,0,3.46.15A18.52,18.52,0,0,0,542.18,23.43Z"/><path class="cls-1" d="M569.13,32v1.39c-1.76,0-2.91-.07-3.45-.07-.36,0-1.56,0-3.59.07l-.17-.18.24-3.67c0-.64.06-1.41.06-2.3V23.85a5.2,5.2,0,0,0-.8-3.32,2.9,2.9,0,0,0-2.3-.92,3.29,3.29,0,0,0-1.9.55A3.55,3.55,0,0,0,556,21.63a4.36,4.36,0,0,0-.15,1.44v2.22c0,.91,0,2.08,0,3.49s.08,2.25.12,2.5a.87.87,0,0,0,.14.32.7.7,0,0,0,.25.18,2.48,2.48,0,0,0,.81.17l1.35.07v1.39l-5.34-.12-4.36.12V32a15,15,0,0,0,1.83-.14.87.87,0,0,0,.41-.2.85.85,0,0,0,.2-.38,27.46,27.46,0,0,0,.18-3.34c0-1.86,0-3.52,0-5v-5.7c0-1.89,0-3.6-.14-5.13a5.55,5.55,0,0,0-.16-1.39.5.5,0,0,0-.19-.19,1.72,1.72,0,0,0-.65-.2c-.2,0-.71-.07-1.53-.1V9c1.65-.2,2.85-.38,3.59-.55s1.82-.47,3.21-.91l.39.21-.14,4.18c0,2.12-.07,4.09-.07,5.91v1.69l3.09-2.57a6.94,6.94,0,0,1,2.55-.47,6.4,6.4,0,0,1,2.47.44,4.32,4.32,0,0,1,1.69,1.19,4.44,4.44,0,0,1,.87,1.61,8.28,8.28,0,0,1,.26,2.27c0,.32,0,1.24-.07,2.75,0,1.11-.05,2-.05,2.74a31.05,31.05,0,0,0,.12,3.81.79.79,0,0,0,.39.55A6.89,6.89,0,0,0,569.13,32Z"/><path class="cls-1" d="M571.25,33.41v-1.3a8.67,8.67,0,0,0,2.25-.31.79.79,0,0,0,.35-.62,38.9,38.9,0,0,0,.18-5,58.54,58.54,0,0,0-.16-6.25.68.68,0,0,0-.23-.46,6.66,6.66,0,0,0-2.39-.25V17.91a36,36,0,0,0,4-.6,19.05,19.05,0,0,0,3-1l.42.23c-.14,1.83-.21,3.55-.21,5.15v6a25.09,25.09,0,0,0,.14,3.62.59.59,0,0,0,.29.42,7.63,7.63,0,0,0,2.3.3v1.37c-1.67,0-3.48-.07-5.43-.07C574,33.34,572.54,33.36,571.25,33.41ZM576.07,8a2.68,2.68,0,0,1,2.69,2.69,2.69,2.69,0,0,1-4.59,1.91,2.57,2.57,0,0,1-.79-1.91,2.61,2.61,0,0,1,.78-1.9A2.57,2.57,0,0,1,576.07,8Z"/><path class="cls-1" d="M603.28,32.06v1.35c-1.59-.08-2.9-.12-3.9-.12q-1.74,0-3,.12l-.31-.32c0-.24.1-1.26.23-3l.08-2.88V25.78a22.19,22.19,0,0,0-.23-4,2.82,2.82,0,0,0-1-1.56,3.08,3.08,0,0,0-2-.59,3.4,3.4,0,0,0-2,.59,2.71,2.71,0,0,0-1,1.19,16.2,16.2,0,0,0-.1,2.81v2.95c0,.86,0,1.91.07,3.15a3.23,3.23,0,0,0,.14,1.09.59.59,0,0,0,.23.28,2.54,2.54,0,0,0,.82.27l1.48.14v1.35c-1.28,0-2.84-.07-4.69-.07-2.15,0-3.81,0-5,.07V32.06a6.17,6.17,0,0,0,1.9-.2.62.62,0,0,0,.37-.3,3.23,3.23,0,0,0,.2-1.26l.07-1.57c0-.32,0-.86,0-1.6v-2.3c0-1,0-2.31-.1-3.79a5,5,0,0,0-.15-1.28.61.61,0,0,0-.31-.22,9.46,9.46,0,0,0-2-.17V18c2.14-.36,3.54-.63,4.21-.81a13.45,13.45,0,0,0,2.26-.84l.48.21V19.4l3.2-2.57a5.67,5.67,0,0,1,1-.3,5.37,5.37,0,0,1,1.1-.08,7.2,7.2,0,0,1,2.82.42,4.38,4.38,0,0,1,1.59,1.19,4.58,4.58,0,0,1,.92,1.6,9.6,9.6,0,0,1,.26,2.61c0,1.33,0,2.18,0,2.54a4,4,0,0,0,0,.51l0,1.81c0,2,0,3.21.09,3.68a1.43,1.43,0,0,0,.32.9,2,2,0,0,0,1,.26Z"/><path class="cls-1" d="M625.11,32.14v1.27l-3.69,0-3.16,0-.16-.14.09-1.39,0-1.44c-.81.68-1.69,1.44-2.65,2.28a8.44,8.44,0,0,1-1.11.9,4.89,4.89,0,0,1-1.78.26,6.23,6.23,0,0,1-4.83-2.13,8.42,8.42,0,0,1-1.92-5.85,11,11,0,0,1,.57-3.67,6.09,6.09,0,0,1,1-1.9,15.17,15.17,0,0,1,2.36-1.86,15.81,15.81,0,0,1,2.82-1.7,6.44,6.44,0,0,1,2.2-.32,6.75,6.75,0,0,1,1.4.12,15.24,15.24,0,0,1,1.91.65c0-.68.05-1.4.05-2.16s0-2-.09-3.24a2.56,2.56,0,0,0-.19-1.14.57.57,0,0,0-.35-.23c-.15,0-.87-.07-2.16-.1V9.05a28.85,28.85,0,0,0,6.94-1.53l.46.26c-.14,3.14-.22,5-.23,5.54q-.06,4.59-.05,12.85V27.8c0,.8,0,1.66.08,2.59a4,4,0,0,0,.18,1.2.74.74,0,0,0,.4.33A11.63,11.63,0,0,0,625.11,32.14Zm-6.94-11.23a6.89,6.89,0,0,0-1.58-1.51,5.11,5.11,0,0,0-2.55-.67,3.17,3.17,0,0,0-2,.59,3.53,3.53,0,0,0-1.14,1.91,11.13,11.13,0,0,0-.38,3,7.85,7.85,0,0,0,1.37,4.94,3.33,3.33,0,0,0,2.74,1.28,3.63,3.63,0,0,0,2.28-.74,2.88,2.88,0,0,0,1.16-1.42,25.92,25.92,0,0,0,.18-4.18Z"/><path class="cls-1" d="M638.28,23.5l-.69-.37c.07-.62.12-1.51.14-2.66l.09-2.81v-2.3l-.07-1.94c0-.86,0-1.38,0-1.54,0-.31,0-.61-.06-.9s-.06-.63-.1-1l.23-.18Q642,10,645.1,10L647,10l3.32-.16.16.28c-.14,1.28-.21,2.11-.21,2.48s0,.71,0,1.2l-.17.23c-.46,0-1,0-1.55-.06l-3.64,0c-2.48,0-4.22,0-5.2.12l-.14,5.58a13.25,13.25,0,0,1,2.52-.95,9.31,9.31,0,0,1,2.24-.25,7.1,7.1,0,0,1,5.12,1.79,6.21,6.21,0,0,1,1.86,4.71A8.54,8.54,0,0,1,650,29.42,9.7,9.7,0,0,1,645.87,33a12,12,0,0,1-6.85.88,12.54,12.54,0,0,1-2.06-.65c-.07-.52-.16-1-.28-1.56s-.42-1.68-.9-3.49l1.16-.4A8.77,8.77,0,0,0,638.32,30a5.84,5.84,0,0,0,1.94,1.42,5.74,5.74,0,0,0,2.38.52,4.17,4.17,0,0,0,3.18-1.31,5,5,0,0,0,1.25-3.57,5,5,0,0,0-1.29-3.68,4.61,4.61,0,0,0-3.48-1.32,6.17,6.17,0,0,0-1.56.19,5.67,5.67,0,0,0-1.16.43A13.21,13.21,0,0,0,638.28,23.5Z"/><path class="cls-1" d="M654,33.41V31.6l3.25-3.23q2.53-2.58,3.76-4a17,17,0,0,0,1.92-2.64,10.29,10.29,0,0,0,1-2.19,7.1,7.1,0,0,0,.28-2,4.21,4.21,0,0,0-1-3.07,3.78,3.78,0,0,0-2.81-1.06,4.49,4.49,0,0,0-1.89.41A4,4,0,0,0,656.86,15c-.21.72-.45,1.64-.72,2.78h-1.36l.46-4q.1-.93.21-1.95a7.23,7.23,0,0,1,2.65-1.65,9.85,9.85,0,0,1,3.35-.55,9,9,0,0,1,4.21.86,5.53,5.53,0,0,1,2.39,2.37,6.64,6.64,0,0,1,.8,3.12,7,7,0,0,1-.3,2,9.11,9.11,0,0,1-1,2.18,15.51,15.51,0,0,1-1.57,2.1l-2,2-1.84,1.81q-1.47,1.44-3.15,3l0,.23h3.1l4.65-.09c.85,0,1.88-.07,3.1-.14l.14.23a22.29,22.29,0,0,0-.18,2.43,10.2,10.2,0,0,0,.13,1.46l-.09.19-5.19-.14c-1.17,0-2-.05-2.51-.05Z"/><path class="cls-1" d="M682.31,33.41v-.84c.09-.06.26-.16.49-.28a11.84,11.84,0,0,0,1.23-.78q.19-2.36.2-7.64V21q0-2.31-.09-6.8a18.49,18.49,0,0,0-.23-3.16.55.55,0,0,0-.14-.25,1,1,0,0,0-.44-.21c-.2-.05-.94-.15-2.21-.32V8.82l6.38.1c.75,0,2.16,0,4.23-.08,1.5,0,2.7-.06,3.61-.06a26.36,26.36,0,0,1,5,.38,10.32,10.32,0,0,1,3.26,1.21,9.32,9.32,0,0,1,2.35,2,8.35,8.35,0,0,1,1.45,2.46,13.83,13.83,0,0,1,.82,4.85,14,14,0,0,1-1.23,6,12.45,12.45,0,0,1-3.38,4.41,13.75,13.75,0,0,1-4.67,2.56,20.6,20.6,0,0,1-6.06.78l-5.22-.11Zm7-2.14a21.53,21.53,0,0,0,3.13.24,15.81,15.81,0,0,0,4.15-.49,6.86,6.86,0,0,0,4.26-3.15,10.65,10.65,0,0,0,1.43-3.27,15.69,15.69,0,0,0,.51-4.09,14.7,14.7,0,0,0-.51-3.88,8.57,8.57,0,0,0-1.67-3.28,6.71,6.71,0,0,0-2.93-2,17.15,17.15,0,0,0-5.38-.63,22.18,22.18,0,0,0-3,.23c-.12,1.66-.17,4.8-.17,9.4v4.05C689.17,27.85,689.22,30.15,689.34,31.27Z"/><path class="cls-1" d="M727.17,32.09v1.32c-1.35-.06-2.54-.09-3.59-.09s-1.94,0-2.86.09l-.16-.19.16-2.31c-.42.27-1.67,1.2-3.73,2.78a6.75,6.75,0,0,1-1.51.18,4,4,0,0,1-3-1.13,4.49,4.49,0,0,1-1.08-3.23,4.89,4.89,0,0,1,.49-2.34,4,4,0,0,1,1-1.34,6.09,6.09,0,0,1,1.72-.84,36.71,36.71,0,0,1,6.08-1.55,4.79,4.79,0,0,0-.86-3.18,3.45,3.45,0,0,0-2.78-1.09,5.27,5.27,0,0,0-1.44.2,2.39,2.39,0,0,0-.7.35l-.74,1.77-1.2-.26.11-2.27c.86-.58,1.69-1.09,2.48-1.53a9.8,9.8,0,0,1,1.65-.79,6.68,6.68,0,0,1,1.83-.19,7.74,7.74,0,0,1,3.15.55,4.69,4.69,0,0,1,1.83,1.31,4.41,4.41,0,0,1,.81,1.62,8.82,8.82,0,0,1,.22,2.18c0,.37,0,1.35-.09,2.93,0,1.06,0,1.92,0,2.59a23.48,23.48,0,0,0,.17,3.79.6.6,0,0,0,.28.43A7.49,7.49,0,0,0,727.17,32.09Zm-6.45-7.17a21.35,21.35,0,0,0-2.73.76,3.56,3.56,0,0,0-1.72,1.11,2.83,2.83,0,0,0-.47,1.66,2.47,2.47,0,0,0,.57,1.74,2,2,0,0,0,1.5.62,3.12,3.12,0,0,0,1.59-.46,3.53,3.53,0,0,0,1.26-1.16Z"/><path class="cls-1" d="M729.14,42.38q.3-1.29.39-1.8l.26-1.77.46-.09a5.36,5.36,0,0,0,1,.81,3.65,3.65,0,0,0,1.47.3,2.61,2.61,0,0,0,1.69-.63,7.63,7.63,0,0,0,1.72-2.73l.71-1.69-5.7-14.61a3.65,3.65,0,0,0-1-1.6,3.21,3.21,0,0,0-1.74-.29V16.89c1.14,0,2.55.07,4.21.07,2,0,3.73,0,5.26-.07v1.39h-.4a3,3,0,0,0-1.52.24.54.54,0,0,0-.26.46,2.16,2.16,0,0,0,.18.77l.86,2.38,2.56,6.69,1.55-3.65q2.26-5.42,2.27-6.26a.41.41,0,0,0-.09-.28.73.73,0,0,0-.44-.21,9.12,9.12,0,0,0-1.69-.14V16.89c.75,0,1.7.07,2.83.07,1.39,0,2.68,0,3.87-.07v1.39h-.28a1.84,1.84,0,0,0-.9.17,1.18,1.18,0,0,0-.46.35,14.92,14.92,0,0,0-1,1.94c-.69,1.47-1.24,2.69-1.67,3.65q-2,4.47-2.49,5.73L738,37a12.71,12.71,0,0,1-2.76,4.48,5,5,0,0,1-3.55,1.36,7,7,0,0,1-1.26-.11A7.78,7.78,0,0,1,729.14,42.38Z"/><path class="cls-1" d="M749.9,27.87h1.4c.06,1.32.12,2.14.18,2.48a5.23,5.23,0,0,0,1.74,1.43,4.89,4.89,0,0,0,2.18.47,3.64,3.64,0,0,0,2.53-.79,2.48,2.48,0,0,0,.88-1.92,2.37,2.37,0,0,0-.29-1.22,2.55,2.55,0,0,0-1.17-.89,26.33,26.33,0,0,0-2.63-.66,13.22,13.22,0,0,1-2.94-.94,3.58,3.58,0,0,1-1.56-1.52,4.71,4.71,0,0,1-.57-2.36,5.13,5.13,0,0,1,1.83-4,7.68,7.68,0,0,1,5.26-1.61,13.35,13.35,0,0,1,2.62.24,8.86,8.86,0,0,1,2.16.74l.05.18c-.07.41-.12.82-.16,1.25s-.09,1.41-.16,3H759.9c0-.13,0-.35,0-.65a12.26,12.26,0,0,0-.21-1.53,3.49,3.49,0,0,0-1.35-1.06,4.69,4.69,0,0,0-1.87-.35,3.52,3.52,0,0,0-2.31.67,2,2,0,0,0-.82,1.6,1.87,1.87,0,0,0,1.46,2.09,26.88,26.88,0,0,0,2.66.59,19.67,19.67,0,0,1,2.61.6,4.48,4.48,0,0,1,1.55.94,3.7,3.7,0,0,1,.89,1.39,5.42,5.42,0,0,1,.31,1.84,5.65,5.65,0,0,1-2,4.41A8.34,8.34,0,0,1,755,34a13.36,13.36,0,0,1-2.39-.22,22.18,22.18,0,0,1-2.83-.8l-.19-.27c.09-.9.15-1.54.17-1.91Z"/><path class="cls-1" d="M3.88,91.41V89.22A21.34,21.34,0,0,0,6.43,89a2,2,0,0,0,.7-.37,3,3,0,0,0,.59-.79c.2-.37.8-1.71,1.81-4q.68-1.64,2.63-6.46l6.88-17,2.32-6h3.75L36.89,81.87l1.64,3.61,1,2.42a2.67,2.67,0,0,0,.51.69,1.46,1.46,0,0,0,.54.32,7.85,7.85,0,0,0,1.54.18c.26,0,.65.08,1.16.13v2.19L36,91.25l-9.26.16V89.22a15.59,15.59,0,0,0,3.6-.35.8.8,0,0,0,.41-.76A6.65,6.65,0,0,0,30.14,86l-2.26-5.8H14.32l-1.16,3.17a19.7,19.7,0,0,0-1.31,4.53,1,1,0,0,0,.42.9,11.57,11.57,0,0,0,3.77.47v2.19L10,91.25ZM15.54,77.15c1.65,0,3.52.07,5.61.07s3.84,0,5.44-.07L20.94,63.54Z"/><path class="cls-1" d="M67.3,87.93l-1.16,2.56A20.26,20.26,0,0,1,62.46,92a13.91,13.91,0,0,1-3.39.35,13.06,13.06,0,0,1-7-1.68A10.63,10.63,0,0,1,48,85.82a14.49,14.49,0,0,1-1-5.91,16.3,16.3,0,0,1,.52-4.53A10.34,10.34,0,0,1,49,72.27a7.92,7.92,0,0,1,1.76-1.69L54.82,68a17.12,17.12,0,0,1,2.83-1.58A9.44,9.44,0,0,1,60.94,66a17.28,17.28,0,0,1,3.15.27,12.43,12.43,0,0,1,2.71.83l.26.45-.66,4.3c-.05.39-.14,1.6-.26,3.64H64.08a27.71,27.71,0,0,0-.4-3.48A4,4,0,0,0,62,70.51,6.55,6.55,0,0,0,59.12,70a5.93,5.93,0,0,0-3.19.74,4.29,4.29,0,0,0-1.74,2.47,14,14,0,0,0-.55,4.22,15,15,0,0,0,1.13,6,8.48,8.48,0,0,0,3,3.85,8.13,8.13,0,0,0,4.58,1.22,9.89,9.89,0,0,0,2.35-.27,10,10,0,0,0,2.11-.81Z"/><path class="cls-1" d="M100.18,89.33v2.08c-2.64-.07-4.36-.11-5.17-.11-.55,0-2.34,0-5.38.11l-.26-.26.36-5.51c.06-1,.08-2.12.08-3.46V77.07q0-3.58-1.2-5a4.28,4.28,0,0,0-3.44-1.39,4.89,4.89,0,0,0-2.84.82,5.14,5.14,0,0,0-1.85,2.21,6.14,6.14,0,0,0-.24,2.17v3.32c0,1.37,0,3.11.08,5.23s.12,3.37.19,3.76a1.08,1.08,0,0,0,.21.47.89.89,0,0,0,.37.27,3.87,3.87,0,0,0,1.21.26l2,.11v2.08q-7.2-.18-8-.18l-6.54.18V89.33a22.72,22.72,0,0,0,2.76-.21,1.1,1.1,0,0,0,.91-.87,40.12,40.12,0,0,0,.26-5c.06-2.8.08-5.29.08-7.47V67.23c0-2.83-.07-5.39-.21-7.7a7.59,7.59,0,0,0-.24-2.08.74.74,0,0,0-.29-.29,2.66,2.66,0,0,0-1-.29c-.3,0-1.07-.11-2.3-.16v-2q3.72-.45,5.4-.82c1.11-.24,2.72-.7,4.81-1.37l.58.32-.21,6.27c-.07,3.18-.11,6.14-.11,8.86v2.53l4.64-3.85A10.66,10.66,0,0,1,88.71,66a9.76,9.76,0,0,1,3.7.67A6.62,6.62,0,0,1,95,68.44a6.71,6.71,0,0,1,1.3,2.42,12.68,12.68,0,0,1,.38,3.41c0,.48,0,1.85-.1,4.11-.06,1.67-.08,3.05-.08,4.12a46.81,46.81,0,0,0,.18,5.72,1.16,1.16,0,0,0,.58.82A10.36,10.36,0,0,0,100.18,89.33Z"/><path class="cls-1" d="M103.37,91.41v-2a13.06,13.06,0,0,0,3.37-.46,1.24,1.24,0,0,0,.53-.94,61.16,61.16,0,0,0,.26-7.46q0-8.25-.23-9.39a1.05,1.05,0,0,0-.35-.68,10,10,0,0,0-3.58-.37v-2a54.93,54.93,0,0,0,6-.89,30.66,30.66,0,0,0,4.43-1.45l.63.34q-.31,4.11-.32,7.73v9a34.63,34.63,0,0,0,.22,5.43.85.85,0,0,0,.42.64,11.6,11.6,0,0,0,3.45.44v2.06q-3.73-.1-8.15-.11Q106.27,91.3,103.37,91.41Zm7.22-38.18a3.86,3.86,0,0,1,2.86,1.19,3.91,3.91,0,0,1,1.18,2.84,4,4,0,0,1-1.18,2.88,4,4,0,0,1-5.71,0,4,4,0,0,1,2.85-6.91Z"/><path class="cls-1" d="M144,87.35l-1.16,2.58a17.34,17.34,0,0,1-4.46,1.95,15.37,15.37,0,0,1-3.9.45,16,16,0,0,1-4.6-.6,11.11,11.11,0,0,1-3.4-1.66A11.33,11.33,0,0,1,124,87.48,10.16,10.16,0,0,1,122.46,84a18.84,18.84,0,0,1-.48-4.38,19.28,19.28,0,0,1,.92-6.17,7.19,7.19,0,0,1,1.48-2.74,22.88,22.88,0,0,1,2.74-2,28.47,28.47,0,0,1,3.22-1.9,10.76,10.76,0,0,1,4.35-.81,10.46,10.46,0,0,1,5.8,1.47,8.12,8.12,0,0,1,3.2,3.77,14.65,14.65,0,0,1,.94,5.57c0,.49,0,1,0,1.42a18.31,18.31,0,0,1-2,.47,18.61,18.61,0,0,1-2.42.37c-1.32.11-3.06.17-5.22.19s-3.36,0-3.59,0-.48,0-.76,0h-1.74a9.72,9.72,0,0,0,2.58,6.58,7.91,7.91,0,0,0,5.85,2.41A10.9,10.9,0,0,0,140,88a18.06,18.06,0,0,0,3.33-1.36Zm-6.28-10.92c.07-2.79-.3-4.75-1.13-5.88a4,4,0,0,0-3.27-1.66,4.12,4.12,0,0,0-3.4,1.74q-1.38,1.77-1.27,5.8a38.79,38.79,0,0,0,5.2.24A26.09,26.09,0,0,0,137.72,76.43Z"/><path class="cls-1" d="M158.84,91.62c-.89-2.44-2-5.24-3.21-8.38l-3.48-8.81c-.32-.79-.91-2.15-1.77-4.09a2.81,2.81,0,0,0-.87-1.21,5,5,0,0,0-2.32-.45V66.63c2.49.05,4.94.07,7.33.07s4.46,0,6.64-.07v2.08a15.62,15.62,0,0,0-2.71.21.91.91,0,0,0-.52.28.69.69,0,0,0-.17.46l.11.47,1,3.19L161,78.83l1,2.59c.62,1.58,1,2.59,1.22,3l1.71-4,1.61-3.92A58,58,0,0,0,168.7,71a5.4,5.4,0,0,0,.27-1.34.71.71,0,0,0-.4-.65,11.16,11.16,0,0,0-3-.33V66.63c1.81.05,3.51.07,5.09.07s3.31,0,5.4-.07v2.1a12.56,12.56,0,0,0-2.33.4,1.61,1.61,0,0,0-.65.63,52.11,52.11,0,0,0-2.29,4.75l-2.48,5.59-1.05,2.32c-.46,1-1,2.22-1.51,3.61-1.05,2.69-1.81,4.55-2.26,5.59Z"/><path class="cls-1" d="M201,87.35l-1.16,2.58a17.34,17.34,0,0,1-4.46,1.95,15.37,15.37,0,0,1-3.9.45,16,16,0,0,1-4.6-.6,11.11,11.11,0,0,1-3.4-1.66A11.33,11.33,0,0,1,181,87.48,10.16,10.16,0,0,1,179.49,84a20.63,20.63,0,0,1,.45-10.55,7.06,7.06,0,0,1,1.47-2.74,22.44,22.44,0,0,1,2.75-2,27.71,27.71,0,0,1,3.21-1.9,10.76,10.76,0,0,1,4.35-.81,10.46,10.46,0,0,1,5.8,1.47,8.14,8.14,0,0,1,3.21,3.77,14.85,14.85,0,0,1,.93,5.57c0,.49,0,1,0,1.42a18.59,18.59,0,0,1-2,.47,18.93,18.93,0,0,1-2.43.37c-1.32.11-3.06.17-5.22.19s-3.36,0-3.59,0-.48,0-.76,0h-1.74a9.72,9.72,0,0,0,2.58,6.58,7.94,7.94,0,0,0,5.86,2.41,11,11,0,0,0,2.77-.33,18,18,0,0,0,3.32-1.36Zm-6.27-10.92c.06-2.79-.31-4.75-1.14-5.88a3.94,3.94,0,0,0-3.27-1.66,4.13,4.13,0,0,0-3.4,1.74c-.91,1.18-1.34,3.11-1.27,5.8a38.79,38.79,0,0,0,5.2.24A26.23,26.23,0,0,0,194.76,76.43Z"/><path class="cls-1" d="M218.35,91.41V89.22A21,21,0,0,0,220.9,89a2,2,0,0,0,.7-.37,3,3,0,0,0,.59-.79c.2-.37.8-1.71,1.81-4q.67-1.64,2.63-6.46l6.88-17,2.33-6h3.74l11.79,27.53L253,85.48l1.05,2.42a2.67,2.67,0,0,0,.51.69,1.46,1.46,0,0,0,.54.32,7.85,7.85,0,0,0,1.54.18c.26,0,.65.08,1.16.13v2.19l-7.33-.16-9.26.16V89.22a15.59,15.59,0,0,0,3.6-.35.78.78,0,0,0,.41-.76,6.83,6.83,0,0,0-.6-2.16l-2.27-5.8H228.8l-1.17,3.17a20.28,20.28,0,0,0-1.31,4.53,1,1,0,0,0,.42.9,11.57,11.57,0,0,0,3.77.47v2.19l-6.09-.16ZM230,77.15c1.65,0,3.52.07,5.61.07s3.84,0,5.44-.07l-5.65-13.61Z"/><path class="cls-1" d="M298.8,64.17h-2.21a34.27,34.27,0,0,0-.27-4.32,6.74,6.74,0,0,0-2.83-2.06A11,11,0,0,0,289,56.9a7.93,7.93,0,0,0-5.56,1.8,5.59,5.59,0,0,0-2,4.23,6.51,6.51,0,0,0,.58,2.83,4.27,4.27,0,0,0,1.58,1.71,11.78,11.78,0,0,0,3,1.16c1,.21,2.44.47,4.26.79s3,.54,3.55.66a13.59,13.59,0,0,1,3.45,1.33A7.35,7.35,0,0,1,300,73.2a8.63,8.63,0,0,1,1.28,2.56,11.36,11.36,0,0,1,.5,3.47,12.17,12.17,0,0,1-1.4,5.93,12.63,12.63,0,0,1-2.92,3.52,14,14,0,0,1-3.85,2.39,20.53,20.53,0,0,1-7.6,1.26,25.07,25.07,0,0,1-5.77-.6,27.59,27.59,0,0,1-5.57-2.09,38,38,0,0,0,.85-9.15h2.21a33.27,33.27,0,0,0,.29,4.72,8.34,8.34,0,0,0,3.43,2.88,11.55,11.55,0,0,0,5.3,1.24,10.78,10.78,0,0,0,4.47-.89A5.91,5.91,0,0,0,294.07,86a7,7,0,0,0,.88-3.54,6.15,6.15,0,0,0-.62-2.85,4.49,4.49,0,0,0-1.94-1.89,20.14,20.14,0,0,0-4.64-1.48q-4.77-1-6.27-1.45a9.21,9.21,0,0,1-3.66-2,8,8,0,0,1-2.06-3.12,11.1,11.1,0,0,1-.69-3.94,12,12,0,0,1,1.24-5.45,9.67,9.67,0,0,1,3.27-3.86,13.53,13.53,0,0,1,4.59-2,23.38,23.38,0,0,1,5.24-.59,29.14,29.14,0,0,1,5.42.5,17.76,17.76,0,0,1,4.55,1.45l.21.63a29.81,29.81,0,0,0-.54,3.37C298.94,60.93,298.85,62.38,298.8,64.17Z"/><path class="cls-1" d="M330.36,89.43v2c-2-.09-3.81-.13-5.38-.13s-2.91,0-4.3.13l-.23-.29.23-3.45q-.94.6-5.59,4.16a10.16,10.16,0,0,1-2.26.27,6,6,0,0,1-4.5-1.69,6.73,6.73,0,0,1-1.62-4.85,7.5,7.5,0,0,1,.72-3.51A6.37,6.37,0,0,1,309,80a9.14,9.14,0,0,1,2.57-1.25,55.2,55.2,0,0,1,9.12-2.32,7.11,7.11,0,0,0-1.29-4.77,5.12,5.12,0,0,0-4.16-1.64,8.12,8.12,0,0,0-2.17.29,4.29,4.29,0,0,0-1.05.53l-1.11,2.66-1.79-.39.16-3.4q2-1.32,3.72-2.3a14.94,14.94,0,0,1,2.47-1.18,9.88,9.88,0,0,1,2.75-.29,11.56,11.56,0,0,1,4.73.83,7,7,0,0,1,2.74,2,6.6,6.6,0,0,1,1.21,2.43,13.5,13.5,0,0,1,.33,3.27c0,.56,0,2-.13,4.4,0,1.58-.08,2.87-.08,3.88a32.85,32.85,0,0,0,.27,5.69.84.84,0,0,0,.42.63A10.41,10.41,0,0,0,330.36,89.43Zm-9.68-10.76a31.36,31.36,0,0,0-4.1,1.15A5.33,5.33,0,0,0,314,81.48,4.19,4.19,0,0,0,313.3,84a3.73,3.73,0,0,0,.86,2.62,2.94,2.94,0,0,0,2.25.92,4.77,4.77,0,0,0,2.39-.69,5.18,5.18,0,0,0,1.88-1.74Z"/><path class="cls-1" d="M354.3,87.93l-1.16,2.56A20,20,0,0,1,349.46,92a13.88,13.88,0,0,1-3.38.35,13.1,13.1,0,0,1-7-1.68A10.67,10.67,0,0,1,335,85.82a14.48,14.48,0,0,1-1-5.91,16.26,16.26,0,0,1,.53-4.53,10.1,10.1,0,0,1,1.5-3.11,7.77,7.77,0,0,1,1.77-1.69L341.83,68a17.17,17.17,0,0,1,2.82-1.58A9.5,9.5,0,0,1,348,66a17.44,17.44,0,0,1,3.15.27,12.51,12.51,0,0,1,2.7.83l.27.45-.66,4.3c-.06.39-.15,1.6-.27,3.64h-2.05a27.71,27.71,0,0,0-.4-3.48A4,4,0,0,0,349,70.51a6.61,6.61,0,0,0-2.85-.56,5.91,5.91,0,0,0-3.19.74,4.29,4.29,0,0,0-1.74,2.47,14,14,0,0,0-.56,4.22,14.79,14.79,0,0,0,1.14,6,8.42,8.42,0,0,0,3,3.85,8.13,8.13,0,0,0,4.58,1.22,9.19,9.19,0,0,0,4.45-1.08Z"/><path class="cls-1" d="M372.34,89.38v2c-2-.09-4.2-.13-6.65-.13q-4.08,0-8.49.13v-2a9.58,9.58,0,0,0,2.85-.29,1,1,0,0,0,.55-.45,4.58,4.58,0,0,0,.29-1.9L361,84.4q0-.75,0-2.4V78.54c0-1.56-.06-3.46-.16-5.69a6.39,6.39,0,0,0-.23-1.91.81.81,0,0,0-.46-.33,14.15,14.15,0,0,0-3-.27v-2c3.2-.54,5.3-1,6.31-1.21a21.31,21.31,0,0,0,3.4-1.27l.71.32-.05,5.33c1.14-1.18,2-2.16,2.63-2.93a11.88,11.88,0,0,1,2.06-2.08,4.45,4.45,0,0,1,2.5-.64,4.77,4.77,0,0,1,1.77.32l-.16,3.74c-.05,2-.09,3.21-.13,3.51l-1.11.34a4.51,4.51,0,0,0-1.26-1.21,4.24,4.24,0,0,0-2.14-.55,4,4,0,0,0-2.68,1,3.74,3.74,0,0,0-1.33,2c-.07.39-.1,1.88-.1,4.46V82l.05,3.58a15.12,15.12,0,0,0,.15,2.49,1.16,1.16,0,0,0,.54.73,4.55,4.55,0,0,0,1.82.37Z"/><path class="cls-1" d="M401.05,87.35l-1.16,2.58a17.28,17.28,0,0,1-4.45,1.95,15.5,15.5,0,0,1-3.91.45,16,16,0,0,1-4.6-.6,11.11,11.11,0,0,1-3.4-1.66,11.33,11.33,0,0,1-2.48-2.59A10.35,10.35,0,0,1,379.51,84,20.94,20.94,0,0,1,380,73.4a7.06,7.06,0,0,1,1.47-2.74,23.33,23.33,0,0,1,2.75-2,27.71,27.71,0,0,1,3.21-1.9,10.76,10.76,0,0,1,4.35-.81,10.52,10.52,0,0,1,5.81,1.47,8.18,8.18,0,0,1,3.2,3.77,14.85,14.85,0,0,1,.93,5.57c0,.49,0,1-.05,1.42a18.59,18.59,0,0,1-2,.47,18.93,18.93,0,0,1-2.43.37c-1.32.11-3.06.17-5.22.19s-3.36,0-3.58,0-.49,0-.77,0h-1.74a9.72,9.72,0,0,0,2.58,6.58,7.94,7.94,0,0,0,5.86,2.41A11,11,0,0,0,397.1,88a18,18,0,0,0,3.32-1.36Zm-6.27-10.92q.11-4.19-1.14-5.88a3.94,3.94,0,0,0-3.27-1.66,4.13,4.13,0,0,0-3.4,1.74q-1.37,1.77-1.26,5.8a38.51,38.51,0,0,0,5.19.24A26.14,26.14,0,0,0,394.78,76.43Z"/><path class="cls-1" d="M435.22,89.51v1.9l-5.53-.08-4.75.08-.24-.21.14-2.08.05-2.17c-1.22,1-2.54,2.17-4,3.43a14.5,14.5,0,0,1-1.66,1.35,7.53,7.53,0,0,1-2.67.39,9.34,9.34,0,0,1-7.25-3.2q-2.86-3.21-2.87-8.77a16.78,16.78,0,0,1,.84-5.51,8.77,8.77,0,0,1,1.48-2.85A22.59,22.59,0,0,1,412.32,69a24.39,24.39,0,0,1,4.22-2.55,9.58,9.58,0,0,1,3.31-.48,10.19,10.19,0,0,1,2.1.18,23.13,23.13,0,0,1,2.86,1c.05-1,.08-2.1.08-3.25,0-1.33-.05-3-.13-4.85a4.2,4.2,0,0,0-.29-1.71.89.89,0,0,0-.53-.35q-.35-.07-3.24-.15v-2a42.81,42.81,0,0,0,10.41-2.3l.69.4q-.32,7.06-.35,8.3-.07,6.88-.08,19.28V83c0,1.19.05,2.49.14,3.88a5.66,5.66,0,0,0,.26,1.8,1.09,1.09,0,0,0,.61.49A17.39,17.39,0,0,0,435.22,89.51ZM424.81,72.66a10.28,10.28,0,0,0-2.37-2.26,7.53,7.53,0,0,0-3.83-1,4.7,4.7,0,0,0-3,.89,5.31,5.31,0,0,0-1.72,2.86,16.55,16.55,0,0,0-.56,4.56q0,4.8,2.05,7.41A5,5,0,0,0,419.54,87a5.54,5.54,0,0,0,3.41-1.1,4.38,4.38,0,0,0,1.74-2.14,38.44,38.44,0,0,0,.28-6.28Z"/><path class="cls-1" d="M452,91.41V89.17a19.67,19.67,0,0,0,3.53-.42,1,1,0,0,0,.5-.37,2.3,2.3,0,0,0,.32-1c.12-1,.23-3.19.31-6.57.06-1.63.08-4.45.08-8.44,0-3.57,0-6.72-.08-9.48a25.28,25.28,0,0,0-.34-4.91,1.14,1.14,0,0,0-.33-.57,1.81,1.81,0,0,0-.86-.3,24.72,24.72,0,0,0-3.13-.35V54.52c3.62.11,6.11.16,7.49.16,1.8,0,3.62,0,5.45-.16l2.32,5.22,1.85,4L477.46,81q2.7-5.2,4-8.07L485,65.62q2.89-6.11,3.54-7.52c.44-.94.92-2.14,1.47-3.58,2.3.13,3.78.19,4.43.19l7.86-.19v2.24h-.37c-1.78,0-2.9.19-3.38.62a3.36,3.36,0,0,0-.71,2.5c0,1.45,0,2.56,0,3.32l-.13,7.41v9.25q0,3.38,0,4a41.24,41.24,0,0,0,.37,4.11,1.17,1.17,0,0,0,.29.59,1.35,1.35,0,0,0,.6.35,28.59,28.59,0,0,0,3.33.3v2.24l-8.42-.16-8.22.16V89.17a13.6,13.6,0,0,0,3.73-.38,1.83,1.83,0,0,0,.66-1.26,56,56,0,0,0,.2-6.53V61.8l-6.12,12.37-2.93,6.14c-.77,1.62-1.86,4-3.27,7-.86,1.86-1.54,3.37-2,4.51h-1.79c-.63-1.48-1.55-3.5-2.74-6.07q-3.06-6.58-4.64-9.83L459.77,61.8v13q0,3.24.09,7.71c.06,3,.13,4.67.2,5.06a1.36,1.36,0,0,0,1.12,1.31,20.35,20.35,0,0,0,3.23.34v2.24q-3-.16-6-.16Q454.34,91.25,452,91.41Z"/><path class="cls-1" d="M505.89,91.41v-2a13,13,0,0,0,3.37-.46,1.24,1.24,0,0,0,.53-.94,59,59,0,0,0,.26-7.46q0-8.25-.23-9.39a1,1,0,0,0-.35-.68,10,10,0,0,0-3.58-.37v-2a54.54,54.54,0,0,0,6-.89,30.66,30.66,0,0,0,4.43-1.45l.63.34q-.32,4.11-.31,7.73v9a36.75,36.75,0,0,0,.21,5.43.88.88,0,0,0,.42.64,11.6,11.6,0,0,0,3.45.44v2.06c-2.49-.07-5.21-.11-8.14-.11Q508.78,91.3,505.89,91.41Zm7.22-38.18a4,4,0,0,1,4,4A3.92,3.92,0,0,1,516,60.14a3.86,3.86,0,0,1-2.86,1.19,4.06,4.06,0,0,1-2.86-6.91A3.88,3.88,0,0,1,513.11,53.23Z"/><path class="cls-1" d="M524.87,83.1H527q.13,3,.27,3.72A7.77,7.77,0,0,0,529.86,89a7.22,7.22,0,0,0,3.27.7,5.48,5.48,0,0,0,3.79-1.19,3.72,3.72,0,0,0,1.32-2.87,3.49,3.49,0,0,0-.44-1.83,3.77,3.77,0,0,0-1.75-1.33,37.67,37.67,0,0,0-3.94-1,19.3,19.3,0,0,1-4.42-1.39,5.47,5.47,0,0,1-2.34-2.28,7.12,7.12,0,0,1-.85-3.55,7.72,7.72,0,0,1,2.75-6q2.73-2.42,7.88-2.41a20.06,20.06,0,0,1,3.93.36,13.15,13.15,0,0,1,3.24,1.11l.08.27c-.11.61-.18,1.23-.24,1.87s-.13,2.12-.23,4.48l-2,0c0-.19,0-.52-.08-1a17,17,0,0,0-.32-2.3,5.18,5.18,0,0,0-2-1.58,6.94,6.94,0,0,0-2.81-.53,5.3,5.3,0,0,0-3.46,1,3,3,0,0,0-1.23,2.4,3.39,3.39,0,0,0,.55,2.11,3.33,3.33,0,0,0,1.64,1,38.18,38.18,0,0,0,4,.89,28,28,0,0,1,3.92.91,6.75,6.75,0,0,1,2.32,1.39,5.67,5.67,0,0,1,1.33,2.1,7.87,7.87,0,0,1,.46,2.76,8.48,8.48,0,0,1-3,6.61c-2,1.8-4.88,2.69-8.56,2.69A19.15,19.15,0,0,1,529,92a31,31,0,0,1-4.25-1.2l-.29-.39c.14-1.36.23-2.31.26-2.88Z"/><path class="cls-1" d="M548.84,83.1H551c.09,2,.17,3.21.26,3.72A7.77,7.77,0,0,0,553.82,89a7.28,7.28,0,0,0,3.27.7,5.51,5.51,0,0,0,3.8-1.19,3.72,3.72,0,0,0,1.32-2.87,3.49,3.49,0,0,0-.44-1.83A3.77,3.77,0,0,0,560,82.45a38.39,38.39,0,0,0-3.94-1,19,19,0,0,1-4.42-1.39,5.55,5.55,0,0,1-2.35-2.28,7.22,7.22,0,0,1-.84-3.55,7.71,7.71,0,0,1,2.74-6q2.74-2.42,7.89-2.41a20.06,20.06,0,0,1,3.93.36,13.15,13.15,0,0,1,3.24,1.11l.08.27a18.72,18.72,0,0,0-.24,1.87c-.05.63-.13,2.12-.24,4.48l-2,0c0-.19,0-.52-.08-1a15.54,15.54,0,0,0-.31-2.3,5.18,5.18,0,0,0-2-1.58,7,7,0,0,0-2.81-.53,5.35,5.35,0,0,0-3.47,1,3,3,0,0,0-1.22,2.4A2.77,2.77,0,0,0,556.12,75a38.18,38.18,0,0,0,4,.89,28.36,28.36,0,0,1,3.92.91,6.85,6.85,0,0,1,2.32,1.39,5.67,5.67,0,0,1,1.33,2.1,7.87,7.87,0,0,1,.46,2.76,8.46,8.46,0,0,1-3,6.61c-2,1.8-4.88,2.69-8.55,2.69A19.25,19.25,0,0,1,553,92a30.92,30.92,0,0,1-4.24-1.2l-.29-.39c.14-1.36.23-2.31.26-2.88Z"/><path class="cls-1" d="M571.81,91.41v-2a13.06,13.06,0,0,0,3.37-.46,1.24,1.24,0,0,0,.53-.94A61.16,61.16,0,0,0,576,80.6a89.76,89.76,0,0,0-.24-9.39,1,1,0,0,0-.34-.68,10.07,10.07,0,0,0-3.58-.37v-2a54.93,54.93,0,0,0,6-.89,30.66,30.66,0,0,0,4.43-1.45l.63.34q-.32,4.11-.32,7.73v9a36.75,36.75,0,0,0,.21,5.43.89.89,0,0,0,.43.64,11.6,11.6,0,0,0,3.45.44v2.06c-2.5-.07-5.21-.11-8.15-.11Q574.71,91.3,571.81,91.41ZM579,53.23a4,4,0,0,1,4,4,4,4,0,0,1-1.17,2.88A4,4,0,1,1,579,53.23Z"/><path class="cls-1" d="M590.24,79a16,16,0,0,1,1.53-7.43,9.89,9.89,0,0,1,4.58-4.43,16.15,16.15,0,0,1,7.12-1.49q6.09,0,9.27,3.19t3.18,9.36a18.64,18.64,0,0,1-.92,6.17A11.17,11.17,0,0,1,609.25,91a15.27,15.27,0,0,1-6.59,1.37q-6,0-9.19-3.38T590.24,79Zm7.3-1.27q0,7,2.06,10a4.45,4.45,0,0,0,3.9,2,4.27,4.27,0,0,0,3.43-1.5q1.68-2,1.68-7.75a30.93,30.93,0,0,0-.67-6.93,7.55,7.55,0,0,0-2-4,4.66,4.66,0,0,0-3.15-1.13,4.71,4.71,0,0,0-2.76.83A5.31,5.31,0,0,0,598.2,72,19,19,0,0,0,597.54,77.7Z"/><path class="cls-1" d="M649.88,89.38v2q-3.58-.18-5.85-.18c-1.74,0-3.26.06-4.54.18l-.47-.47c0-.37.14-1.89.34-4.57l.13-4.32V80a31.64,31.64,0,0,0-.36-6.07,4.13,4.13,0,0,0-1.46-2.33,4.59,4.59,0,0,0-2.95-.88,5.06,5.06,0,0,0-3.06.88,4,4,0,0,0-1.53,1.78,23.32,23.32,0,0,0-.16,4.22V82c0,1.28,0,2.85.11,4.72a4.72,4.72,0,0,0,.21,1.63.87.87,0,0,0,.34.42,3.74,3.74,0,0,0,1.24.4q.32,0,2.22.21v2q-2.88-.1-7-.11-4.83,0-7.49.11v-2a9.46,9.46,0,0,0,2.84-.29,1,1,0,0,0,.56-.45,5,5,0,0,0,.29-1.9l.1-2.34q0-.75,0-2.4V78.54c0-1.56,0-3.46-.16-5.69a7,7,0,0,0-.22-1.91.85.85,0,0,0-.46-.33,14.24,14.24,0,0,0-3-.27v-2c3.2-.54,5.3-1,6.3-1.21a21.31,21.31,0,0,0,3.4-1.27l.71.32V70.4l4.8-3.85a9.18,9.18,0,0,1,1.46-.47,10,10,0,0,1,1.65-.11,10.86,10.86,0,0,1,4.23.63,6.61,6.61,0,0,1,2.39,1.78,6.79,6.79,0,0,1,1.37,2.4,14.17,14.17,0,0,1,.4,3.91c0,2,0,3.28-.06,3.83,0,.21,0,.46,0,.76l0,2.72c0,3,.07,4.8.15,5.51a2.24,2.24,0,0,0,.47,1.36,3,3,0,0,0,1.57.38Z"/><path class="cls-1" d="M692.91,54.07h2.43c.65,1.8,1.29,3.49,1.92,5.09q4.11,10.55,5,12.55l3.16,7.81,3.06-11.81c1.18-4.68,1.86-7.54,2-8.6a4.5,4.5,0,0,0,.08-.79,1.35,1.35,0,0,0-.25-.87,1.41,1.41,0,0,0-.75-.45c-.16,0-1.27-.13-3.32-.29V54.52c3.14.13,5,.19,5.72.19l6.22-.19v2.19l-.58,0a6.33,6.33,0,0,0-2,.32,2.19,2.19,0,0,0-.71.76A46.34,46.34,0,0,0,713,63.28q-1.45,4.88-4.3,15.65t-3.12,12.66h-4L698.74,84l-7.2-18.3q-1.14,2.47-8.1,18.93l-2.82,7h-3.85l-6.11-28.05A41,41,0,0,0,669.23,58a1.69,1.69,0,0,0-.79-.9,8,8,0,0,0-2.74-.37V54.52l7.36.16,8.62-.16v2.19c-1.55,0-2.4.09-2.56.11a1.91,1.91,0,0,0-1,.4,1.19,1.19,0,0,0-.32.91,5.83,5.83,0,0,0,0,.68c0,.25.21,1.27.54,3q1,5.25,1.42,7.33l2.35,10.68c.19-.47.93-2.25,2.21-5.32l3.33-7.73,4.19-10.05C692.18,55.92,692.54,55,692.91,54.07Z"/><path class="cls-1" d="M718.33,91.41v-2A13,13,0,0,0,721.7,89a1.24,1.24,0,0,0,.53-.94,59,59,0,0,0,.26-7.46,91.39,91.39,0,0,0-.23-9.39,1,1,0,0,0-.35-.68,10,10,0,0,0-3.58-.37v-2a54.54,54.54,0,0,0,6-.89,30.66,30.66,0,0,0,4.43-1.45l.63.34q-.31,4.11-.31,7.73v9a36.75,36.75,0,0,0,.21,5.43.88.88,0,0,0,.42.64,11.6,11.6,0,0,0,3.45.44v2.06c-2.49-.07-5.21-.11-8.14-.11Q721.22,91.3,718.33,91.41Zm7.22-38.18a4,4,0,0,1,4,4,3.92,3.92,0,0,1-1.18,2.88,4,4,0,0,1-6.89-2.88,4,4,0,0,1,4-4Z"/><path class="cls-1" d="M735.7,71.34V70.16l2.38-1.5a12.34,12.34,0,0,0,1.1-.8V64.33c0-1.26-.07-2.83-.21-4.69q2.56-.84,3.33-1.14L745.64,57l.69.53-.26,2.74-.19,3-.24,4.61h.87a38.76,38.76,0,0,0,5.3-.26l-.44,3.56a3.1,3.1,0,0,1-.58,0l-2.59,0h-2.56V80c0,2.7,0,4.3.08,4.8a2.79,2.79,0,0,0,.89,1.93,3.24,3.24,0,0,0,2.25.7,8.9,8.9,0,0,0,1.44,0,12.24,12.24,0,0,0,1.38-.25l.42,1.08-.94,1c-.78.79-1.45,1.49-2,2.09a9.18,9.18,0,0,1-1.84.59,8.89,8.89,0,0,1-1.65.14,6.93,6.93,0,0,1-4.81-1.57,5,5,0,0,1-1.75-3.91l.1-8.7V71.27h-.71C737.51,71.27,736.58,71.29,735.7,71.34Z"/><path class="cls-1" d="M784.09,89.33v2.08c-2.64-.07-4.36-.11-5.17-.11-.54,0-2.34,0-5.38.11l-.26-.26.37-5.51c.05-1,.08-2.12.08-3.46V77.07q0-3.58-1.2-5a4.29,4.29,0,0,0-3.44-1.39,4.93,4.93,0,0,0-2.85.82,5.14,5.14,0,0,0-1.85,2.21,6.14,6.14,0,0,0-.24,2.17v3.32c0,1.37,0,3.11.08,5.23s.12,3.37.19,3.76a1.08,1.08,0,0,0,.21.47A1,1,0,0,0,765,89a3.94,3.94,0,0,0,1.21.26l2,.11v2.08q-7.2-.18-8-.18l-6.54.18V89.33a22.68,22.68,0,0,0,2.75-.21,1.25,1.25,0,0,0,.61-.31,1.29,1.29,0,0,0,.3-.56,41.36,41.36,0,0,0,.27-5q.07-4.2.07-7.47V67.23c0-2.83-.07-5.39-.21-7.7a8.27,8.27,0,0,0-.23-2.08.81.81,0,0,0-.29-.29,2.8,2.8,0,0,0-1-.29c-.3,0-1.06-.11-2.29-.16v-2c2.48-.3,4.27-.57,5.39-.82s2.72-.7,4.81-1.37l.58.32-.21,6.27c-.07,3.18-.11,6.14-.11,8.86v2.53l4.65-3.85a10.57,10.57,0,0,1,3.82-.71,9.73,9.73,0,0,1,3.7.67,6.62,6.62,0,0,1,2.55,1.78,6.71,6.71,0,0,1,1.3,2.42,12.29,12.29,0,0,1,.38,3.41c0,.48,0,1.85-.1,4.11-.05,1.67-.08,3.05-.08,4.12a46.81,46.81,0,0,0,.18,5.72,1.19,1.19,0,0,0,.58.82A10.36,10.36,0,0,0,784.09,89.33Z"/><path class="cls-1" d="M787.28,91.41v-2a13,13,0,0,0,3.37-.46,1.24,1.24,0,0,0,.53-.94,59,59,0,0,0,.26-7.46,91.39,91.39,0,0,0-.23-9.39,1,1,0,0,0-.35-.68,10,10,0,0,0-3.58-.37v-2a54.54,54.54,0,0,0,6-.89,30.66,30.66,0,0,0,4.43-1.45l.63.34q-.32,4.11-.31,7.73v9a36.75,36.75,0,0,0,.21,5.43.88.88,0,0,0,.42.64,11.6,11.6,0,0,0,3.45.44v2.06c-2.49-.07-5.21-.11-8.14-.11Q790.17,91.3,787.28,91.41Zm7.22-38.18a4,4,0,0,1,4,4,3.92,3.92,0,0,1-1.18,2.88,4,4,0,0,1-6.89-2.88,4,4,0,0,1,4-4Z"/><path class="cls-1" d="M835.32,89.38v2q-3.59-.18-5.85-.18c-1.74,0-3.26.06-4.54.18l-.47-.47c0-.37.14-1.89.34-4.57l.13-4.32V80a31.64,31.64,0,0,0-.36-6.07,4.13,4.13,0,0,0-1.46-2.33,4.59,4.59,0,0,0-3-.88,5.06,5.06,0,0,0-3.06.88,4,4,0,0,0-1.53,1.78,23.32,23.32,0,0,0-.16,4.22V82c0,1.28,0,2.85.11,4.72a4.72,4.72,0,0,0,.21,1.63.87.87,0,0,0,.34.42,3.74,3.74,0,0,0,1.24.4q.32,0,2.22.21v2q-2.88-.1-7-.11-4.83,0-7.49.11v-2a9.46,9.46,0,0,0,2.84-.29,1,1,0,0,0,.56-.45,5,5,0,0,0,.29-1.9l.1-2.34q0-.75,0-2.4V78.54c0-1.56-.05-3.46-.16-5.69a7,7,0,0,0-.22-1.91.85.85,0,0,0-.46-.33,14.24,14.24,0,0,0-3-.27v-2c3.2-.54,5.3-1,6.3-1.21a21.31,21.31,0,0,0,3.4-1.27l.71.32V70.4l4.8-3.85a9.18,9.18,0,0,1,1.46-.47,10,10,0,0,1,1.65-.11,10.86,10.86,0,0,1,4.23.63,6.61,6.61,0,0,1,2.39,1.78,6.79,6.79,0,0,1,1.37,2.4,13.78,13.78,0,0,1,.4,3.91c0,2,0,3.28-.06,3.83,0,.21,0,.46,0,.76l0,2.72c0,3,.07,4.8.15,5.51a2.24,2.24,0,0,0,.47,1.36,3,3,0,0,0,1.57.38Z"/><path class="cls-1" d="M854.83,76.54l-1-.55c.11-.94.18-2.26.21-4l.14-4.21V64.33l-.11-2.9c0-1.3,0-2.07,0-2.32,0-.46,0-.9-.08-1.34s-.09-.94-.16-1.51l.34-.26q6.36.26,11,.26l2.8,0,5-.24.24.42c-.21,1.92-.32,3.16-.32,3.72s0,1,.08,1.79l-.26.34c-.69,0-1.46-.06-2.32-.07-2.84-.06-4.65-.08-5.46-.08q-5.59,0-7.81.18l-.21,8.36a20.33,20.33,0,0,1,3.79-1.42,14.18,14.18,0,0,1,3.36-.37,10.64,10.64,0,0,1,7.67,2.67,9.38,9.38,0,0,1,2.8,7.08,12.87,12.87,0,0,1-2,6.8,14.38,14.38,0,0,1-6.17,5.36,16.31,16.31,0,0,1-7.3,1.55,16.63,16.63,0,0,1-3-.23,19.05,19.05,0,0,1-3.09-1c-.1-.77-.24-1.55-.42-2.33s-.62-2.53-1.34-5.24l1.74-.6a12.79,12.79,0,0,0,2.07,3.33,8.36,8.36,0,0,0,2.91,2.12,8.5,8.5,0,0,0,3.56.8,6.31,6.31,0,0,0,4.77-2A7.45,7.45,0,0,0,868,81.87a7.6,7.6,0,0,0-1.92-5.52,7,7,0,0,0-5.22-2,9.31,9.31,0,0,0-2.35.27,9.1,9.1,0,0,0-1.74.65A22.64,22.64,0,0,0,854.83,76.54Z"/><path class="cls-1" d="M878.35,91.41V88.69l4.88-4.85c2.53-2.56,4.41-4.56,5.64-6a24.67,24.67,0,0,0,2.87-4,14.61,14.61,0,0,0,1.44-3.28,11.18,11.18,0,0,0,.41-3A6.37,6.37,0,0,0,892,63a5.68,5.68,0,0,0-4.22-1.58A6.68,6.68,0,0,0,885,62a6,6,0,0,0-2.28,1.82c-.32,1.07-.68,2.46-1.08,4.16h-2l.69-6c.1-.93.21-1.9.31-2.92a11,11,0,0,1,4-2.48,14.52,14.52,0,0,1,5-.82A13.54,13.54,0,0,1,895.9,57a8.31,8.31,0,0,1,3.6,3.56,10,10,0,0,1,1.18,4.68,10.53,10.53,0,0,1-.45,3,13.65,13.65,0,0,1-1.56,3.27,24.38,24.38,0,0,1-2.36,3.15l-3,3-2.77,2.71c-1.46,1.45-3,2.93-4.72,4.46l.08.34h4.64q1.05,0,7-.13c1.26,0,2.81-.1,4.64-.21l.21.34a33.53,33.53,0,0,0-.27,3.64,17.63,17.63,0,0,0,.19,2.19l-.13.29-7.78-.21c-1.76,0-3-.08-3.77-.08Z"/><path class="cls-1" d="M920.88,91.41V90.14l.74-.42a17.06,17.06,0,0,0,1.84-1.16c.2-2.35.29-6.18.29-11.47V72.77q0-3.48-.13-10.21a27,27,0,0,0-.34-4.74.88.88,0,0,0-.21-.37,1.36,1.36,0,0,0-.66-.32c-.3-.07-1.41-.23-3.32-.47V54.52l9.57.16q1.68,0,6.35-.13c2.25,0,4-.08,5.41-.08a39,39,0,0,1,7.47.57,15.07,15.07,0,0,1,4.89,1.82,13.64,13.64,0,0,1,3.52,3,12.68,12.68,0,0,1,2.18,3.69,20.61,20.61,0,0,1,1.24,7.28,21,21,0,0,1-1.85,9,18.64,18.64,0,0,1-5.07,6.62,20.52,20.52,0,0,1-7,3.84,31,31,0,0,1-9.1,1.17l-7.83-.16Zm10.55-3.22a31,31,0,0,0,4.69.37,23.42,23.42,0,0,0,6.22-.74,11.09,11.09,0,0,0,3.51-1.6,11.92,11.92,0,0,0,2.89-3.12,16.3,16.3,0,0,0,2.15-4.9,23.64,23.64,0,0,0,.76-6.14,22.07,22.07,0,0,0-.76-5.82,12.93,12.93,0,0,0-2.51-4.91,9.87,9.87,0,0,0-4.4-3.06,25.45,25.45,0,0,0-8.07-1,32.29,32.29,0,0,0-4.48.34q-.27,3.75-.27,14.11v6.06Q931.16,85.69,931.43,88.19Z"/><path class="cls-1" d="M988.17,89.43v2c-2-.09-3.82-.13-5.38-.13s-2.91,0-4.3.13l-.23-.29.23-3.45q-.94.6-5.59,4.16a10.17,10.17,0,0,1-2.27.27,6,6,0,0,1-4.49-1.69,6.73,6.73,0,0,1-1.62-4.85,7.5,7.5,0,0,1,.72-3.51,6.23,6.23,0,0,1,1.56-2,9.14,9.14,0,0,1,2.57-1.25,55.2,55.2,0,0,1,9.12-2.32,7.11,7.11,0,0,0-1.29-4.77A5.13,5.13,0,0,0,973,70.05a8.1,8.1,0,0,0-2.16.29,4.29,4.29,0,0,0-1,.53l-1.11,2.66-1.79-.39.16-3.4c1.3-.88,2.54-1.65,3.71-2.3a15.31,15.31,0,0,1,2.48-1.18A9.85,9.85,0,0,1,976,66a11.57,11.57,0,0,1,4.74.83,7,7,0,0,1,2.74,2,6.6,6.6,0,0,1,1.21,2.43,13.5,13.5,0,0,1,.33,3.27c0,.56,0,2-.13,4.4,0,1.58-.08,2.87-.08,3.88a34.5,34.5,0,0,0,.26,5.69.85.85,0,0,0,.43.63A10.32,10.32,0,0,0,988.17,89.43Zm-9.68-10.76a31.36,31.36,0,0,0-4.1,1.15,5.33,5.33,0,0,0-2.57,1.66,4.19,4.19,0,0,0-.71,2.49,3.68,3.68,0,0,0,.86,2.62,2.94,2.94,0,0,0,2.25.92,4.77,4.77,0,0,0,2.39-.69,5.18,5.18,0,0,0,1.88-1.74Z"/><path class="cls-1" d="M991.12,104.86c.3-1.29.49-2.18.58-2.69l.4-2.66.68-.14a7.9,7.9,0,0,0,1.51,1.22,5.59,5.59,0,0,0,2.21.44,3.94,3.94,0,0,0,2.53-.93,11.73,11.73,0,0,0,2.59-4.1l1-2.53-8.54-21.91a5.58,5.58,0,0,0-1.45-2.42,5,5,0,0,0-2.61-.43V66.63q2.58.11,6.33.1,4.43,0,7.88-.1v2.08h-.61a4.33,4.33,0,0,0-2.26.37.77.77,0,0,0-.4.68,3.42,3.42,0,0,0,.26,1.16l1.3,3.56,3.85,10,2.32-5.49q3.39-8.12,3.4-9.38a.66.66,0,0,0-.13-.42,1.2,1.2,0,0,0-.66-.32,15.92,15.92,0,0,0-2.54-.21V66.63c1.13.07,2.54.1,4.25.1,2.07,0,4,0,5.8-.1v2.08h-.42a3,3,0,0,0-1.35.26,1.84,1.84,0,0,0-.7.53,23.92,23.92,0,0,0-1.48,2.9q-1.56,3.31-2.51,5.48-3,6.7-3.74,8.6l-4.25,10.36a19,19,0,0,1-4.14,6.73,7.55,7.55,0,0,1-5.32,2,10.92,10.92,0,0,1-1.89-.16A11.36,11.36,0,0,1,991.12,104.86Z"/><path class="cls-1" d="M1022.26,83.1h2.11q.14,3,.27,3.72a7.77,7.77,0,0,0,2.61,2.15,7.28,7.28,0,0,0,3.27.7,5.48,5.48,0,0,0,3.79-1.19,3.72,3.72,0,0,0,1.32-2.87,3.49,3.49,0,0,0-.43-1.83,3.8,3.8,0,0,0-1.76-1.33,37.67,37.67,0,0,0-3.94-1,19.3,19.3,0,0,1-4.42-1.39,5.47,5.47,0,0,1-2.34-2.28,7.12,7.12,0,0,1-.85-3.55,7.72,7.72,0,0,1,2.75-6q2.73-2.42,7.88-2.41a20.06,20.06,0,0,1,3.93.36,13.15,13.15,0,0,1,3.24,1.11l.08.27c-.1.61-.18,1.23-.24,1.87s-.13,2.12-.23,4.48l-2,0c0-.19,0-.52-.08-1a17,17,0,0,0-.32-2.3,5.11,5.11,0,0,0-2-1.58,6.92,6.92,0,0,0-2.8-.53,5.32,5.32,0,0,0-3.47,1,3,3,0,0,0-1.23,2.4,3.32,3.32,0,0,0,.56,2.11,3.25,3.25,0,0,0,1.63,1,37.92,37.92,0,0,0,4,.89,28.11,28.11,0,0,1,3.91.91,6.75,6.75,0,0,1,2.32,1.39,5.67,5.67,0,0,1,1.33,2.1,7.87,7.87,0,0,1,.46,2.76,8.48,8.48,0,0,1-3,6.61c-2,1.8-4.88,2.69-8.56,2.69a19.15,19.15,0,0,1-3.58-.33,31,31,0,0,1-4.25-1.2l-.29-.39c.14-1.36.23-2.31.26-2.88Z"/><path class="cls-1" d="M1052.8,83.76a4.1,4.1,0,1,1-2.94,1.2A4,4,0,0,1,1052.8,83.76Zm17.61,0a4.08,4.08,0,1,1-2.92,1.2A4,4,0,0,1,1070.41,83.76Zm17.64,0a4.1,4.1,0,1,1-2.94,1.2A4,4,0,0,1,1088.05,83.76Z"/></g></svg>