<svg id="設計" xmlns="http://www.w3.org/2000/svg" viewBox="0 0 320 320"><defs><style>.cls-1{fill:none;stroke:#e9eaea;stroke-miterlimit:10;stroke-width:0.75px;}</style></defs><title>m_frame 320</title><polygon class="cls-1" points="160 20.62 179.81 34.9 203.05 27.44 217.47 47.13 241.89 47.23 249.52 70.42 272.71 78.05 272.8 102.46 292.5 116.89 285.04 140.13 299.31 159.94 285.04 179.74 292.5 202.99 272.8 217.41 272.71 241.82 249.52 249.46 241.89 272.64 217.47 272.74 203.05 292.43 179.81 284.98 160 299.25 140.19 284.98 116.95 292.43 102.53 272.74 78.11 272.64 70.48 249.46 47.29 241.82 47.2 217.41 27.5 202.99 34.96 179.74 20.68 159.94 34.96 140.13 27.5 116.89 47.2 102.46 47.29 78.05 70.48 70.42 78.11 47.23 102.53 47.13 116.95 27.44 140.19 34.9 160 20.62"/></svg>