<svg id="設計" xmlns="http://www.w3.org/2000/svg" viewBox="0 0 190 24"><defs><style>.cls-1{fill:#ffd073;}</style></defs><title>m_plus</title><path class="cls-1" d="M2.4,5.49V4.81c1.44,0,2.58.06,3.41.06l1.79,0,1.68,0H9.8a7.79,7.79,0,0,1,2.69.37A3.09,3.09,0,0,1,14,6.36a3.26,3.26,0,0,1,.55,1.87,4.17,4.17,0,0,1-.46,1.88,4.29,4.29,0,0,1-1.32,1.59,5.93,5.93,0,0,1-1.82.93,5.06,5.06,0,0,1-1.46.19A8,8,0,0,1,8,12.67l-.23-.81a7,7,0,0,0,1.51.22,3.22,3.22,0,0,0,1.53-.39A2.67,2.67,0,0,0,12,10.51a3.78,3.78,0,0,0,.41-1.74A3.41,3.41,0,0,0,12,7.1,2.47,2.47,0,0,0,10.77,6a4.39,4.39,0,0,0-1.94-.39A7.18,7.18,0,0,0,6.64,6c-.06.75-.09,1.94-.09,3.56v5.42c0,1,0,1.92,0,2.84A3.58,3.58,0,0,0,6.73,19a.75.75,0,0,0,.4.28,7.44,7.44,0,0,0,1.55.11v.69C7.36,20,6.38,20,5.76,20c-.24,0-1.36,0-3.36.08v-.69A7.6,7.6,0,0,0,4,19.27.69.69,0,0,0,4.33,19a2.61,2.61,0,0,0,.16-1c0-.15,0-1.17,0-3.05V10c0-1,0-1.92,0-2.86a3.37,3.37,0,0,0-.15-1.2A.71.71,0,0,0,4,5.61,7.91,7.91,0,0,0,2.4,5.49Z"/><path class="cls-1" d="M16.2,20.07v-.62h1a1,1,0,0,0,.36-.08.47.47,0,0,0,.19-.18,1.78,1.78,0,0,0,.14-.76c0-.1,0-1.12.08-3.08V10.88c0-1.19,0-2.43-.07-3.7a7.11,7.11,0,0,0-.12-1.44.28.28,0,0,0-.17-.15,6.75,6.75,0,0,0-1.48-.08V4.88a12.24,12.24,0,0,0,3.37-.75.66.66,0,0,1,.22-.06.16.16,0,0,1,.12,0,.29.29,0,0,1,0,.14s0,.12,0,.21v.36c0,1.28-.06,2.37-.07,3.27l0,1.68v5.57c0,1.86.06,2.86.07,3a2.14,2.14,0,0,0,.12.79.51.51,0,0,0,.13.16.7.7,0,0,0,.26.12l1.19,0v.62C20.57,20,19.71,20,19,20S17.35,20,16.2,20.07Z"/><path class="cls-1" d="M35.32,19.46v.61C34.38,20,33.67,20,33.19,20s-1.07,0-1.61.07c0-.58.07-1.23.1-1.95a18.48,18.48,0,0,0-1.54,1.4,1.44,1.44,0,0,1-.4.3,3.23,3.23,0,0,1-.92.37,4.49,4.49,0,0,1-1.11.12,3.82,3.82,0,0,1-1.45-.24,2.68,2.68,0,0,1-1-.72,2.29,2.29,0,0,1-.48-.92,4.88,4.88,0,0,1-.16-1.36c0-.25,0-.48,0-.7s0-.45,0-.66V13.87c0-.18,0-.65,0-1.4a4.19,4.19,0,0,0-.1-.93.33.33,0,0,0-.14-.17,1.06,1.06,0,0,0-.57-.11h-.93v-.61a9.53,9.53,0,0,0,3.35-.83.6.6,0,0,1,.27-.09.13.13,0,0,1,.12,0,.25.25,0,0,1,.05.16,1.86,1.86,0,0,1,0,.22c0,.22-.05.67-.08,1.32q-.06,1.78-.06,2.4V16a6.45,6.45,0,0,0,.18,1.84,1.55,1.55,0,0,0,.69.85,2.33,2.33,0,0,0,1.26.32,3.16,3.16,0,0,0,1.94-.69,3.69,3.69,0,0,0,.61-.67,2.59,2.59,0,0,0,.32-.48,1.36,1.36,0,0,0,.09-.48c0-.63.06-1.26.06-1.88v-.91c0-.18,0-.65,0-1.4a3.8,3.8,0,0,0-.09-.93.39.39,0,0,0-.14-.17,1.11,1.11,0,0,0-.57-.11H29.9v-.61a9.53,9.53,0,0,0,3.35-.83.69.69,0,0,1,.27-.09.17.17,0,0,1,.13,0,.25.25,0,0,1,.05.16c0,.06,0,.13,0,.22s0,.68-.07,1.36c0,1.17-.07,2-.07,2.36v1.47l0,1.5c0,.86,0,1.37,0,1.52a2.37,2.37,0,0,0,.12.79.43.43,0,0,0,.14.16.57.57,0,0,0,.26.12Z"/><path class="cls-1" d="M37.42,16.83h.65q0,.62.06,1a3.55,3.55,0,0,0,.19.71,1.39,1.39,0,0,0,.39.59,2.2,2.2,0,0,0,.59.38,2.17,2.17,0,0,0,.64.17,7.83,7.83,0,0,0,1,0,2.78,2.78,0,0,0,1.8-.58,2,2,0,0,0,.7-1.59,1.44,1.44,0,0,0-.22-.8,1.52,1.52,0,0,0-.63-.54,12.74,12.74,0,0,0-1.78-.5c-.91-.21-1.5-.36-1.76-.45a2.92,2.92,0,0,1-1-.55,2.21,2.21,0,0,1-.56-.82,2.65,2.65,0,0,1-.21-1.07,2.92,2.92,0,0,1,.44-1.56,3.12,3.12,0,0,1,1.41-1.16,4.8,4.8,0,0,1,2.08-.45,7.48,7.48,0,0,1,1.57.19,5.74,5.74,0,0,1,1.45.47c-.05.79-.09,1.6-.11,2.42h-.61a6.28,6.28,0,0,0-.13-1,1.93,1.93,0,0,0-.18-.44,1.75,1.75,0,0,0-.41-.41,2.76,2.76,0,0,0-.75-.39A3.07,3.07,0,0,0,41,10.29a2.09,2.09,0,0,0-1.52.55,1.8,1.8,0,0,0-.58,1.31,1.47,1.47,0,0,0,.17.72,1.33,1.33,0,0,0,.45.49,2.62,2.62,0,0,0,.78.34l1.78.44a11.69,11.69,0,0,1,1.87.59,2,2,0,0,1,.82.77A2.39,2.39,0,0,1,45,16.75a3.3,3.3,0,0,1-1.2,2.53,4.59,4.59,0,0,1-3.2,1.08,14,14,0,0,1-2.46-.28,4.69,4.69,0,0,1-.92-.22.12.12,0,0,1,0-.11,1.41,1.41,0,0,1,0-.18,5.87,5.87,0,0,0,.13-.91C37.39,18.37,37.41,17.76,37.42,16.83Z"/><path class="cls-1" d="M61.84,18.41l-.35.77a9,9,0,0,1-1.08.61,6.31,6.31,0,0,1-1.16.38,5.88,5.88,0,0,1-3.93-.43A4.19,4.19,0,0,1,53.53,18a5.73,5.73,0,0,1-.63-2.75A6.74,6.74,0,0,1,53.24,13,4.24,4.24,0,0,1,54,11.52a5.65,5.65,0,0,1,1-.79,6.64,6.64,0,0,1,1.3-.7,4.68,4.68,0,0,1,1.84-.36,4.4,4.4,0,0,1,2.17.55,3.37,3.37,0,0,1,1.43,1.49,4.94,4.94,0,0,1,.45,2.14,7.25,7.25,0,0,1,0,.73,11.77,11.77,0,0,1-1.38.2c-.78.05-1.55.08-2.33.08H55a5.38,5.38,0,0,0,.53,2.49,3.23,3.23,0,0,0,1.41,1.4,4.11,4.11,0,0,0,1.86.45A4.27,4.27,0,0,0,60.06,19a8,8,0,0,0,1.6-.77ZM55,14l1.14.07,2.21,0c1,0,1.58,0,1.88,0,0-.17,0-.31,0-.4a3.69,3.69,0,0,0-.69-2.48,2.31,2.31,0,0,0-1.84-.8,2.46,2.46,0,0,0-2,.87A4.25,4.25,0,0,0,55,14Z"/><path class="cls-1" d="M63.74,20.07v-.6h1a.79.79,0,0,0,.35-.08.66.66,0,0,0,.19-.18,1.91,1.91,0,0,0,.15-.76c0-.1,0-1.12.06-3.09V14.07c0-.57,0-1.19,0-1.85a2.64,2.64,0,0,0-.1-.75.45.45,0,0,0-.24-.18,7.53,7.53,0,0,0-1.4,0v-.61a11,11,0,0,0,3.16-.79.8.8,0,0,1,.29-.1.17.17,0,0,1,.12,0,.34.34,0,0,1,0,.16c0,.05,0,.11,0,.17,0,.26,0,.81-.07,1.64l2-1.71a4.78,4.78,0,0,1,1.67-.32,4,4,0,0,1,1.65.35,3.09,3.09,0,0,1,1.18.89,3.15,3.15,0,0,1,.52,1.36c0,.32.07,1.22.07,2.7v1.9a15.47,15.47,0,0,0,.08,1.91.88.88,0,0,0,.16.44.6.6,0,0,0,.35.16l1.15,0v.6C75.4,20,74.82,20,74.35,20s-1.07,0-2,.07c.1-1.77.15-2.88.15-3.35v-1.8a12.61,12.61,0,0,0-.12-2.22,2,2,0,0,0-.83-1.16A2.73,2.73,0,0,0,70,11.1a3,3,0,0,0-1.48.38,2.49,2.49,0,0,0-1,.89,3.58,3.58,0,0,0-.29,1.68v1.3c0,1.86.07,2.87.07,3a2.1,2.1,0,0,0,.13.79.33.33,0,0,0,.13.16.57.57,0,0,0,.26.12l1.19,0v.6C68.17,20,67.38,20,66.68,20S65.1,20,63.74,20.07Z"/><path class="cls-1" d="M84.09,5.48V4.87c.79-.08,1.46-.19,2-.3s1.08-.27,1.61-.44l.14.1c0,.61-.06,1.78-.1,3.52l0,1.72v6.72c0,.73,0,1.37,0,1.9a2.84,2.84,0,0,0,.14,1,.7.7,0,0,0,.32.25,6.62,6.62,0,0,0,1.34.19v.58C88.67,20,88.05,20,87.7,20s-.94,0-1.89.07c0-.49,0-1.16,0-2-.29.21-.67.52-1.16.94s-.86.75-1.13,1a6.47,6.47,0,0,1-1.51.21,4.35,4.35,0,0,1-2.24-.6,4,4,0,0,1-1.57-1.74,5.85,5.85,0,0,1-.55-2.58,6.22,6.22,0,0,1,.33-2,4,4,0,0,1,.86-1.49,6.78,6.78,0,0,1,1.32-.91A14.54,14.54,0,0,1,81.88,10a3.55,3.55,0,0,1,1.39-.27,5.44,5.44,0,0,1,1.33.16,5.21,5.21,0,0,1,1.26.51V7.58a6.9,6.9,0,0,0-.13-1.82.3.3,0,0,0-.16-.17A6.35,6.35,0,0,0,84.09,5.48Zm1.77,6.76a4.93,4.93,0,0,0-1.53-1.18,3.87,3.87,0,0,0-1.58-.37,3.09,3.09,0,0,0-1.62.45A2.92,2.92,0,0,0,80,12.51a5.57,5.57,0,0,0-.39,2.19,4.49,4.49,0,0,0,1,3.07,3.05,3.05,0,0,0,2.36,1.11,2.73,2.73,0,0,0,1.29-.3,3,3,0,0,0,1.54-2.17,17.35,17.35,0,0,0,.09-2.33Z"/><path class="cls-1" d="M91.33,20.07v-.62h1a1,1,0,0,0,.36-.08.66.66,0,0,0,.19-.18,2,2,0,0,0,.14-.76c0-.1,0-1.12.07-3.08V10.88c0-1.19,0-2.43-.06-3.7a7.11,7.11,0,0,0-.12-1.44.31.31,0,0,0-.17-.15,6.88,6.88,0,0,0-1.49-.08V4.88a12.33,12.33,0,0,0,3.38-.75.57.57,0,0,1,.21-.06.16.16,0,0,1,.12,0,.21.21,0,0,1,0,.14.9.9,0,0,1,0,.21v.36c0,1.28-.06,2.37-.06,3.27l0,1.68v5.57c0,1.86,0,2.86.06,3a2.1,2.1,0,0,0,.13.79.4.4,0,0,0,.13.16.57.57,0,0,0,.26.12l1.19,0v.62c-1-.06-1.83-.08-2.57-.08S92.47,20,91.33,20.07Z"/><path class="cls-1" d="M107.22,18.41l-.34.77a9.71,9.71,0,0,1-1.09.61,6.46,6.46,0,0,1-1.15.38,5.91,5.91,0,0,1-3.94-.43A4.16,4.16,0,0,1,98.92,18a5.62,5.62,0,0,1-.64-2.75A6.74,6.74,0,0,1,98.62,13a4.23,4.23,0,0,1,.77-1.47,5.65,5.65,0,0,1,1-.79,6.57,6.57,0,0,1,1.29-.7,4.68,4.68,0,0,1,1.84-.36,4.44,4.44,0,0,1,2.18.55,3.4,3.4,0,0,1,1.42,1.49,4.94,4.94,0,0,1,.45,2.14,6.92,6.92,0,0,1,0,.73,12.22,12.22,0,0,1-1.39.2c-.77.05-1.55.08-2.32.08h-3.46a5.37,5.37,0,0,0,.54,2.49,3.21,3.21,0,0,0,1.4,1.4,4.12,4.12,0,0,0,1.87.45,4.21,4.21,0,0,0,1.3-.21,8.33,8.33,0,0,0,1.61-.77ZM100.33,14l1.14.07,2.21,0c1,0,1.58,0,1.88,0,0-.17,0-.31,0-.4a3.69,3.69,0,0,0-.69-2.48,2.33,2.33,0,0,0-1.84-.8,2.43,2.43,0,0,0-2,.87A4.19,4.19,0,0,0,100.33,14Z"/><path class="cls-1" d="M109.82,16.83h.65a6.53,6.53,0,0,0,.06,1,4.35,4.35,0,0,0,.18.71,1.51,1.51,0,0,0,.4.59,2.05,2.05,0,0,0,.59.38,2.09,2.09,0,0,0,.64.17,7.77,7.77,0,0,0,1,0,2.78,2.78,0,0,0,1.8-.58,2,2,0,0,0,.71-1.59,1.52,1.52,0,0,0-.22-.8,1.49,1.49,0,0,0-.64-.54,12.31,12.31,0,0,0-1.78-.5c-.91-.21-1.49-.36-1.76-.45a2.77,2.77,0,0,1-1-.55,2.23,2.23,0,0,1-.57-.82,2.65,2.65,0,0,1-.21-1.07,2.84,2.84,0,0,1,.45-1.56,3.09,3.09,0,0,1,1.4-1.16,4.84,4.84,0,0,1,2.09-.45,7.32,7.32,0,0,1,1.56.19,5.61,5.61,0,0,1,1.45.47c0,.79-.08,1.6-.1,2.42h-.62a5.58,5.58,0,0,0-.12-1,2,2,0,0,0-.19-.44,1.57,1.57,0,0,0-.41-.41,2.69,2.69,0,0,0-.74-.39,3.11,3.11,0,0,0-1.12-.17,2.11,2.11,0,0,0-1.53.55,1.79,1.79,0,0,0-.57,1.31,1.47,1.47,0,0,0,.17.72,1.39,1.39,0,0,0,.44.49,2.82,2.82,0,0,0,.79.34l1.78.44a11.83,11.83,0,0,1,1.86.59,2,2,0,0,1,.83.77,2.49,2.49,0,0,1,.31,1.25,3.3,3.3,0,0,1-1.2,2.53A4.62,4.62,0,0,1,113,20.36a14.23,14.23,0,0,1-2.46-.28,4.47,4.47,0,0,1-.91-.22.12.12,0,0,1,0-.11.62.62,0,0,1,0-.18,7.38,7.38,0,0,0,.13-.91C109.79,18.37,109.81,17.76,109.82,16.83Z"/><path class="cls-1" d="M119.69,16.83h.65q0,.62.06,1a3.55,3.55,0,0,0,.19.71,1.39,1.39,0,0,0,.39.59,2.2,2.2,0,0,0,.59.38,2.17,2.17,0,0,0,.64.17,7.83,7.83,0,0,0,1,0,2.78,2.78,0,0,0,1.8-.58,2,2,0,0,0,.7-1.59,1.44,1.44,0,0,0-.22-.8,1.52,1.52,0,0,0-.63-.54,12.74,12.74,0,0,0-1.78-.5c-.91-.21-1.5-.36-1.76-.45a2.92,2.92,0,0,1-1-.55,2.21,2.21,0,0,1-.56-.82,2.65,2.65,0,0,1-.21-1.07,2.92,2.92,0,0,1,.44-1.56,3.12,3.12,0,0,1,1.41-1.16,4.8,4.8,0,0,1,2.08-.45,7.48,7.48,0,0,1,1.57.19,5.74,5.74,0,0,1,1.45.47c-.05.79-.09,1.6-.11,2.42h-.61a6.28,6.28,0,0,0-.13-1,1.93,1.93,0,0,0-.18-.44,1.75,1.75,0,0,0-.41-.41,2.76,2.76,0,0,0-.75-.39,3.07,3.07,0,0,0-1.12-.17,2.09,2.09,0,0,0-1.52.55,1.8,1.8,0,0,0-.58,1.31,1.47,1.47,0,0,0,.17.72,1.33,1.33,0,0,0,.45.49,2.62,2.62,0,0,0,.78.34l1.78.44a11.69,11.69,0,0,1,1.87.59,2,2,0,0,1,.82.77,2.39,2.39,0,0,1,.31,1.25,3.3,3.3,0,0,1-1.2,2.53,4.59,4.59,0,0,1-3.2,1.08,14,14,0,0,1-2.46-.28,4.69,4.69,0,0,1-.92-.22.12.12,0,0,1,0-.11,1.41,1.41,0,0,1,0-.18,5.87,5.87,0,0,0,.13-.91C119.66,18.37,119.68,17.76,119.69,16.83Z"/><path class="cls-1" d="M135.09,5.49V4.81c1.09,0,2,.06,2.77.06.54,0,1.5,0,2.89,0s2.33,0,2.82,0H145c.44,0,.83,0,1.18.06a14.79,14.79,0,0,0-.35,3.26h-.67a14.07,14.07,0,0,0-.27-2,6.26,6.26,0,0,0-1.38-.29,17.74,17.74,0,0,0-1.91-.09,19.31,19.31,0,0,0-2.24.13c-.05.39-.07.75-.09,1.09s0,1-.05,2.46V11.8l2.12,0a12.91,12.91,0,0,0,2.19-.14.62.62,0,0,0,.4-.17,3.12,3.12,0,0,0,.2-.91l.08-.67h.68l-.08,2.45.08,2.63h-.68l-.07-.68a9.15,9.15,0,0,0-.17-1.26.63.63,0,0,0-.41-.23,16.72,16.72,0,0,0-2.77-.14c-.51,0-1,0-1.57,0v2.17c0,1,0,1.92,0,2.84a3.1,3.1,0,0,0,.15,1.22.68.68,0,0,0,.4.28,7.44,7.44,0,0,0,1.55.11v.69c-.91-.06-1.82-.08-2.72-.08s-2,0-3.55.08v-.69a7.52,7.52,0,0,0,1.55-.11A.72.72,0,0,0,137,19a2.82,2.82,0,0,0,.16-1c0-.15,0-1.17,0-3.05V10c0-1,0-1.92,0-2.86a3.27,3.27,0,0,0-.16-1.2.69.69,0,0,0-.39-.28A8.15,8.15,0,0,0,135.09,5.49Z"/><path class="cls-1" d="M147.73,5.49V4.81c1.17.05,2.25.08,3.25.08s2,0,3-.08v.68a7.86,7.86,0,0,0-1.54.12.62.62,0,0,0-.38.25,2.55,2.55,0,0,0-.17,1c0,.14,0,1.16,0,3v4a9.71,9.71,0,0,0,.3,3,2.82,2.82,0,0,0,.94,1.22,3.83,3.83,0,0,0,1.33.59,7.68,7.68,0,0,0,1.87.22,7,7,0,0,0,2.14-.3,3.87,3.87,0,0,0,1.4-.72,2.89,2.89,0,0,0,.7-.95,5.3,5.3,0,0,0,.33-1.44,21.46,21.46,0,0,0,.1-2.33V10c0-1,0-1.92,0-2.86a3.23,3.23,0,0,0-.14-1.2.74.74,0,0,0-.41-.28,7.86,7.86,0,0,0-1.54-.12V4.81c1.18.05,2,.08,2.59.08s1.38,0,2.67-.08v.68a7.91,7.91,0,0,0-1.55.12.69.69,0,0,0-.38.25,2.61,2.61,0,0,0-.16,1c0,.14,0,1.16-.05,3v3.6a12.56,12.56,0,0,1-.37,3.71,4.23,4.23,0,0,1-1.36,1.86,5.27,5.27,0,0,1-1.9.93,10.55,10.55,0,0,1-5.46-.06A4.4,4.4,0,0,1,151,19a3.41,3.41,0,0,1-.87-1.31,10.12,10.12,0,0,1-.3-2.95V10c0-1,0-1.92,0-2.86a3.37,3.37,0,0,0-.15-1.2.71.71,0,0,0-.4-.28A7.91,7.91,0,0,0,147.73,5.49Z"/><path class="cls-1" d="M165.68,20.07v-.68a4.14,4.14,0,0,0,1.48-.17.43.43,0,0,0,.22-.2,3.9,3.9,0,0,0,.15-1.13c0-.94.06-1.76.06-2.45V6.69a1.61,1.61,0,0,0,0-.47,1.75,1.75,0,0,0-.39-.46,1,1,0,0,0-.44-.22,9.49,9.49,0,0,0-1.13-.06V4.81l2.26,0c.52,0,1,0,1.56,0,.61.79,1.05,1.38,1.34,1.76L173,9.31l3.25,3.91c1,1.24,1.87,2.23,2.5,2.94.4.47.74.85,1,1.12V9.43c0-.71,0-1.53-.07-2.47a4.36,4.36,0,0,0-.14-1.11.52.52,0,0,0-.23-.21,4.8,4.8,0,0,0-1.47-.16V4.81c.84,0,1.7,0,2.57,0s1.55,0,2.22,0v.67a4.7,4.7,0,0,0-1.47.16.47.47,0,0,0-.22.22A3.83,3.83,0,0,0,180.77,7c0,.94-.06,1.76-.06,2.44v5.16c0,1.05,0,3,0,5.86l-1.1-.32-.26-.06a.34.34,0,0,1-.12-.06,4.76,4.76,0,0,1-.41-.43c-.59-.68-1-1.18-1.31-1.53l-1.38-1.75-7.62-9.1v8.24c0,.7,0,1.53.07,2.48a4.25,4.25,0,0,0,.14,1.1.43.43,0,0,0,.23.21,4.49,4.49,0,0,0,1.47.16v.68c-.63-.05-1.32-.07-2.08-.07S166.65,20,165.68,20.07Z"/><path class="cls-1" d="M186.7,17.61a1.29,1.29,0,0,1,.91,2.19,1.24,1.24,0,0,1-.91.38,1.25,1.25,0,0,1-.91-.38,1.29,1.29,0,0,1,0-1.81A1.25,1.25,0,0,1,186.7,17.61Zm1.27-13V5.78l-.57,6.12-.27,3.38-.59.54-.2-.11q-.09-2.18-.51-6.37c-.11-1.17-.18-2-.22-2.48s0-.93,0-1.36c.61-.28,1.16-.57,1.67-.85Z"/></svg>