<svg id="設計" xmlns="http://www.w3.org/2000/svg" viewBox="0 0 290 80"><defs><style>.cls-1{fill:#231f20;}</style></defs><title>m_the story behind</title><path class="cls-1" d="M52.7,14.37v-.64a4,4,0,0,0,1.12-.12.5.5,0,0,0,.23-.31,12.3,12.3,0,0,0,.09-2V6.59c0-1.27,0-2,0-2.14H53c-.56,0-1.06,0-1.48.06q-.27,0-.3.06a.51.51,0,0,0-.1.27A8.92,8.92,0,0,0,51,6.07h-.65c0-1.07,0-1.67,0-1.8s0-.48-.08-.75l.07-.08q.38,0,.78.06c.45,0,1.31,0,2.59,0h3.16c1.31,0,2.19,0,2.63,0l.73-.06.07.08c0,.32-.07.6-.08.84q0,.06,0,1.71h-.65a10.44,10.44,0,0,0-.1-1.16.71.71,0,0,0-.11-.34s-.11,0-.25-.05a13.47,13.47,0,0,0-1.53-.07H56.4c0,.18,0,.9,0,2.14v4.68a12.78,12.78,0,0,0,.08,2,.46.46,0,0,0,.24.3,3.41,3.41,0,0,0,1.11.13v.64c-1,0-1.86-.07-2.55-.07S53.67,14.33,52.7,14.37Z"/><path class="cls-1" d="M69.93,13.76v.61l-1.53,0-1.6,0-.07-.07.11-1.64c0-.28,0-.62,0-1V10.12a2.29,2.29,0,0,0-.36-1.47,1.27,1.27,0,0,0-1-.41,1.48,1.48,0,0,0-.84.24,1.62,1.62,0,0,0-.55.66,2,2,0,0,0-.07.64v1c0,.4,0,.92,0,1.55s0,1,0,1.11a.64.64,0,0,0,.06.14l.11.08a1.64,1.64,0,0,0,.36.08l.6,0v.61l-2.37,0-1.94,0v-.61a4.59,4.59,0,0,0,.82-.07.38.38,0,0,0,.18-.09.31.31,0,0,0,.09-.16A14.35,14.35,0,0,0,62.09,12c0-.83,0-1.56,0-2.21V7.21q0-1.26-.06-2.28A2.7,2.7,0,0,0,62,4.31a.24.24,0,0,0-.09-.08.7.7,0,0,0-.29-.09c-.09,0-.31,0-.68,0V3.52a15.8,15.8,0,0,0,1.6-.25c.33-.07.81-.21,1.43-.4l.17.09-.07,1.86c0,.94,0,1.82,0,2.62v.75L65.4,7.05a3.1,3.1,0,0,1,1.13-.21,2.92,2.92,0,0,1,1.1.2,2,2,0,0,1,.75.53,2.16,2.16,0,0,1,.39.71,4,4,0,0,1,.11,1c0,.14,0,.54,0,1.22,0,.49,0,.9,0,1.21a15.8,15.8,0,0,0,0,1.7.4.4,0,0,0,.17.24A2.84,2.84,0,0,0,69.93,13.76Z"/><path class="cls-1" d="M77.59,13.17l-.35.77a5.31,5.31,0,0,1-1.32.58,5,5,0,0,1-1.15.13,4.74,4.74,0,0,1-1.37-.18,3.52,3.52,0,0,1-1-.49,3.58,3.58,0,0,1-.73-.77,3.13,3.13,0,0,1-.46-1.05,5.73,5.73,0,0,1-.14-1.29A5.45,5.45,0,0,1,71.34,9a2,2,0,0,1,.43-.81,6.75,6.75,0,0,1,.82-.59,7,7,0,0,1,1-.56,3.16,3.16,0,0,1,1.29-.24,3.11,3.11,0,0,1,1.72.43,2.5,2.5,0,0,1,1,1.12A4.45,4.45,0,0,1,77.77,10c0,.14,0,.29,0,.42a5.57,5.57,0,0,1-.6.14,4.76,4.76,0,0,1-.71.11c-.4,0-.91,0-1.55.06H73.09a2.93,2.93,0,0,0,.77,2,2.36,2.36,0,0,0,1.73.71,3,3,0,0,0,.82-.1,4.72,4.72,0,0,0,1-.4ZM75.73,9.94a2.93,2.93,0,0,0-.34-1.75,1.18,1.18,0,0,0-1-.49,1.23,1.23,0,0,0-1,.52A2.73,2.73,0,0,0,73,9.94a13,13,0,0,0,1.54.07A9,9,0,0,0,75.73,9.94Z"/><path class="cls-1" d="M90.39,6.3h-.66A10.71,10.71,0,0,0,89.66,5a2.12,2.12,0,0,0-.84-.61,3.41,3.41,0,0,0-1.34-.26,2.39,2.39,0,0,0-1.65.53,1.66,1.66,0,0,0-.58,1.26,1.8,1.8,0,0,0,.17.83,1.22,1.22,0,0,0,.47.51,3.08,3.08,0,0,0,.9.34q.45.11,1.26.24l1,.19a4.17,4.17,0,0,1,1,.4,2.09,2.09,0,0,1,.63.53,2.34,2.34,0,0,1,.37.76,3.24,3.24,0,0,1,.15,1,3.54,3.54,0,0,1-.41,1.75A3.86,3.86,0,0,1,90,13.57a4.09,4.09,0,0,1-1.14.7,6,6,0,0,1-2.25.38,7.36,7.36,0,0,1-1.71-.18,8.34,8.34,0,0,1-1.65-.62,11.14,11.14,0,0,0,.25-2.71h.66a10.9,10.9,0,0,0,.08,1.4,2.47,2.47,0,0,0,1,.85,3.46,3.46,0,0,0,1.57.37,3.24,3.24,0,0,0,1.32-.26,1.82,1.82,0,0,0,.85-.73,2.08,2.08,0,0,0,.26-1,1.87,1.87,0,0,0-.18-.85,1.43,1.43,0,0,0-.58-.56,6.07,6.07,0,0,0-1.37-.44c-1-.2-1.57-.34-1.86-.43a2.65,2.65,0,0,1-1.08-.58,2.45,2.45,0,0,1-.62-.93,3.42,3.42,0,0,1-.2-1.17,3.5,3.5,0,0,1,.37-1.61A2.79,2.79,0,0,1,84.7,4a3.91,3.91,0,0,1,1.35-.59,7.38,7.38,0,0,1,1.56-.17,8.35,8.35,0,0,1,1.6.15,4.87,4.87,0,0,1,1.35.43l.06.18c-.07.34-.12.67-.16,1S90.41,5.77,90.39,6.3Z"/><path class="cls-1" d="M92.47,8.43V8.08l.7-.45a2.75,2.75,0,0,0,.33-.23V6.35c0-.37,0-.84-.06-1.39l1-.34,1-.46.21.16-.08.81-.06.9L95.41,7.4h.26a12,12,0,0,0,1.57-.08l-.13,1-.17,0-.77,0h-.76V11c0,.81,0,1.28,0,1.43a.85.85,0,0,0,.26.57,1,1,0,0,0,.67.21h.42l.41-.08.13.32-.28.28-.6.62a2.68,2.68,0,0,1-.55.18,3.89,3.89,0,0,1-.49,0A2,2,0,0,1,94,14.07a1.47,1.47,0,0,1-.52-1.16l0-2.57V8.41h-.21C93,8.41,92.73,8.41,92.47,8.43Z"/><path class="cls-1" d="M98.11,10.69a4.76,4.76,0,0,1,.45-2.2,2.93,2.93,0,0,1,1.36-1.31A4.71,4.71,0,0,1,102,6.73a3.73,3.73,0,0,1,2.75.95,3.79,3.79,0,0,1,.94,2.77,5.52,5.52,0,0,1-.27,1.83,3.46,3.46,0,0,1-.74,1.25,3.49,3.49,0,0,1-1,.71,4.57,4.57,0,0,1-1.95.41,3.56,3.56,0,0,1-2.72-1A4.11,4.11,0,0,1,98.11,10.69Zm2.16-.38a5.45,5.45,0,0,0,.61,3,1.33,1.33,0,0,0,1.16.59,1.24,1.24,0,0,0,1-.45,3.68,3.68,0,0,0,.5-2.29,9.35,9.35,0,0,0-.19-2,2.32,2.32,0,0,0-.59-1.2A1.5,1.5,0,0,0,101,7.78a1.58,1.58,0,0,0-.55.83A5.66,5.66,0,0,0,100.27,10.31Z"/><path class="cls-1" d="M111.3,13.77v.6c-.58,0-1.24,0-2,0l-2.52,0v-.6a3,3,0,0,0,.84-.08.3.3,0,0,0,.17-.14,1.33,1.33,0,0,0,.08-.56l0-.69V10.56c0-.46,0-1,0-1.69a2,2,0,0,0-.07-.56.22.22,0,0,0-.14-.1,4.22,4.22,0,0,0-.88-.08v-.6c1-.16,1.57-.28,1.87-.36a7.17,7.17,0,0,0,1-.37l.21.09,0,1.58a11.48,11.48,0,0,0,.78-.87,3.9,3.9,0,0,1,.61-.62A1.37,1.37,0,0,1,112,6.8a1.47,1.47,0,0,1,.53.09l0,1.11c0,.6,0,.95,0,1l-.33.1a1.37,1.37,0,0,0-.37-.36,1.29,1.29,0,0,0-.64-.16,1.18,1.18,0,0,0-.79.28,1.11,1.11,0,0,0-.39.58q0,.18,0,1.32v1.85a6.19,6.19,0,0,0,0,.74.37.37,0,0,0,.16.21,1.48,1.48,0,0,0,.54.11Z"/><path class="cls-1" d="M113.07,18.36c.09-.38.15-.65.17-.8l.12-.79.2,0a2,2,0,0,0,.45.36,1.58,1.58,0,0,0,.65.14,1.2,1.2,0,0,0,.75-.28,3.49,3.49,0,0,0,.77-1.22l.31-.75L114,8.49a1.57,1.57,0,0,0-.43-.71,1.41,1.41,0,0,0-.77-.13V7c.51,0,1.13,0,1.87,0s1.66,0,2.34,0v.62h-.18a1.24,1.24,0,0,0-.67.11A.23.23,0,0,0,116,8a1,1,0,0,0,.08.34l.38,1.06,1.14,3,.69-1.63a14.83,14.83,0,0,0,1-2.78.28.28,0,0,0,0-.13.37.37,0,0,0-.2-.09,3.71,3.71,0,0,0-.75-.06V7c.34,0,.75,0,1.26,0s1.19,0,1.72,0v.62h-.13a.74.74,0,0,0-.39.08.51.51,0,0,0-.21.15,6.84,6.84,0,0,0-.44.86c-.31.66-.56,1.2-.74,1.63-.59,1.32-1,2.17-1.11,2.54L117,16a5.75,5.75,0,0,1-1.23,2,2.24,2.24,0,0,1-1.58.6,3.24,3.24,0,0,1-.56,0A3.49,3.49,0,0,1,113.07,18.36Z"/><path class="cls-1" d="M126.71,14.37V14a4.11,4.11,0,0,0,.69-.49q0-.37.06-.93c0-.76,0-2.15,0-4.15,0-.54,0-1.38,0-2.51a9.17,9.17,0,0,0-.08-1.5.3.3,0,0,0-.12-.16,3.33,3.33,0,0,0-1.17-.18V3.44h.36l1.08,0h2.54c.75,0,1.24,0,1.47,0a6.06,6.06,0,0,1,2,.26,2,2,0,0,1,1,.77,2,2,0,0,1,.33,1.13,2.31,2.31,0,0,1-.37,1.25,2.63,2.63,0,0,1-.95.9,8.32,8.32,0,0,1-1.53.53,6.58,6.58,0,0,1,2,.45,2.1,2.1,0,0,1,.89.88,2.71,2.71,0,0,1,.34,1.33,2.88,2.88,0,0,1-.35,1.4,3.7,3.7,0,0,1-.88,1.08,4.48,4.48,0,0,1-1.25.7,5,5,0,0,1-1.76.26l-2.62,0C128,14.33,127.39,14.34,126.71,14.37Zm3-6.42h.45a5.06,5.06,0,0,0,1-.09,1.52,1.52,0,0,0,.73-.3,1.56,1.56,0,0,0,.48-.64,2.48,2.48,0,0,0,.19-1,2,2,0,0,0-.22-1,1.36,1.36,0,0,0-.57-.57,2.65,2.65,0,0,0-1.06-.16,6.56,6.56,0,0,0-.92.06c0,.37-.05.8-.05,1.29l0,1.22Zm0,5.55a5.46,5.46,0,0,0,1,.05,2.06,2.06,0,0,0,1.57-.63,2.59,2.59,0,0,0,.6-1.83,2.61,2.61,0,0,0-.32-1.36A1.72,1.72,0,0,0,131.7,9a3.7,3.7,0,0,0-1.43-.22,5.74,5.74,0,0,0-.6,0v3.57l0,.93S129.69,13.39,129.7,13.5Z"/><path class="cls-1" d="M143.38,13.17l-.34.77a5.48,5.48,0,0,1-1.32.58,5.08,5.08,0,0,1-1.16.13,4.67,4.67,0,0,1-1.36-.18,3.52,3.52,0,0,1-1-.49,3.35,3.35,0,0,1-.73-.77,3,3,0,0,1-.46-1.05,5.73,5.73,0,0,1-.14-1.29A5.73,5.73,0,0,1,137.13,9a2,2,0,0,1,.44-.81,6.34,6.34,0,0,1,.81-.59,7.61,7.61,0,0,1,1-.56,3.14,3.14,0,0,1,1.28-.24,3.09,3.09,0,0,1,1.72.43,2.38,2.38,0,0,1,.95,1.12,4.25,4.25,0,0,1,.28,1.65c0,.14,0,.29,0,.42a5.27,5.27,0,0,1-.59.14,4.65,4.65,0,0,1-.72.11c-.39,0-.9,0-1.54.06h-1.81a2.88,2.88,0,0,0,.77,2,2.33,2.33,0,0,0,1.73.71,3,3,0,0,0,.82-.1,4.72,4.72,0,0,0,1-.4Zm-1.86-3.23a3,3,0,0,0-.33-1.75,1.19,1.19,0,0,0-1-.49,1.22,1.22,0,0,0-1,.52,2.67,2.67,0,0,0-.37,1.72,12.88,12.88,0,0,0,1.54.07A8.78,8.78,0,0,0,141.52,9.94Z"/><path class="cls-1" d="M153.5,13.76v.61l-1.53,0-1.59,0-.08-.07.11-1.64c0-.28,0-.62,0-1V10.12a2.29,2.29,0,0,0-.36-1.47,1.27,1.27,0,0,0-1-.41,1.48,1.48,0,0,0-.84.24,1.62,1.62,0,0,0-.55.66,2,2,0,0,0-.07.64v1c0,.4,0,.92,0,1.55s0,1,0,1.11a.64.64,0,0,0,.06.14l.11.08a1.64,1.64,0,0,0,.36.08l.6,0v.61l-2.37,0-1.94,0v-.61a4.59,4.59,0,0,0,.82-.07.38.38,0,0,0,.18-.09.31.31,0,0,0,.09-.16,14.35,14.35,0,0,0,.08-1.49c0-.83,0-1.56,0-2.21V7.21q0-1.26-.06-2.28a2.7,2.7,0,0,0-.07-.62.24.24,0,0,0-.09-.08.7.7,0,0,0-.29-.09c-.09,0-.31,0-.68,0V3.52a15.8,15.8,0,0,0,1.6-.25c.33-.07.81-.21,1.43-.4l.17.09-.07,1.86c0,.94,0,1.82,0,2.62v.75L149,7.05a3.1,3.1,0,0,1,1.13-.21,2.92,2.92,0,0,1,1.1.2,2,2,0,0,1,.75.53,2,2,0,0,1,.39.71,3.6,3.6,0,0,1,.11,1c0,.14,0,.54,0,1.22,0,.49,0,.9,0,1.21a15.8,15.8,0,0,0,0,1.7.4.4,0,0,0,.17.24A2.84,2.84,0,0,0,153.5,13.76Z"/><path class="cls-1" d="M154.45,14.37V13.8a4.37,4.37,0,0,0,1-.14.37.37,0,0,0,.15-.28,17.82,17.82,0,0,0,.08-2.21,25.83,25.83,0,0,0-.07-2.78.34.34,0,0,0-.1-.2,2.82,2.82,0,0,0-1.06-.11v-.6a16.25,16.25,0,0,0,1.78-.26,10.44,10.44,0,0,0,1.31-.43l.19.1c-.07.81-.1,1.58-.1,2.29v2.66a9.17,9.17,0,0,0,.07,1.6.25.25,0,0,0,.12.19,3.47,3.47,0,0,0,1,.14v.6c-.74,0-1.54,0-2.41,0S155,14.35,154.45,14.37Zm2.14-11.31a1.2,1.2,0,0,1,1.19,1.2,1.2,1.2,0,0,1-1.19,1.2,1.2,1.2,0,0,1-.85-2A1.15,1.15,0,0,1,156.59,3.06Z"/><path class="cls-1" d="M168.68,13.77v.6c-.71,0-1.29,0-1.73,0s-1,0-1.35,0l-.14-.14c0-.11,0-.56.1-1.35l0-1.28V11a9.53,9.53,0,0,0-.1-1.79,1.2,1.2,0,0,0-.44-.69,1.33,1.33,0,0,0-.87-.27,1.47,1.47,0,0,0-.91.27,1.17,1.17,0,0,0-.45.52,7,7,0,0,0-.05,1.25v1.32c0,.38,0,.84,0,1.39a1.44,1.44,0,0,0,.07.49.18.18,0,0,0,.1.12,1.21,1.21,0,0,0,.36.12l.66.06v.6c-.57,0-1.26,0-2.09,0s-1.69,0-2.21,0v-.6a3.15,3.15,0,0,0,.84-.08.28.28,0,0,0,.16-.14,1.47,1.47,0,0,0,.09-.56l0-.69c0-.15,0-.39,0-.71v-1c0-.46,0-1-.05-1.69a1.64,1.64,0,0,0-.07-.56.19.19,0,0,0-.13-.1,4.31,4.31,0,0,0-.88-.08v-.6c.94-.16,1.57-.28,1.86-.36a6.36,6.36,0,0,0,1-.37l.21.09V8.15L164.2,7a2.39,2.39,0,0,1,.44-.14,3,3,0,0,1,.48,0,3.36,3.36,0,0,1,1.26.18,2.07,2.07,0,0,1,.71.53,2.11,2.11,0,0,1,.4.71,4.13,4.13,0,0,1,.12,1.16c0,.6,0,1,0,1.13v1c0,.88,0,1.42,0,1.63a.61.61,0,0,0,.14.4.81.81,0,0,0,.46.11Z"/><path class="cls-1" d="M178.38,13.81v.56l-1.64,0-1.4,0-.07-.06,0-.62,0-.64-1.18,1a4.11,4.11,0,0,1-.49.4,2.15,2.15,0,0,1-.79.12,2.77,2.77,0,0,1-2.15-.95,3.75,3.75,0,0,1-.85-2.6,4.81,4.81,0,0,1,.25-1.63,2.49,2.49,0,0,1,.44-.85,7.43,7.43,0,0,1,1-.83A7.3,7.3,0,0,1,172.85,7a3.63,3.63,0,0,1,1.6-.09,7.09,7.09,0,0,1,.85.29c0-.3,0-.62,0-1s0-.88,0-1.44a1.36,1.36,0,0,0-.08-.51.29.29,0,0,0-.16-.1l-1,0V3.55a12.73,12.73,0,0,0,3.08-.68l.21.11c-.07,1.4-.1,2.22-.1,2.46,0,1.36,0,3.27,0,5.72v.72c0,.36,0,.74,0,1.15a1.75,1.75,0,0,0,.08.54.37.37,0,0,0,.18.14A4.43,4.43,0,0,0,178.38,13.81Zm-3.08-5a2.92,2.92,0,0,0-.71-.67,2.2,2.2,0,0,0-1.13-.3,1.44,1.44,0,0,0-.88.26,1.71,1.71,0,0,0-.51.85,5,5,0,0,0-.16,1.35,3.47,3.47,0,0,0,.61,2.2,1.46,1.46,0,0,0,1.21.57,1.64,1.64,0,0,0,1-.33,1.26,1.26,0,0,0,.51-.63,10.85,10.85,0,0,0,.08-1.86Z"/><path class="cls-1" d="M184.23,10l-.3-.17c0-.27,0-.67.06-1.18l0-1.25v-1l0-.86c0-.38,0-.61,0-.69s0-.26,0-.39,0-.28-.05-.45l.11-.08c1.25.05,2.33.08,3.25.08h.82l1.48-.07.07.13c-.06.57-.09.93-.09,1.1s0,.31,0,.53l-.08.1-.69,0-1.61,0q-1.66,0-2.31.06l-.07,2.48a6.67,6.67,0,0,1,1.12-.43,4.51,4.51,0,0,1,1-.11,3.14,3.14,0,0,1,2.27.8,2.79,2.79,0,0,1,.83,2.1,3.86,3.86,0,0,1-.59,2,4.37,4.37,0,0,1-1.83,1.59,4.9,4.9,0,0,1-2.16.46,5.44,5.44,0,0,1-.89-.07,6.49,6.49,0,0,1-.91-.29,5.58,5.58,0,0,0-.13-.69c-.05-.23-.18-.75-.4-1.55l.52-.18a4,4,0,0,0,.61,1,2.41,2.41,0,0,0,.87.63,2.44,2.44,0,0,0,1,.24,1.91,1.91,0,0,0,1.42-.58,2.21,2.21,0,0,0,.55-1.59,2.26,2.26,0,0,0-.57-1.64A2.07,2.07,0,0,0,186,9.33a2.42,2.42,0,0,0-.69.08,2.38,2.38,0,0,0-.52.19C184.73,9.64,184.54,9.76,184.23,10Z"/><path class="cls-1" d="M191.2,14.37v-.8l1.45-1.44c.75-.76,1.31-1.35,1.67-1.77a7.38,7.38,0,0,0,.85-1.17,4.19,4.19,0,0,0,.43-1,3.22,3.22,0,0,0,.12-.88A1.9,1.9,0,0,0,195.26,6,1.7,1.7,0,0,0,194,5.49a2,2,0,0,0-.84.18,1.78,1.78,0,0,0-.68.54c-.09.32-.2.73-.32,1.23h-.6l.2-1.78c0-.28.07-.57.1-.87A3.42,3.42,0,0,1,193,4.05a4.39,4.39,0,0,1,1.49-.24,4,4,0,0,1,1.87.38,2.49,2.49,0,0,1,1.07,1.06,3,3,0,0,1,.22,2.28,4.07,4.07,0,0,1-.47,1,6.38,6.38,0,0,1-.7.94l-.88.9-.82.8c-.43.43-.9.87-1.4,1.32l0,.1h1.37l2.07,0,1.38-.06.06.1c-.05.46-.08.82-.08,1.08a6.29,6.29,0,0,0,.05.65l0,.08L196,14.31l-1.12,0Z"/><path class="cls-1" d="M203.8,14.37V14l.22-.13a4.26,4.26,0,0,0,.55-.34c.06-.7.09-1.83.09-3.4V8.85c0-.69,0-1.69,0-3a9,9,0,0,0-.1-1.41.3.3,0,0,0-.07-.11.37.37,0,0,0-.19-.09c-.09,0-.42-.07-1-.14V3.44l2.84.05c.33,0,1,0,1.88,0l1.6,0a11.83,11.83,0,0,1,2.22.17,4.46,4.46,0,0,1,1.45.54,3.89,3.89,0,0,1,1,.88A3.8,3.8,0,0,1,215,6.11a6.24,6.24,0,0,1,.36,2.16,6.29,6.29,0,0,1-.54,2.66,5.64,5.64,0,0,1-1.51,2A6,6,0,0,1,211.19,14a9.29,9.29,0,0,1-2.7.34l-2.32,0Zm3.13-.95a9.73,9.73,0,0,0,1.39.11,6.83,6.83,0,0,0,1.84-.22,3.43,3.43,0,0,0,1-.47,3.4,3.4,0,0,0,.86-.93,5.09,5.09,0,0,0,.64-1.45,7,7,0,0,0,.22-1.82,6.54,6.54,0,0,0-.22-1.72A3.9,3.9,0,0,0,212,5.46a2.93,2.93,0,0,0-1.3-.91,7.83,7.83,0,0,0-2.39-.28,11,11,0,0,0-1.33.1c-.05.74-.08,2.14-.08,4.18v1.8C206.85,11.9,206.88,12.93,206.93,13.42Z"/><path class="cls-1" d="M223.74,13.79v.58l-1.59,0c-.44,0-.86,0-1.27,0l-.08-.08.08-1c-.19.11-.74.53-1.66,1.23a3.3,3.3,0,0,1-.67.08,1.8,1.8,0,0,1-1.34-.5,2,2,0,0,1-.48-1.44,2.26,2.26,0,0,1,.22-1,1.89,1.89,0,0,1,.46-.6,3,3,0,0,1,.76-.37,16.75,16.75,0,0,1,2.71-.69,2.1,2.1,0,0,0-.39-1.41,1.52,1.52,0,0,0-1.23-.48,2.61,2.61,0,0,0-.64.08,1.35,1.35,0,0,0-.32.16l-.32.79L217.45,9l0-1c.39-.26.75-.48,1.1-.68a4.62,4.62,0,0,1,.74-.35,2.88,2.88,0,0,1,.81-.08,3.49,3.49,0,0,1,1.4.24,2.24,2.24,0,0,1,.82.58,2,2,0,0,1,.35.72,3.8,3.8,0,0,1,.1,1c0,.17,0,.6,0,1.31,0,.46,0,.85,0,1.14a10.14,10.14,0,0,0,.08,1.69.25.25,0,0,0,.12.19A3.27,3.27,0,0,0,223.74,13.79Zm-2.86-3.19a8.91,8.91,0,0,0-1.22.34,1.56,1.56,0,0,0-.76.49,1.24,1.24,0,0,0-.21.74,1.08,1.08,0,0,0,.25.77.85.85,0,0,0,.67.28,1.5,1.5,0,0,0,.71-.2,1.75,1.75,0,0,0,.56-.52Z"/><path class="cls-1" d="M224.62,18.36c.09-.38.14-.65.17-.8l.12-.79.2,0a2.17,2.17,0,0,0,.44.36,1.66,1.66,0,0,0,.66.14A1.2,1.2,0,0,0,227,17a3.49,3.49,0,0,0,.77-1.22L228,15l-2.53-6.49a1.66,1.66,0,0,0-.43-.71,1.47,1.47,0,0,0-.78-.13V7c.51,0,1.14,0,1.88,0s1.65,0,2.34,0v.62h-.18a1.28,1.28,0,0,0-.68.11.24.24,0,0,0-.11.2,1,1,0,0,0,.07.34L228,9.36l1.14,3,.69-1.63a14.39,14.39,0,0,0,1-2.78.2.2,0,0,0,0-.13.34.34,0,0,0-.19-.09,3.77,3.77,0,0,0-.75-.06V7q.49,0,1.26,0c.61,0,1.18,0,1.72,0v.62h-.13a.8.8,0,0,0-.4.08.48.48,0,0,0-.2.15,7.82,7.82,0,0,0-.45.86c-.3.66-.55,1.2-.74,1.63l-1.11,2.54L228.55,16a5.6,5.6,0,0,1-1.22,2,2.24,2.24,0,0,1-1.58.6,2.89,2.89,0,0,1-1.13-.22Z"/><path class="cls-1" d="M233.84,11.91h.63a9.27,9.27,0,0,0,.08,1.11,2.38,2.38,0,0,0,.77.63,2.13,2.13,0,0,0,1,.21,1.63,1.63,0,0,0,1.12-.35,1.12,1.12,0,0,0,.39-.85,1.15,1.15,0,0,0-.12-.55,1.19,1.19,0,0,0-.52-.39q-.32-.11-1.17-.3a5.51,5.51,0,0,1-1.31-.41,1.64,1.64,0,0,1-.7-.68,2.2,2.2,0,0,1-.25-1.05,2.25,2.25,0,0,1,.82-1.79,3.4,3.4,0,0,1,2.33-.72,6.12,6.12,0,0,1,1.17.11,4,4,0,0,1,1,.33l0,.08c0,.18-.05.37-.07.55s0,.63-.07,1.33h-.6c0-.05,0-.15,0-.29a5.06,5.06,0,0,0-.1-.68,1.51,1.51,0,0,0-.6-.46,1.92,1.92,0,0,0-.83-.16,1.6,1.6,0,0,0-1,.3.88.88,0,0,0-.36.71,1,1,0,0,0,.17.62.94.94,0,0,0,.48.31,12,12,0,0,0,1.18.26,9,9,0,0,1,1.16.27,2.07,2.07,0,0,1,.69.41,1.89,1.89,0,0,1,.4.62,2.39,2.39,0,0,1,.13.82,2.51,2.51,0,0,1-.9,2,3.72,3.72,0,0,1-2.54.8,5.36,5.36,0,0,1-1.06-.1,9.17,9.17,0,0,1-1.26-.36l-.08-.11c0-.4.07-.69.08-.85Z"/><path class="cls-1" d="M1.49,41.17v-1a7.93,7.93,0,0,0,1.13-.13.83.83,0,0,0,.31-.16,1.37,1.37,0,0,0,.26-.35c.09-.16.36-.76.8-1.79.21-.48.6-1.44,1.18-2.87l3.05-7.55,1-2.66h1.66l5.24,12.24.72,1.6.47,1.08a1.46,1.46,0,0,0,.23.31.72.72,0,0,0,.24.14,3.34,3.34,0,0,0,.68.08l.52.06v1l-3.26-.07-4.11.07v-1a6.74,6.74,0,0,0,1.6-.16.36.36,0,0,0,.18-.34,3.08,3.08,0,0,0-.27-1l-1-2.57h-6l-.52,1.4a8.79,8.79,0,0,0-.58,2,.44.44,0,0,0,.18.4,5,5,0,0,0,1.68.21v1L4.18,41.1Zm5.18-6.34c.73,0,1.56,0,2.49,0s1.71,0,2.42,0l-2.51-6Z"/><path class="cls-1" d="M29.67,39.62l-.52,1.14a7.89,7.89,0,0,1-1.63.66,6,6,0,0,1-1.51.16,5.75,5.75,0,0,1-3.11-.75,4.68,4.68,0,0,1-1.82-2.14,6.44,6.44,0,0,1-.45-2.63,7.11,7.11,0,0,1,.24-2,4.66,4.66,0,0,1,.67-1.38,3.51,3.51,0,0,1,.78-.75l1.81-1.13a7.13,7.13,0,0,1,1.25-.71,4.28,4.28,0,0,1,1.47-.21,7.77,7.77,0,0,1,1.4.12,6.23,6.23,0,0,1,1.2.37l.11.2-.29,1.91q0,.26-.12,1.62h-.91a12.85,12.85,0,0,0-.18-1.55,1.77,1.77,0,0,0-.76-.65A2.8,2.8,0,0,0,26,31.63a2.64,2.64,0,0,0-1.42.33,1.89,1.89,0,0,0-.77,1.1,6.07,6.07,0,0,0-.25,1.88,6.72,6.72,0,0,0,.5,2.64,3.75,3.75,0,0,0,1.33,1.71,3.65,3.65,0,0,0,2,.54,4.42,4.42,0,0,0,1-.12,4,4,0,0,0,.94-.36Z"/><path class="cls-1" d="M44.28,40.24v.93L42,41.12l-2.39.05-.12-.12.16-2.45c0-.43,0-.94,0-1.53V34.79a3.38,3.38,0,0,0-.54-2.2A1.9,1.9,0,0,0,37.62,32a2.23,2.23,0,0,0-1.27.36,2.35,2.35,0,0,0-.82,1,2.71,2.71,0,0,0-.11,1v1.48c0,.61,0,1.38,0,2.32s0,1.5.08,1.67a.52.52,0,0,0,.09.21.43.43,0,0,0,.17.12,2.2,2.2,0,0,0,.54.12l.9,0v.93l-3.56-.08-2.91.08v-.93A10.51,10.51,0,0,0,32,40.15a.68.68,0,0,0,.27-.13.7.7,0,0,0,.13-.26,17.43,17.43,0,0,0,.12-2.22c0-1.25,0-2.35,0-3.32v-3.8q0-1.87-.09-3.42a3.14,3.14,0,0,0-.11-.92.27.27,0,0,0-.13-.13,1,1,0,0,0-.43-.13,8.16,8.16,0,0,0-1-.07v-.87q1.65-.19,2.4-.36c.49-.11,1.21-.32,2.14-.61l.25.14-.09,2.79c0,1.41,0,2.72,0,3.94V31.9l2.07-1.71a4.67,4.67,0,0,1,1.7-.32,4.24,4.24,0,0,1,1.64.3A2.81,2.81,0,0,1,42.54,32a5.23,5.23,0,0,1,.17,1.51c0,.21,0,.82,0,1.83,0,.74,0,1.35,0,1.83a21.61,21.61,0,0,0,.08,2.54.57.57,0,0,0,.26.37A4.44,4.44,0,0,0,44.28,40.24Z"/><path class="cls-1" d="M45.7,41.17V40.3a6,6,0,0,0,1.5-.2.59.59,0,0,0,.24-.42,28.91,28.91,0,0,0,.11-3.31,41.5,41.5,0,0,0-.1-4.18.43.43,0,0,0-.16-.3,4.43,4.43,0,0,0-1.59-.17v-.89a22.85,22.85,0,0,0,2.67-.39,14.54,14.54,0,0,0,2-.65l.28.15c-.09,1.22-.14,2.37-.14,3.44v4a14.94,14.94,0,0,0,.1,2.42.39.39,0,0,0,.18.28,5.43,5.43,0,0,0,1.54.2v.91c-1.11,0-2.32-.05-3.62-.05C47.55,41.12,46.56,41.14,45.7,41.17Zm3.21-17A1.81,1.81,0,0,1,50.71,26a1.75,1.75,0,0,1-.53,1.28,1.8,1.8,0,1,1-1.27-3.07Z"/><path class="cls-1" d="M63.76,39.37l-.52,1.14a7.86,7.86,0,0,1-2,.87,6.91,6.91,0,0,1-1.73.2,7.07,7.07,0,0,1-2.05-.27A5,5,0,0,1,56,40.57a4.83,4.83,0,0,1-1.1-1.15,4.38,4.38,0,0,1-.68-1.57A7.89,7.89,0,0,1,54,35.91a8.53,8.53,0,0,1,.41-2.74A3.11,3.11,0,0,1,55,32a9.47,9.47,0,0,1,1.22-.88,13.53,13.53,0,0,1,1.43-.85,4.78,4.78,0,0,1,1.93-.36,4.62,4.62,0,0,1,2.58.66,3.52,3.52,0,0,1,1.42,1.67A6.53,6.53,0,0,1,64,34.67c0,.21,0,.43,0,.63-.2.06-.49.13-.89.21a7.63,7.63,0,0,1-1.08.16c-.59,0-1.36.08-2.32.09s-1.49,0-1.6,0H57a4.29,4.29,0,0,0,1.15,2.92,3.49,3.49,0,0,0,2.6,1.08A4.71,4.71,0,0,0,62,39.64a8.45,8.45,0,0,0,1.48-.6ZM61,34.51a4.46,4.46,0,0,0-.5-2.61A1.76,1.76,0,0,0,59,31.16a1.83,1.83,0,0,0-1.51.78,4.1,4.1,0,0,0-.56,2.57,17.24,17.24,0,0,0,2.31.11A11.62,11.62,0,0,0,61,34.51Z"/><path class="cls-1" d="M70.36,41.26c-.4-1.08-.88-2.32-1.43-3.72l-1.55-3.92c-.14-.35-.4-.95-.78-1.81a1.24,1.24,0,0,0-.39-.54,2.17,2.17,0,0,0-1-.2v-.92c1.11,0,2.19,0,3.26,0s2,0,3,0v.93a7.28,7.28,0,0,0-1.21.09.47.47,0,0,0-.23.13.29.29,0,0,0-.07.2l0,.21.46,1.42.94,2.45.46,1.15c.27.7.45,1.15.53,1.35l.77-1.76.71-1.75a24.62,24.62,0,0,0,.95-2.47,2.37,2.37,0,0,0,.12-.6.33.33,0,0,0-.18-.29,5.4,5.4,0,0,0-1.35-.14v-.92c.81,0,1.56,0,2.27,0s1.47,0,2.4,0v.94a5.3,5.3,0,0,0-1,.18.69.69,0,0,0-.29.28,23,23,0,0,0-1,2.11l-1.1,2.48-.47,1c-.2.46-.42,1-.66,1.61-.47,1.19-.81,2-1,2.48Z"/><path class="cls-1" d="M89.11,39.37l-.52,1.14a7.86,7.86,0,0,1-2,.87,7.76,7.76,0,0,1-3.78-.07,5,5,0,0,1-1.51-.74,4.83,4.83,0,0,1-1.1-1.15,4.39,4.39,0,0,1-.69-1.57,8.42,8.42,0,0,1-.21-1.94,8.53,8.53,0,0,1,.41-2.74A3.11,3.11,0,0,1,80.39,32a8.75,8.75,0,0,1,1.22-.88A12.57,12.57,0,0,1,83,30.22,4.75,4.75,0,0,1,85,29.86a4.62,4.62,0,0,1,2.58.66A3.52,3.52,0,0,1,89,32.19a6.53,6.53,0,0,1,.42,2.48c0,.21,0,.43,0,.63q-.3.09-.9.21a7.77,7.77,0,0,1-1.07.16c-.59,0-1.36.08-2.32.09s-1.5,0-1.6,0H82.37a4.24,4.24,0,0,0,1.15,2.92,3.49,3.49,0,0,0,2.6,1.08,4.82,4.82,0,0,0,1.23-.15,8.78,8.78,0,0,0,1.48-.6Zm-2.79-4.86a4.37,4.37,0,0,0-.51-2.61,1.73,1.73,0,0,0-1.45-.74,1.83,1.83,0,0,0-1.51.78,4,4,0,0,0-.56,2.57,17.24,17.24,0,0,0,2.31.11A11.71,11.71,0,0,0,86.32,34.51Z"/><path class="cls-1" d="M96.81,41.17v-1a7.93,7.93,0,0,0,1.13-.13.83.83,0,0,0,.31-.16,1.37,1.37,0,0,0,.26-.35c.09-.16.36-.76.8-1.79.21-.48.6-1.44,1.18-2.87l3.05-7.55,1-2.66h1.66l5.24,12.24.73,1.6.46,1.08a1.46,1.46,0,0,0,.23.31.72.72,0,0,0,.24.14,3.45,3.45,0,0,0,.68.08l.52.06v1l-3.26-.07-4.11.07v-1a6.65,6.65,0,0,0,1.6-.16.36.36,0,0,0,.18-.34,3.08,3.08,0,0,0-.27-1l-1-2.57h-6l-.52,1.4a8.79,8.79,0,0,0-.58,2,.44.44,0,0,0,.18.4,5,5,0,0,0,1.68.21v1L99.5,41.1ZM102,34.83c.73,0,1.56,0,2.49,0s1.71,0,2.42,0l-2.51-6Z"/><path class="cls-1" d="M132.56,29.06h-1a16.37,16.37,0,0,0-.12-1.92,2.93,2.93,0,0,0-1.26-.91,4.84,4.84,0,0,0-2-.4,3.54,3.54,0,0,0-2.47.8,2.49,2.49,0,0,0-.87,1.88,2.81,2.81,0,0,0,.26,1.26,1.9,1.9,0,0,0,.7.76,4.9,4.9,0,0,0,1.35.51q.68.15,1.89.36c.81.14,1.33.23,1.58.29a5.89,5.89,0,0,1,1.53.59,3.21,3.21,0,0,1,.93.8,3.86,3.86,0,0,1,.57,1.13,5,5,0,0,1,.22,1.55,5.33,5.33,0,0,1-.62,2.63A5.58,5.58,0,0,1,132,40,6.26,6.26,0,0,1,130.25,41a9.18,9.18,0,0,1-3.37.56,11.08,11.08,0,0,1-2.57-.27,12.17,12.17,0,0,1-2.47-.93,16.72,16.72,0,0,0,.37-4.06h1a13,13,0,0,0,.13,2.1,3.59,3.59,0,0,0,1.52,1.27,5.06,5.06,0,0,0,2.36.55,4.79,4.79,0,0,0,2-.39,2.64,2.64,0,0,0,1.27-1.08,3.15,3.15,0,0,0,.39-1.57,2.62,2.62,0,0,0-.28-1.27,2,2,0,0,0-.86-.84,9.35,9.35,0,0,0-2.06-.66c-1.41-.3-2.34-.51-2.79-.64a4.18,4.18,0,0,1-1.62-.88,3.57,3.57,0,0,1-.92-1.39,5,5,0,0,1-.31-1.75,5.44,5.44,0,0,1,.55-2.42A4.43,4.43,0,0,1,124,25.63a5.83,5.83,0,0,1,2-.87,10,10,0,0,1,2.33-.27,12.71,12.71,0,0,1,2.41.23,8.13,8.13,0,0,1,2,.64l.09.28a13.72,13.72,0,0,0-.24,1.5C132.62,27.62,132.58,28.27,132.56,29.06Z"/><path class="cls-1" d="M146.59,40.29v.88c-.9,0-1.7-.06-2.39-.06s-1.3,0-1.91.06l-.11-.13.11-1.53c-.28.18-1.11.79-2.49,1.85a4.46,4.46,0,0,1-1,.11,2.62,2.62,0,0,1-2-.75,3,3,0,0,1-.72-2.15A3.28,3.28,0,0,1,136.4,37a2.59,2.59,0,0,1,.69-.9,4.32,4.32,0,0,1,1.14-.55,24.32,24.32,0,0,1,4.06-1,3.24,3.24,0,0,0-.58-2.13,2.28,2.28,0,0,0-1.85-.72,3.42,3.42,0,0,0-1,.13,1.82,1.82,0,0,0-.47.23l-.49,1.18-.8-.17.07-1.51c.58-.39,1.13-.73,1.66-1A6.49,6.49,0,0,1,140,30a4.3,4.3,0,0,1,1.22-.13,5.1,5.1,0,0,1,2.1.37,3.22,3.22,0,0,1,1.22.87,3,3,0,0,1,.54,1.08,6.46,6.46,0,0,1,.14,1.45c0,.25,0,.91-.06,2,0,.7,0,1.28,0,1.72a14.76,14.76,0,0,0,.12,2.54.39.39,0,0,0,.18.28A5.24,5.24,0,0,0,146.59,40.29Zm-4.3-4.78a13.77,13.77,0,0,0-1.83.51,2.3,2.3,0,0,0-1.14.74,1.84,1.84,0,0,0-.31,1.11,1.62,1.62,0,0,0,.38,1.16,1.3,1.3,0,0,0,1,.41,2.18,2.18,0,0,0,1.06-.31,2.5,2.5,0,0,0,.84-.77Z"/><path class="cls-1" d="M157.23,39.62l-.52,1.14a7.89,7.89,0,0,1-1.63.66,6,6,0,0,1-1.51.16,5.75,5.75,0,0,1-3.11-.75,4.68,4.68,0,0,1-1.82-2.14,6.44,6.44,0,0,1-.45-2.63,7.11,7.11,0,0,1,.24-2,4.43,4.43,0,0,1,.67-1.38,3.51,3.51,0,0,1,.78-.75l1.81-1.13a6.78,6.78,0,0,1,1.25-.71,4.22,4.22,0,0,1,1.46-.21,7.69,7.69,0,0,1,1.4.12,6.12,6.12,0,0,1,1.21.37l.11.2-.29,1.91q0,.26-.12,1.62h-.91a12.85,12.85,0,0,0-.18-1.55,1.77,1.77,0,0,0-.76-.65,2.8,2.8,0,0,0-1.26-.25,2.64,2.64,0,0,0-1.42.33,1.94,1.94,0,0,0-.78,1.1,6.41,6.41,0,0,0-.24,1.88,6.72,6.72,0,0,0,.5,2.64A3.75,3.75,0,0,0,153,39.29a3.65,3.65,0,0,0,2,.54,4.42,4.42,0,0,0,1-.12,4,4,0,0,0,.94-.36Z"/><path class="cls-1" d="M165.24,40.27v.9c-.88,0-1.86-.06-3-.06s-2.47,0-3.77.06v-.9a4.32,4.32,0,0,0,1.26-.13.5.5,0,0,0,.25-.2,2.13,2.13,0,0,0,.13-.84l.05-1.05c0-.22,0-.57,0-1.06V35.45c0-.69,0-1.54-.07-2.53a3.51,3.51,0,0,0-.1-.85.37.37,0,0,0-.21-.15,6.71,6.71,0,0,0-1.32-.11V30.9c1.42-.24,2.35-.42,2.8-.53a9.76,9.76,0,0,0,1.51-.57l.32.14,0,2.37a17.32,17.32,0,0,0,1.17-1.3,6.05,6.05,0,0,1,.92-.93,2,2,0,0,1,1.11-.28,2.22,2.22,0,0,1,.79.14L167,31.61q0,1.35-.06,1.56l-.49.15a2,2,0,0,0-.57-.54,1.92,1.92,0,0,0-.95-.25,1.77,1.77,0,0,0-1.18.43,1.7,1.7,0,0,0-.6.87c0,.18,0,.84,0,2V37l0,1.59a8.33,8.33,0,0,0,.06,1.11.58.58,0,0,0,.24.32,2.09,2.09,0,0,0,.81.16Z"/><path class="cls-1" d="M178,39.37l-.52,1.14a7.86,7.86,0,0,1-2,.87,7.76,7.76,0,0,1-3.78-.07,5,5,0,0,1-1.51-.74,4.64,4.64,0,0,1-1.1-1.15,4.39,4.39,0,0,1-.69-1.57,8.42,8.42,0,0,1-.21-1.94,8.53,8.53,0,0,1,.41-2.74,3.11,3.11,0,0,1,.66-1.22,8.75,8.75,0,0,1,1.22-.88,12.57,12.57,0,0,1,1.43-.85,4.75,4.75,0,0,1,1.93-.36,4.62,4.62,0,0,1,2.58.66,3.57,3.57,0,0,1,1.42,1.67,6.53,6.53,0,0,1,.42,2.48c0,.21,0,.43,0,.63-.19.06-.49.13-.89.21a7.63,7.63,0,0,1-1.08.16c-.58,0-1.35.08-2.32.09s-1.49,0-1.59,0h-1.11a4.24,4.24,0,0,0,1.15,2.92,3.49,3.49,0,0,0,2.6,1.08,4.82,4.82,0,0,0,1.23-.15,8.41,8.41,0,0,0,1.47-.6Zm-2.79-4.86a4.37,4.37,0,0,0-.51-2.61,1.75,1.75,0,0,0-1.45-.74,1.83,1.83,0,0,0-1.51.78,4,4,0,0,0-.56,2.57,17.17,17.17,0,0,0,2.3.11A11.76,11.76,0,0,0,175.22,34.51Z"/><path class="cls-1" d="M193.19,40.33v.84l-2.46,0-2.11,0-.1-.09.06-.93,0-1c-.54.45-1.13,1-1.77,1.52a5.42,5.42,0,0,1-.74.6,3.22,3.22,0,0,1-1.18.18,4.13,4.13,0,0,1-3.22-1.43,5.58,5.58,0,0,1-1.28-3.89,7.42,7.42,0,0,1,.37-2.45,4,4,0,0,1,.66-1.27A9.82,9.82,0,0,1,183,31.21a10.17,10.17,0,0,1,1.87-1.13,4.07,4.07,0,0,1,1.47-.22,4.65,4.65,0,0,1,.93.08,10.35,10.35,0,0,1,1.27.44c0-.46,0-.94,0-1.44s0-1.32-.06-2.16a1.66,1.66,0,0,0-.13-.76.34.34,0,0,0-.23-.15,13.9,13.9,0,0,0-1.44-.08v-.86a19.7,19.7,0,0,0,4.63-1l.3.17c-.09,2.1-.14,3.33-.15,3.7,0,2,0,4.89,0,8.56v1.09c0,.53,0,1.11.06,1.72a2.29,2.29,0,0,0,.12.81.45.45,0,0,0,.27.21A7.19,7.19,0,0,0,193.19,40.33Zm-4.63-7.49a4.63,4.63,0,0,0-1.05-1,3.33,3.33,0,0,0-1.7-.45,2.12,2.12,0,0,0-1.32.4,2.35,2.35,0,0,0-.76,1.27,7.27,7.27,0,0,0-.25,2,5.2,5.2,0,0,0,.91,3.29,2.23,2.23,0,0,0,1.83.85,2.45,2.45,0,0,0,1.52-.49,1.93,1.93,0,0,0,.77-.95,17.22,17.22,0,0,0,.12-2.79Z"/><path class="cls-1" d="M200.63,41.17v-1a9.18,9.18,0,0,0,1.58-.18.52.52,0,0,0,.22-.17,1.08,1.08,0,0,0,.14-.44c.05-.45.1-1.42.14-2.92q0-1.1,0-3.75c0-1.59,0-3,0-4.21a12,12,0,0,0-.15-2.19.48.48,0,0,0-.15-.25.77.77,0,0,0-.38-.14,13.45,13.45,0,0,0-1.4-.15v-1c1.61,0,2.72.07,3.33.07.81,0,1.62,0,2.43-.07l1,2.32.82,1.75L212,36.54c.79-1.54,1.39-2.73,1.79-3.59l1.55-3.24c.86-1.81,1.38-2.93,1.57-3.35s.41-.94.65-1.58c1,0,1.68.08,2,.08l3.49-.08v1h-.16a2.45,2.45,0,0,0-1.5.28,1.47,1.47,0,0,0-.32,1.1c0,.65,0,1.14,0,1.48l-.06,3.29V36c0,1,0,1.58,0,1.75a17.46,17.46,0,0,0,.16,1.83.57.57,0,0,0,.13.27.68.68,0,0,0,.27.15,13.46,13.46,0,0,0,1.47.13v1l-3.73-.07-3.66.07v-1a5.6,5.6,0,0,0,1.66-.17.81.81,0,0,0,.29-.55,24.33,24.33,0,0,0,.09-2.91V28l-2.72,5.5-1.3,2.73c-.34.71-.83,1.76-1.45,3.13-.39.82-.69,1.49-.91,2h-.79c-.28-.66-.69-1.56-1.22-2.7q-1.37-2.93-2.06-4.37L204.1,28v5.75c0,1,0,2.11,0,3.43s.06,2.08.09,2.25a.75.75,0,0,0,.15.38.72.72,0,0,0,.35.2,7.48,7.48,0,0,0,1.44.15v1c-.88-.05-1.77-.07-2.69-.07C202.29,41.1,201.34,41.12,200.63,41.17Z"/><path class="cls-1" d="M224.6,41.17V40.3a6.18,6.18,0,0,0,1.5-.2.58.58,0,0,0,.23-.42,25.77,25.77,0,0,0,.12-3.31,41.5,41.5,0,0,0-.1-4.18.52.52,0,0,0-.16-.3,4.43,4.43,0,0,0-1.59-.17v-.89a22.85,22.85,0,0,0,2.67-.39,14.54,14.54,0,0,0,2-.65l.28.15c-.09,1.22-.14,2.37-.14,3.44v4a17.07,17.07,0,0,0,.09,2.42.43.43,0,0,0,.19.28,5.37,5.37,0,0,0,1.54.2v.91c-1.11,0-2.32-.05-3.62-.05C226.45,41.12,225.46,41.14,224.6,41.17Zm3.21-17a1.8,1.8,0,0,1,0,3.6,1.76,1.76,0,0,1-1.27-.53A1.74,1.74,0,0,1,226,26a1.79,1.79,0,0,1,1.79-1.79Z"/><path class="cls-1" d="M233,37.48H234q.06,1.31.12,1.65a3.56,3.56,0,0,0,1.16,1,3.37,3.37,0,0,0,1.46.31,2.43,2.43,0,0,0,1.68-.53,1.67,1.67,0,0,0,.59-1.28,1.62,1.62,0,0,0-.19-.81,1.69,1.69,0,0,0-.78-.59,17,17,0,0,0-1.76-.45,8.57,8.57,0,0,1-2-.62,2.53,2.53,0,0,1-1-1,3.21,3.21,0,0,1-.38-1.58,3.43,3.43,0,0,1,1.22-2.69,5.12,5.12,0,0,1,3.51-1.07,8.58,8.58,0,0,1,1.74.16,5.68,5.68,0,0,1,1.44.49l0,.12c0,.27-.08.55-.11.83s-.06.95-.1,2l-.9,0c0-.08,0-.23,0-.43a6.77,6.77,0,0,0-.14-1,2.2,2.2,0,0,0-.9-.7,3,3,0,0,0-1.25-.24,2.37,2.37,0,0,0-1.54.45,1.33,1.33,0,0,0-.54,1.06,1.49,1.49,0,0,0,.24.94,1.46,1.46,0,0,0,.73.46,17.78,17.78,0,0,0,1.78.39,12.64,12.64,0,0,1,1.74.41,2.94,2.94,0,0,1,1,.62,2.47,2.47,0,0,1,.59.93,3.43,3.43,0,0,1,.21,1.22,3.77,3.77,0,0,1-1.36,2.94,5.53,5.53,0,0,1-3.8,1.2,8.25,8.25,0,0,1-1.59-.15A12.22,12.22,0,0,1,233,40.9l-.13-.18c.06-.6.1-1,.12-1.27Z"/><path class="cls-1" d="M243.69,37.48h.94c0,.87.08,1.42.11,1.65a3.67,3.67,0,0,0,1.16,1,3.4,3.4,0,0,0,1.46.31,2.43,2.43,0,0,0,1.68-.53,1.63,1.63,0,0,0,.59-1.28,1.52,1.52,0,0,0-.19-.81,1.69,1.69,0,0,0-.78-.59,17.34,17.34,0,0,0-1.75-.45,8.52,8.52,0,0,1-2-.62,2.53,2.53,0,0,1-1-1,3.21,3.21,0,0,1-.37-1.58,3.42,3.42,0,0,1,1.21-2.69,5.14,5.14,0,0,1,3.51-1.07,8.58,8.58,0,0,1,1.74.16,5.62,5.62,0,0,1,1.45.49l0,.12a7.53,7.53,0,0,0-.1.83c0,.28-.06.95-.11,2l-.9,0c0-.08,0-.23,0-.43a6.77,6.77,0,0,0-.14-1,2.24,2.24,0,0,0-.89-.7A3.06,3.06,0,0,0,248,31a2.34,2.34,0,0,0-1.54.45,1.31,1.31,0,0,0-.55,1.06,1.43,1.43,0,0,0,.25.94,1.39,1.39,0,0,0,.72.46c.32.1.92.23,1.78.39a12.64,12.64,0,0,1,1.74.41,2.94,2.94,0,0,1,1,.62,2.35,2.35,0,0,1,.59.93,3.43,3.43,0,0,1,.21,1.22,3.73,3.73,0,0,1-1.36,2.94,5.53,5.53,0,0,1-3.8,1.2,8.25,8.25,0,0,1-1.59-.15,12.22,12.22,0,0,1-1.89-.53l-.13-.18c.06-.6.1-1,.12-1.27Z"/><path class="cls-1" d="M253.9,41.17V40.3a6.18,6.18,0,0,0,1.5-.2.58.58,0,0,0,.23-.42,25.77,25.77,0,0,0,.12-3.31,39.84,39.84,0,0,0-.11-4.18.47.47,0,0,0-.15-.3,4.52,4.52,0,0,0-1.59-.17v-.89a22.85,22.85,0,0,0,2.67-.39,14.54,14.54,0,0,0,2-.65l.28.15c-.1,1.22-.14,2.37-.14,3.44v4a17.07,17.07,0,0,0,.09,2.42.4.4,0,0,0,.19.28,5.34,5.34,0,0,0,1.53.2v.91c-1.11,0-2.31-.05-3.62-.05C255.75,41.12,254.76,41.14,253.9,41.17Zm3.21-17a1.8,1.8,0,1,1-1.27,3.07,1.75,1.75,0,0,1-.53-1.28,1.81,1.81,0,0,1,1.8-1.79Z"/><path class="cls-1" d="M262.09,35.64a7,7,0,0,1,.68-3.3,4.38,4.38,0,0,1,2-2,7.14,7.14,0,0,1,3.16-.66,5.54,5.54,0,0,1,4.12,1.42,5.65,5.65,0,0,1,1.41,4.16,8.06,8.06,0,0,1-.41,2.74A5,5,0,0,1,272,39.9,5.21,5.21,0,0,1,270.54,41a6.8,6.8,0,0,1-2.93.61,5.37,5.37,0,0,1-4.09-1.51A6.21,6.21,0,0,1,262.09,35.64Zm3.24-.56a8.12,8.12,0,0,0,.92,4.44,2,2,0,0,0,1.73.88,1.93,1.93,0,0,0,1.53-.67,5.64,5.64,0,0,0,.75-3.45,13.63,13.63,0,0,0-.3-3.07,3.4,3.4,0,0,0-.88-1.79,2.22,2.22,0,0,0-2.63-.13,2.33,2.33,0,0,0-.82,1.24A8.26,8.26,0,0,0,265.33,35.08Z"/><path class="cls-1" d="M288.6,40.27v.9c-1.07-.05-1.93-.08-2.61-.08s-1.44,0-2,.08l-.21-.21c0-.17.06-.84.15-2L284,37v-.93a13.74,13.74,0,0,0-.16-2.69,1.86,1.86,0,0,0-.65-1,2.06,2.06,0,0,0-1.31-.39,2.26,2.26,0,0,0-1.36.39,1.78,1.78,0,0,0-.68.79,9.7,9.7,0,0,0-.07,1.88v2c0,.57,0,1.27,0,2.09a2.06,2.06,0,0,0,.1.73A.42.42,0,0,0,280,40a1.69,1.69,0,0,0,.55.17l1,.1v.9c-.86,0-1.9-.05-3.13-.05-1.43,0-2.54,0-3.33.05v-.9a4.32,4.32,0,0,0,1.26-.13.46.46,0,0,0,.25-.2,2.13,2.13,0,0,0,.13-.84l.05-1.05c0-.22,0-.57,0-1.06V35.45c0-.69,0-1.54-.07-2.53a3.51,3.51,0,0,0-.1-.85.34.34,0,0,0-.21-.15,6.71,6.71,0,0,0-1.32-.11V30.9c1.42-.24,2.35-.42,2.8-.53a9.4,9.4,0,0,0,1.51-.57l.32.14v1.89l2.13-1.71a5.22,5.22,0,0,1,.65-.21,4.53,4.53,0,0,1,.73-.05,4.72,4.72,0,0,1,1.88.28,3,3,0,0,1,1.07.79,3.11,3.11,0,0,1,.6,1.07,6.12,6.12,0,0,1,.18,1.74c0,.89,0,1.46,0,1.7s0,.21,0,.34V37c0,1.32,0,2.13.06,2.45a1,1,0,0,0,.21.6,1.31,1.31,0,0,0,.7.17Z"/><path class="cls-1" d="M64.43,51.37h1.08c.28.8.57,1.55.85,2.26q1.83,4.69,2.2,5.58L70,62.68l1.36-5.25c.52-2.08.82-3.35.9-3.82a1.5,1.5,0,0,0,0-.35.65.65,0,0,0-.11-.39.67.67,0,0,0-.34-.2c-.07,0-.56-.06-1.47-.13v-1c1.39.06,2.24.08,2.54.08l2.76-.08v1l-.25,0a2.89,2.89,0,0,0-.91.14.87.87,0,0,0-.31.34,20.27,20.27,0,0,0-.8,2.41q-.66,2.17-1.92,7c-.84,3.19-1.3,5.06-1.38,5.63h-1.8L67,64.65l-3.2-8.13c-.34.73-1.54,3.54-3.6,8.41L59,68.05H57.26L54.54,55.58a17,17,0,0,0-.64-2.47.7.7,0,0,0-.35-.4,3.36,3.36,0,0,0-1.22-.17v-1l3.27.07,3.84-.07v1l-1.14.05a.83.83,0,0,0-.47.18.56.56,0,0,0-.14.41c0,.08,0,.18,0,.3s.09.56.24,1.35c.29,1.55.5,2.64.63,3.26l1,4.74,1-2.36L62.08,57,64,52.57Z"/><path class="cls-1" d="M75.72,68V67.1a5.3,5.3,0,0,0,1.5-.21.52.52,0,0,0,.24-.41,26,26,0,0,0,.12-3.32A39.58,39.58,0,0,0,77.47,59a.47.47,0,0,0-.15-.31,4.67,4.67,0,0,0-1.6-.16v-.89a25.42,25.42,0,0,0,2.68-.4,13.52,13.52,0,0,0,2-.64l.28.15c-.1,1.22-.14,2.36-.14,3.43v4a16.88,16.88,0,0,0,.09,2.41.35.35,0,0,0,.19.28,5,5,0,0,0,1.53.2V68c-1.11,0-2.31,0-3.62,0C77.58,67.92,76.58,67.93,75.72,68Zm3.22-17a1.72,1.72,0,0,1,1.27.52,1.82,1.82,0,0,1,0,2.55,1.81,1.81,0,0,1-2.54,0,1.75,1.75,0,0,1-.53-1.28,1.79,1.79,0,0,1,.52-1.27A1.74,1.74,0,0,1,78.94,51Z"/><path class="cls-1" d="M83.45,59.05v-.53l1-.67A4.34,4.34,0,0,0,85,57.5V55.93c0-.56,0-1.26-.09-2.09.76-.25,1.25-.41,1.48-.5l1.49-.69.3.23-.12,1.22L88,55.45l-.1,2h.38a17.16,17.16,0,0,0,2.36-.12L90.41,59l-.26,0L89,59H87.87v3.91q0,1.8,0,2.13a1.22,1.22,0,0,0,.39.86,1.44,1.44,0,0,0,1,.31,4.24,4.24,0,0,0,.64,0l.62-.11.19.48-.43.42-.9.92a3.65,3.65,0,0,1-.81.27,4.4,4.4,0,0,1-.73.06,3.07,3.07,0,0,1-2.14-.7A2.22,2.22,0,0,1,85,65.77l0-3.86V59h-.31C84.25,59,83.84,59,83.45,59.05Z"/><path class="cls-1" d="M105,67V68c-1.17,0-1.94,0-2.3,0s-1,0-2.39,0l-.11-.12.16-2.45c0-.43,0-.94,0-1.54V61.59a3.41,3.41,0,0,0-.54-2.21,1.9,1.9,0,0,0-1.53-.61,2.22,2.22,0,0,0-1.26.36,2.25,2.25,0,0,0-.82,1,2.71,2.71,0,0,0-.11,1v1.48c0,.61,0,1.39,0,2.33s.05,1.5.08,1.67a.51.51,0,0,0,.09.21.57.57,0,0,0,.17.12A1.72,1.72,0,0,0,97,67l.9.05V68l-3.56-.09L91.44,68V67A10.46,10.46,0,0,0,92.66,67a.56.56,0,0,0,.27-.14.55.55,0,0,0,.14-.25,20,20,0,0,0,.12-2.23c0-1.24,0-2.35,0-3.31v-3.8q0-1.89-.09-3.42a3.69,3.69,0,0,0-.11-.93.33.33,0,0,0-.13-.13,1.47,1.47,0,0,0-.43-.13c-.13,0-.47,0-1-.07v-.86c1.1-.14,1.9-.26,2.4-.37S95,51,96,50.7l.26.14-.09,2.79c0,1.42,0,2.73,0,3.94V58.7L98.15,57a4.74,4.74,0,0,1,1.7-.31,4.26,4.26,0,0,1,1.65.3,2.83,2.83,0,0,1,1.13.79,3,3,0,0,1,.58,1.07,5.69,5.69,0,0,1,.17,1.52c0,.21,0,.82,0,1.83,0,.74,0,1.35,0,1.82a21.72,21.72,0,0,0,.08,2.55.52.52,0,0,0,.26.36A4.66,4.66,0,0,0,105,67Z"/><path class="cls-1" d="M106.37,68V67.1a5.46,5.46,0,0,0,1.5-.21.54.54,0,0,0,.23-.41,26,26,0,0,0,.12-3.32,41.23,41.23,0,0,0-.1-4.17.52.52,0,0,0-.16-.31,4.55,4.55,0,0,0-1.59-.16v-.89a24.73,24.73,0,0,0,2.67-.4,13.14,13.14,0,0,0,2-.64l.28.15c-.09,1.22-.14,2.36-.14,3.43v4a16.88,16.88,0,0,0,.09,2.41.4.4,0,0,0,.19.28,5,5,0,0,0,1.54.2V68c-1.11,0-2.32,0-3.62,0C108.22,67.92,107.23,67.93,106.37,68Zm3.21-17a1.72,1.72,0,0,1,1.27.52,1.82,1.82,0,0,1,0,2.55,1.72,1.72,0,0,1-1.27.52,1.8,1.8,0,0,1-1.27-3.07A1.72,1.72,0,0,1,109.58,51Z"/><path class="cls-1" d="M127.72,67.06V68c-1.06-.06-1.93-.09-2.6-.09a19.7,19.7,0,0,0-2,.09l-.21-.22c0-.16.07-.84.15-2l.06-1.92v-.93a15,15,0,0,0-.15-2.7,1.85,1.85,0,0,0-.66-1,2,2,0,0,0-1.31-.4,2.28,2.28,0,0,0-1.36.4,1.79,1.79,0,0,0-.68.79,11.8,11.8,0,0,0-.07,1.87v2c0,.57,0,1.27,0,2.1a2.42,2.42,0,0,0,.09.73.4.4,0,0,0,.16.18,1.56,1.56,0,0,0,.55.18c.09,0,.42,0,1,.09V68c-.85,0-1.89,0-3.13,0-1.43,0-2.54,0-3.33,0v-.91a4.06,4.06,0,0,0,1.27-.13.41.41,0,0,0,.25-.2,2.1,2.1,0,0,0,.12-.84l.05-1c0-.22,0-.58,0-1.07V62.25c0-.7,0-1.54-.07-2.53a2.59,2.59,0,0,0-.1-.85.35.35,0,0,0-.2-.15,6.42,6.42,0,0,0-1.33-.12v-.9c1.43-.24,2.36-.42,2.8-.54a9.69,9.69,0,0,0,1.52-.56l.31.14v1.89L121,56.91a3.31,3.31,0,0,1,.65-.2,3.55,3.55,0,0,1,.73-.05,4.79,4.79,0,0,1,1.88.28,3,3,0,0,1,1.06.79,3,3,0,0,1,.61,1.07,6.12,6.12,0,0,1,.18,1.74c0,.89,0,1.45,0,1.69s0,.21,0,.34v1.21c0,1.32,0,2.14.07,2.45a.9.9,0,0,0,.21.6,1.27,1.27,0,0,0,.69.17Z"/><path class="cls-1" d="M136.39,61.36l-.45-.25q.06-.61.09-1.77l.06-1.87V55.93L136,54.64c0-.58,0-.92,0-1s0-.4,0-.6,0-.42-.07-.67l.15-.11c1.89.08,3.51.11,4.88.11h1.24l2.22-.1.1.18c-.09.86-.14,1.41-.14,1.66s0,.47,0,.79l-.12.16-1,0-2.43,0c-1.65,0-2.81,0-3.47.08l-.09,3.71a9.08,9.08,0,0,1,1.68-.63,6.45,6.45,0,0,1,1.5-.16,4.71,4.71,0,0,1,3.41,1.19,4.17,4.17,0,0,1,1.24,3.14,5.81,5.81,0,0,1-.89,3,6.51,6.51,0,0,1-2.74,2.37,8,8,0,0,1-4.58.59,8.44,8.44,0,0,1-1.37-.43c0-.35-.11-.69-.18-1s-.28-1.12-.6-2.33l.77-.27a5.92,5.92,0,0,0,.92,1.49,3.78,3.78,0,0,0,1.3.94,3.82,3.82,0,0,0,1.58.35,2.8,2.8,0,0,0,2.12-.87,3.34,3.34,0,0,0,.83-2.39,3.38,3.38,0,0,0-.85-2.45,3.11,3.11,0,0,0-2.32-.87,4.21,4.21,0,0,0-1.05.12,3.77,3.77,0,0,0-.77.29A6.85,6.85,0,0,0,136.39,61.36Z"/><path class="cls-1" d="M146.85,68V66.76L149,64.6c1.13-1.14,2-2,2.51-2.66a11.15,11.15,0,0,0,1.28-1.76,6.72,6.72,0,0,0,.64-1.45,5,5,0,0,0,.18-1.33,2.83,2.83,0,0,0-.69-2.06,2.55,2.55,0,0,0-1.88-.7,3,3,0,0,0-1.26.27,2.71,2.71,0,0,0-1,.81c-.14.48-.3,1.09-.48,1.85h-.9l.3-2.68c.05-.42.09-.85.14-1.3a5,5,0,0,1,1.77-1.11,6.52,6.52,0,0,1,2.23-.36,6,6,0,0,1,2.8.57,3.7,3.7,0,0,1,1.6,1.58,4.38,4.38,0,0,1,.53,2.08,4.53,4.53,0,0,1-.2,1.36,6,6,0,0,1-.69,1.45,11.6,11.6,0,0,1-1,1.4l-1.33,1.35-1.23,1.2q-1,1-2.1,2l0,.16h2.06l3.11-.06c.56,0,1.25,0,2.06-.1l.09.16c-.07.68-.11,1.22-.11,1.61a6.69,6.69,0,0,0,.08,1l-.06.13-3.46-.1-1.67,0Z"/><path class="cls-1" d="M165.75,68V67.4l.33-.18c.29-.17.57-.34.82-.52.08-1,.13-2.75.13-5.1V59.68q0-1.55-.06-4.53a12.37,12.37,0,0,0-.16-2.11.39.39,0,0,0-.09-.17.6.6,0,0,0-.29-.14c-.14,0-.63-.1-1.48-.21v-1l4.26.07q.75,0,2.82-.06l2.4,0a17.31,17.31,0,0,1,3.32.25,6.86,6.86,0,0,1,2.18.81,6.1,6.1,0,0,1,1.56,1.32,5.38,5.38,0,0,1,1,1.64A9.09,9.09,0,0,1,183,58.8a9.32,9.32,0,0,1-.82,4,8.34,8.34,0,0,1-2.26,2.94,8.88,8.88,0,0,1-3.11,1.7,13.56,13.56,0,0,1-4,.53l-3.48-.07Zm4.69-1.43a13.82,13.82,0,0,0,2.08.16,10.57,10.57,0,0,0,2.77-.33,5.07,5.07,0,0,0,1.56-.71,5.46,5.46,0,0,0,1.28-1.39,7,7,0,0,0,1-2.18,10.31,10.31,0,0,0,.34-2.73,9.61,9.61,0,0,0-.34-2.58A5.68,5.68,0,0,0,178,54.59a4.48,4.48,0,0,0-2-1.36,11.4,11.4,0,0,0-3.58-.42,13.27,13.27,0,0,0-2,.16q-.12,1.65-.12,6.26v2.7C170.32,64.26,170.36,65.79,170.44,66.54Z"/><path class="cls-1" d="M195.65,67.09V68c-.89,0-1.69-.06-2.39-.06s-1.29,0-1.91.06l-.1-.13.1-1.54c-.28.18-1.11.8-2.48,1.85a4.55,4.55,0,0,1-1,.12,2.65,2.65,0,0,1-2-.75,3,3,0,0,1-.72-2.16,3.33,3.33,0,0,1,.32-1.55,2.73,2.73,0,0,1,.7-.9,4,4,0,0,1,1.14-.56,24,24,0,0,1,4-1,3.14,3.14,0,0,0-.57-2.12,2.29,2.29,0,0,0-1.85-.73,3.71,3.71,0,0,0-1,.13,1.74,1.74,0,0,0-.47.24L187,60l-.8-.18.07-1.51q.87-.59,1.65-1a6.55,6.55,0,0,1,1.1-.52,4.35,4.35,0,0,1,1.22-.13,5.18,5.18,0,0,1,2.11.37,3,3,0,0,1,1.21.87,2.62,2.62,0,0,1,.54,1.08,5.81,5.81,0,0,1,.15,1.45c0,.25,0,.9-.06,2,0,.7,0,1.27,0,1.72a16.37,16.37,0,0,0,.11,2.53.38.38,0,0,0,.19.28A5,5,0,0,0,195.65,67.09Zm-4.3-4.78a13.62,13.62,0,0,0-1.82.51,2.3,2.3,0,0,0-1.14.73,1.89,1.89,0,0,0-.32,1.11,1.65,1.65,0,0,0,.38,1.16,1.33,1.33,0,0,0,1,.41,2.16,2.16,0,0,0,1.06-.3,2.4,2.4,0,0,0,.83-.78Z"/><path class="cls-1" d="M197,73.94c.13-.57.22-1,.25-1.19l.18-1.19.31-.06a2.89,2.89,0,0,0,.66.54,2.37,2.37,0,0,0,1,.2,1.78,1.78,0,0,0,1.12-.41A5.17,5.17,0,0,0,201.63,70l.47-1.12-3.8-9.74a2.39,2.39,0,0,0-.64-1.07,2.15,2.15,0,0,0-1.16-.19V57c.76,0,1.7,0,2.81,0,1.31,0,2.48,0,3.5,0v.93h-.27a1.9,1.9,0,0,0-1,.16.35.35,0,0,0-.18.3,1.47,1.47,0,0,0,.12.52l.57,1.58,1.71,4.47,1-2.44a22.46,22.46,0,0,0,1.52-4.17.29.29,0,0,0-.06-.19A.56.56,0,0,0,206,58a5.72,5.72,0,0,0-1.13-.09V57c.5,0,1.13,0,1.89,0,.92,0,1.78,0,2.57,0v.93h-.18a1.36,1.36,0,0,0-.6.11.79.79,0,0,0-.31.24,10.19,10.19,0,0,0-.66,1.29c-.46,1-.83,1.79-1.12,2.43-.87,2-1.43,3.26-1.66,3.82l-1.89,4.61a8.51,8.51,0,0,1-1.84,3,3.34,3.34,0,0,1-2.36.9,4.32,4.32,0,0,1-.84-.07A4.53,4.53,0,0,1,197,73.94Z"/><path class="cls-1" d="M210.81,64.27h.93c0,.88.08,1.43.12,1.66a3.53,3.53,0,0,0,1.16.95,3.22,3.22,0,0,0,1.45.31,2.4,2.4,0,0,0,1.69-.53,1.65,1.65,0,0,0,.59-1.27,1.58,1.58,0,0,0-.2-.82,1.67,1.67,0,0,0-.77-.59,15.3,15.3,0,0,0-1.76-.44,8.51,8.51,0,0,1-2-.63,2.41,2.41,0,0,1-1-1,3.18,3.18,0,0,1-.38-1.58,3.43,3.43,0,0,1,1.22-2.68,5.12,5.12,0,0,1,3.51-1.08,8.56,8.56,0,0,1,1.74.17,5.68,5.68,0,0,1,1.44.49l0,.12c-.05.27-.08.55-.11.83s-.06.94-.1,2h-.91c0-.09,0-.23,0-.43a6.43,6.43,0,0,0-.14-1,2.23,2.23,0,0,0-.9-.71,3.17,3.17,0,0,0-1.25-.23,2.43,2.43,0,0,0-1.54.44,1.36,1.36,0,0,0-.54,1.07,1.22,1.22,0,0,0,1,1.39,14.68,14.68,0,0,0,1.78.4,13.1,13.1,0,0,1,1.74.4,3.1,3.1,0,0,1,1,.62,2.47,2.47,0,0,1,.59.93,3.49,3.49,0,0,1,.2,1.23A3.78,3.78,0,0,1,218,67.18a5.53,5.53,0,0,1-3.8,1.2,8.43,8.43,0,0,1-1.6-.15,15.37,15.37,0,0,1-1.88-.53l-.13-.18c.06-.6.1-1,.12-1.28Z"/><path class="cls-1" d="M224.38,64.57a1.74,1.74,0,0,1,1.29.53,1.86,1.86,0,1,1-1.29-.53Zm7.83,0A1.81,1.81,0,0,1,234,66.4a1.84,1.84,0,1,1-1.83-1.83Zm7.83,0a1.78,1.78,0,0,1,1.31.53,1.86,1.86,0,0,1,0,2.6,1.84,1.84,0,0,1-3.14-1.3A1.81,1.81,0,0,1,240,64.57Z"/></svg>